<?xml version="1.0" encoding="UTF-8" standalone="no"?>
<!DOCTYPE svg PUBLIC "-//W3C//DTD SVG 1.1//EN" "http://www.w3.org/Graphics/SVG/1.1/DTD/svg11.dtd">
<svg width="100%" height="100%" viewBox="0 0 46 42" version="1.1" xmlns="http://www.w3.org/2000/svg" xmlns:xlink="http://www.w3.org/1999/xlink" xml:space="preserve" xmlns:serif="http://www.serif.com/" style="fill-rule:evenodd;clip-rule:evenodd;stroke-linecap:round;stroke-miterlimit:10;">
    <rect id="Artboard1" x="0" y="0" width="45.952" height="41.999" style="fill:none;"/>
    <g id="Illu_ManSleeping">
        <path d="M38.828,40.646C44.16,29.582 43.172,17.371 36.396,10.118C30.141,3.423 19.709,1.734 14.442,3.374C14.332,3.408 11.708,4.243 11.779,5.061C11.866,6.064 15.865,5.443 18.328,7.915C20.303,9.897 21.057,13.636 19.521,15.228C18.309,16.484 15.872,16.171 14.529,15.748C12.491,15.105 12.279,13.744 10.171,13.28C9.81,13.201 7.828,12.804 6.13,13.885C4.008,15.237 3.552,18.122 3.743,20.004C4.068,23.198 6.321,24.125 7.431,26.556C8.517,28.933 8.65,33.058 3.526,40.593L13.84,40.58C13.628,39.946 11.385,32.873 15.677,27.479C19.968,22.088 29.182,20.429 32.802,24.596C35.722,27.958 35.058,35.182 29.687,40.58C32.734,40.602 35.781,40.624 38.828,40.646" style="fill:rgb(233,237,241);fill-rule:nonzero;"/>
        <g opacity="0.6">
            <path d="M8.533,37.508C9.171,37.518 10.154,37.558 10.154,37.591C10.154,37.66 5.702,37.706 5.701,37.633C5.701,37.591 7.1,37.486 8.533,37.508" style="fill:rgb(187,193,206);fill-rule:nonzero;"/>
        </g>
        <path d="M21.359,32.174L22.375,32.174L22.109,40.14L21.756,40.14L21.359,32.174Z" style="fill:rgb(187,193,206);fill-rule:nonzero;"/>
        <path d="M20.335,40.566L23.462,40.579L22.11,40.139L21.757,40.139L20.335,40.566Z" style="fill:rgb(187,193,206);fill-rule:nonzero;"/>
        <path d="M25.392,25.753L26.93,25.753L26.93,22.346L25.392,22.346L25.392,25.753Z" style="fill:rgb(205,210,220);fill-rule:nonzero;"/>
        <path d="M20.004,24.596L32.319,24.596C32.585,24.596 32.801,24.38 32.801,24.114L32.801,15.71C32.801,15.444 32.585,15.228 32.319,15.228L20.004,15.228C19.737,15.228 19.521,15.444 19.521,15.71L19.521,24.114C19.521,24.38 19.737,24.596 20.004,24.596" style="fill:rgb(91,100,118);fill-rule:nonzero;"/>
        <rect x="20.002" y="15.686" width="12.317" height="7.207" style="fill:white;"/>
        <g opacity="0.6">
            <path d="M20.003,22.893L32.32,22.893L35.32,12.146L35.42,5.06L5.543,5.06L5.643,20.071L20.003,22.893Z" style="fill:white;fill-rule:nonzero;"/>
        </g>
        <path d="M25.733,23.8C25.733,24.037 25.925,24.228 26.161,24.228C26.398,24.228 26.589,24.037 26.589,23.8C26.589,23.564 26.398,23.372 26.161,23.372C25.925,23.372 25.733,23.564 25.733,23.8" style="fill:rgb(195,200,208);fill-rule:nonzero;"/>
        <path d="M28.837,26.105L23.486,26.105C23.389,26.105 23.31,26.026 23.31,25.929C23.31,25.831 23.389,25.752 23.486,25.752L28.837,25.752C28.934,25.752 29.013,25.831 29.013,25.929C29.013,26.026 28.934,26.105 28.837,26.105" style="fill:rgb(91,100,118);fill-rule:nonzero;"/>
        <path d="M22.546,16.594L22.359,16.594L22.359,16.694L22.446,16.694L22.446,16.729L22.546,16.729L22.546,16.594ZM22.546,16.829L22.446,16.829L22.446,17.067L22.546,17.067L22.546,16.829ZM22.546,17.167L22.446,17.167L22.446,17.315L22.407,17.315L22.379,17.315L22.329,17.315L22.324,17.315L22.275,17.315L22.27,17.315L22.219,17.315L22.219,17.415L22.457,17.415L22.457,17.404L22.546,17.404L22.546,17.167ZM22.119,17.315L22.069,17.315L22.042,17.315L21.992,17.315L21.987,17.315L21.937,17.315L21.932,17.315L21.882,17.315L21.882,17.415L22.119,17.415L22.119,17.315ZM21.782,17.315L21.732,17.315L21.704,17.315L21.654,17.315L21.65,17.315L21.599,17.315L21.594,17.315L21.545,17.315L21.545,17.415L21.782,17.415L21.782,17.315ZM21.231,17.154L21.13,17.154L21.13,17.391L21.207,17.391L21.207,17.415L21.444,17.415L21.444,17.315L21.395,17.315L21.367,17.315L21.317,17.315L21.312,17.315L21.262,17.315L21.257,17.315L21.231,17.315L21.231,17.314L21.231,17.264L21.231,17.259L21.231,17.209L21.231,17.204L21.231,17.154ZM21.231,16.816L21.13,16.816L21.13,17.054L21.231,17.054L21.231,17.004L21.231,16.976L21.231,16.927L21.231,16.921L21.231,16.871L21.231,16.866L21.231,16.816ZM21.246,16.594L21.13,16.594L21.13,16.717L21.231,16.717L21.231,16.694L21.246,16.694L21.246,16.594ZM21.584,16.594L21.346,16.594L21.346,16.694L21.584,16.694L21.584,16.594ZM21.921,16.594L21.683,16.594L21.683,16.694L21.921,16.694L21.921,16.594ZM22.258,16.594L22.021,16.594L22.021,16.694L22.258,16.694L22.258,16.594Z" style="fill:rgb(20,70,160);fill-rule:nonzero;"/>
        <path d="M22.546,17.846L22.359,17.846L22.359,17.946L22.446,17.946L22.446,17.981L22.546,17.981L22.546,17.846ZM22.546,18.081L22.446,18.081L22.446,18.319L22.546,18.319L22.546,18.081ZM22.546,18.419L22.446,18.419L22.446,18.567L22.407,18.567L22.379,18.567L22.329,18.567L22.324,18.567L22.275,18.567L22.269,18.567L22.219,18.567L22.219,18.667L22.457,18.667L22.457,18.657L22.546,18.657L22.546,18.419ZM22.119,18.567L22.069,18.567L22.042,18.567L21.992,18.567L21.987,18.567L21.937,18.567L21.932,18.567L21.882,18.567L21.882,18.667L22.119,18.667L22.119,18.567ZM21.782,18.567L21.732,18.567L21.704,18.567L21.654,18.567L21.65,18.567L21.599,18.567L21.594,18.567L21.545,18.567L21.545,18.667L21.782,18.667L21.782,18.567ZM21.231,18.406L21.13,18.406L21.13,18.643L21.207,18.643L21.207,18.667L21.444,18.667L21.444,18.567L21.394,18.567L21.367,18.567L21.317,18.567L21.312,18.567L21.262,18.567L21.257,18.567L21.231,18.567L21.231,18.566L21.231,18.516L21.231,18.511L21.231,18.461L21.231,18.456L21.231,18.406ZM21.231,18.069L21.13,18.069L21.13,18.306L21.231,18.306L21.231,18.256L21.231,18.228L21.231,18.179L21.231,18.174L21.231,18.123L21.231,18.118L21.231,18.069ZM21.246,17.846L21.13,17.846L21.13,17.969L21.231,17.969L21.231,17.946L21.246,17.946L21.246,17.846ZM21.584,17.846L21.346,17.846L21.346,17.946L21.584,17.946L21.584,17.846ZM21.921,17.846L21.683,17.846L21.683,17.946L21.921,17.946L21.921,17.846ZM22.258,17.846L22.021,17.846L22.021,17.946L22.258,17.946L22.258,17.846Z" style="fill:rgb(20,70,160);fill-rule:nonzero;"/>
        <path d="M22.546,19.101L22.359,19.101L22.359,19.201L22.446,19.201L22.446,19.236L22.546,19.236L22.546,19.101ZM22.546,19.336L22.446,19.336L22.446,19.574L22.546,19.574L22.546,19.336ZM22.546,19.674L22.446,19.674L22.446,19.822L22.407,19.822L22.379,19.822L22.329,19.822L22.324,19.822L22.275,19.822L22.269,19.822L22.219,19.822L22.219,19.922L22.457,19.922L22.457,19.911L22.546,19.911L22.546,19.674ZM22.119,19.822L22.069,19.822L22.042,19.822L21.992,19.822L21.987,19.822L21.937,19.822L21.932,19.822L21.882,19.822L21.882,19.922L22.119,19.922L22.119,19.822ZM21.782,19.822L21.732,19.822L21.704,19.822L21.654,19.822L21.65,19.822L21.599,19.822L21.594,19.822L21.545,19.822L21.545,19.922L21.782,19.922L21.782,19.822ZM21.231,19.661L21.13,19.661L21.13,19.898L21.207,19.898L21.207,19.922L21.444,19.922L21.444,19.822L21.394,19.822L21.367,19.822L21.317,19.822L21.312,19.822L21.262,19.822L21.257,19.822L21.231,19.822L21.231,19.821L21.231,19.771L21.231,19.766L21.231,19.716L21.231,19.711L21.231,19.661ZM21.231,19.323L21.13,19.323L21.13,19.561L21.231,19.561L21.231,19.511L21.231,19.483L21.231,19.434L21.231,19.428L21.231,19.378L21.231,19.373L21.231,19.323ZM21.246,19.101L21.13,19.101L21.13,19.224L21.231,19.224L21.231,19.201L21.246,19.201L21.246,19.101ZM21.584,19.101L21.346,19.101L21.346,19.201L21.584,19.201L21.584,19.101ZM21.921,19.101L21.683,19.101L21.683,19.201L21.921,19.201L21.921,19.101ZM22.258,19.101L22.021,19.101L22.021,19.201L22.258,19.201L22.258,19.101Z" style="fill:rgb(20,70,160);fill-rule:nonzero;"/>
        <path d="M22.546,20.344L22.359,20.344L22.359,20.444L22.446,20.444L22.446,20.479L22.546,20.479L22.546,20.344ZM22.546,20.579L22.446,20.579L22.446,20.817L22.546,20.817L22.546,20.579ZM22.546,20.917L22.446,20.917L22.446,21.065L22.407,21.065L22.379,21.065L22.329,21.065L22.324,21.065L22.275,21.065L22.269,21.065L22.219,21.065L22.219,21.165L22.457,21.165L22.457,21.155L22.546,21.155L22.546,20.917ZM22.119,21.065L22.069,21.065L22.042,21.065L21.992,21.065L21.987,21.065L21.937,21.065L21.932,21.065L21.882,21.065L21.882,21.165L22.119,21.165L22.119,21.065ZM21.782,21.065L21.732,21.065L21.704,21.065L21.654,21.065L21.65,21.065L21.599,21.065L21.594,21.065L21.545,21.065L21.545,21.165L21.782,21.165L21.782,21.065ZM21.231,20.904L21.13,20.904L21.13,21.141L21.207,21.141L21.207,21.165L21.444,21.165L21.444,21.065L21.394,21.065L21.367,21.065L21.317,21.065L21.312,21.065L21.262,21.065L21.257,21.065L21.231,21.065L21.231,21.064L21.231,21.014L21.231,21.009L21.231,20.959L21.231,20.954L21.231,20.904ZM21.231,20.566L21.13,20.566L21.13,20.804L21.231,20.804L21.231,20.754L21.231,20.726L21.231,20.677L21.231,20.671L21.231,20.621L21.231,20.616L21.231,20.566ZM21.246,20.344L21.13,20.344L21.13,20.467L21.231,20.467L21.231,20.444L21.246,20.444L21.246,20.344ZM21.584,20.344L21.346,20.344L21.346,20.444L21.584,20.444L21.584,20.344ZM21.921,20.344L21.683,20.344L21.683,20.444L21.921,20.444L21.921,20.344ZM22.258,20.344L22.021,20.344L22.021,20.444L22.258,20.444L22.258,20.344Z" style="fill:rgb(20,70,160);fill-rule:nonzero;"/>
        <path d="M24.727,16.594L24.54,16.594L24.54,16.694L24.627,16.694L24.627,16.729L24.727,16.729L24.727,16.594ZM24.727,16.829L24.627,16.829L24.627,17.067L24.727,17.067L24.727,16.829ZM24.727,17.167L24.627,17.167L24.627,17.315L24.588,17.315L24.56,17.315L24.511,17.315L24.506,17.315L24.456,17.315L24.451,17.315L24.4,17.315L24.4,17.415L24.638,17.415L24.638,17.404L24.727,17.404L24.727,17.167ZM24.301,17.315L24.25,17.315L24.223,17.315L24.173,17.315L24.168,17.315L24.118,17.315L24.113,17.315L24.063,17.315L24.063,17.415L24.301,17.415L24.301,17.315ZM23.963,17.315L23.913,17.315L23.886,17.315L23.835,17.315L23.831,17.315L23.781,17.315L23.775,17.315L23.726,17.315L23.726,17.415L23.963,17.415L23.963,17.315ZM23.412,17.154L23.312,17.154L23.312,17.391L23.388,17.391L23.388,17.415L23.625,17.415L23.625,17.315L23.576,17.315L23.548,17.315L23.498,17.315L23.493,17.315L23.443,17.315L23.438,17.315L23.412,17.315L23.412,17.314L23.412,17.264L23.412,17.259L23.412,17.209L23.412,17.204L23.412,17.154ZM23.412,16.816L23.312,16.816L23.312,17.054L23.412,17.054L23.412,17.004L23.412,16.976L23.412,16.927L23.412,16.921L23.412,16.871L23.412,16.866L23.412,16.816ZM23.427,16.594L23.312,16.594L23.312,16.716L23.412,16.716L23.412,16.694L23.427,16.694L23.427,16.594ZM23.765,16.594L23.527,16.594L23.527,16.694L23.765,16.694L23.765,16.594ZM24.102,16.594L23.865,16.594L23.865,16.694L24.102,16.694L24.102,16.594ZM24.44,16.594L24.202,16.594L24.202,16.694L24.44,16.694L24.44,16.594Z" style="fill:rgb(20,70,160);fill-rule:nonzero;"/>
        <path d="M24.727,17.846L24.54,17.846L24.54,17.946L24.627,17.946L24.627,17.981L24.727,17.981L24.727,17.846ZM24.727,18.081L24.627,18.081L24.627,18.319L24.727,18.319L24.727,18.081ZM24.727,18.419L24.627,18.419L24.627,18.567L24.588,18.567L24.56,18.567L24.511,18.567L24.505,18.567L24.456,18.567L24.451,18.567L24.4,18.567L24.4,18.667L24.638,18.667L24.638,18.657L24.727,18.657L24.727,18.419ZM24.301,18.567L24.25,18.567L24.223,18.567L24.173,18.567L24.168,18.567L24.118,18.567L24.113,18.567L24.063,18.567L24.063,18.667L24.301,18.667L24.301,18.567ZM23.963,18.567L23.913,18.567L23.886,18.567L23.835,18.567L23.831,18.567L23.781,18.567L23.775,18.567L23.726,18.567L23.726,18.667L23.963,18.667L23.963,18.567ZM23.412,18.406L23.312,18.406L23.312,18.643L23.388,18.643L23.388,18.667L23.625,18.667L23.625,18.567L23.576,18.567L23.548,18.567L23.498,18.567L23.493,18.567L23.443,18.567L23.438,18.567L23.412,18.567L23.412,18.566L23.412,18.516L23.412,18.511L23.412,18.461L23.412,18.456L23.412,18.406ZM23.412,18.068L23.312,18.068L23.312,18.306L23.412,18.306L23.412,18.256L23.412,18.228L23.412,18.179L23.412,18.174L23.412,18.123L23.412,18.118L23.412,18.068ZM23.427,17.846L23.312,17.846L23.312,17.969L23.412,17.969L23.412,17.946L23.427,17.946L23.427,17.846ZM23.765,17.846L23.527,17.846L23.527,17.946L23.765,17.946L23.765,17.846ZM24.102,17.846L23.865,17.846L23.865,17.946L24.102,17.946L24.102,17.846ZM24.44,17.846L24.202,17.846L24.202,17.946L24.44,17.946L24.44,17.846Z" style="fill:rgb(20,70,160);fill-rule:nonzero;"/>
        <path d="M24.727,19.101L24.54,19.101L24.54,19.201L24.627,19.201L24.627,19.236L24.727,19.236L24.727,19.101ZM24.727,19.336L24.627,19.336L24.627,19.574L24.727,19.574L24.727,19.336ZM24.727,19.674L24.627,19.674L24.627,19.822L24.588,19.822L24.56,19.822L24.511,19.822L24.505,19.822L24.456,19.822L24.451,19.822L24.4,19.822L24.4,19.922L24.638,19.922L24.638,19.912L24.727,19.912L24.727,19.674ZM24.301,19.822L24.25,19.822L24.223,19.822L24.173,19.822L24.168,19.822L24.118,19.822L24.113,19.822L24.063,19.822L24.063,19.922L24.301,19.922L24.301,19.822ZM23.963,19.822L23.913,19.822L23.886,19.822L23.835,19.822L23.831,19.822L23.781,19.822L23.775,19.822L23.726,19.822L23.726,19.922L23.963,19.922L23.963,19.822ZM23.412,19.661L23.312,19.661L23.312,19.898L23.388,19.898L23.388,19.922L23.625,19.922L23.625,19.822L23.576,19.822L23.548,19.822L23.498,19.822L23.493,19.822L23.443,19.822L23.438,19.822L23.412,19.822L23.412,19.821L23.412,19.771L23.412,19.766L23.412,19.716L23.412,19.711L23.412,19.661ZM23.412,19.323L23.312,19.323L23.312,19.561L23.412,19.561L23.412,19.511L23.412,19.483L23.412,19.434L23.412,19.428L23.412,19.378L23.412,19.373L23.412,19.323ZM23.427,19.101L23.312,19.101L23.312,19.224L23.412,19.224L23.412,19.201L23.427,19.201L23.427,19.101ZM23.765,19.101L23.527,19.101L23.527,19.201L23.765,19.201L23.765,19.101ZM24.102,19.101L23.865,19.101L23.865,19.201L24.102,19.201L24.102,19.101ZM24.44,19.101L24.202,19.101L24.202,19.201L24.44,19.201L24.44,19.101Z" style="fill:rgb(20,70,160);fill-rule:nonzero;"/>
        <path d="M24.727,20.344L24.54,20.344L24.54,20.444L24.627,20.444L24.627,20.479L24.727,20.479L24.727,20.344ZM24.727,20.579L24.627,20.579L24.627,20.817L24.727,20.817L24.727,20.579ZM24.727,20.917L24.627,20.917L24.627,21.065L24.588,21.065L24.56,21.065L24.511,21.065L24.505,21.065L24.456,21.065L24.451,21.065L24.4,21.065L24.4,21.165L24.638,21.165L24.638,21.155L24.727,21.155L24.727,20.917ZM24.301,21.065L24.25,21.065L24.223,21.065L24.173,21.065L24.168,21.065L24.118,21.065L24.113,21.065L24.063,21.065L24.063,21.165L24.301,21.165L24.301,21.065ZM23.963,21.065L23.913,21.065L23.886,21.065L23.835,21.065L23.831,21.065L23.781,21.065L23.775,21.065L23.726,21.065L23.726,21.165L23.963,21.165L23.963,21.065ZM23.412,20.904L23.312,20.904L23.312,21.141L23.388,21.141L23.388,21.165L23.625,21.165L23.625,21.065L23.576,21.065L23.548,21.065L23.498,21.065L23.493,21.065L23.443,21.065L23.438,21.065L23.412,21.065L23.412,21.064L23.412,21.014L23.412,21.009L23.412,20.959L23.412,20.954L23.412,20.904ZM23.412,20.566L23.312,20.566L23.312,20.804L23.412,20.804L23.412,20.754L23.412,20.726L23.412,20.677L23.412,20.671L23.412,20.621L23.412,20.616L23.412,20.566ZM23.427,20.344L23.312,20.344L23.312,20.467L23.412,20.467L23.412,20.444L23.427,20.444L23.427,20.344ZM23.765,20.344L23.527,20.344L23.527,20.444L23.765,20.444L23.765,20.344ZM24.102,20.344L23.865,20.344L23.865,20.444L24.102,20.444L24.102,20.344ZM24.44,20.344L24.202,20.344L24.202,20.444L24.44,20.444L24.44,20.344Z" style="fill:rgb(20,70,160);fill-rule:nonzero;"/>
        <path d="M26.985,16.594L26.798,16.594L26.798,16.694L26.885,16.694L26.885,16.729L26.985,16.729L26.985,16.594ZM26.985,16.829L26.885,16.829L26.885,17.067L26.985,17.067L26.985,16.829ZM26.985,17.167L26.885,17.167L26.885,17.315L26.846,17.315L26.818,17.315L26.769,17.315L26.764,17.315L26.714,17.315L26.709,17.315L26.659,17.315L26.659,17.415L26.896,17.415L26.896,17.404L26.985,17.404L26.985,17.167ZM26.559,17.315L26.508,17.315L26.481,17.315L26.431,17.315L26.426,17.315L26.376,17.315L26.371,17.315L26.321,17.315L26.321,17.415L26.559,17.415L26.559,17.315ZM26.221,17.315L26.171,17.315L26.144,17.315L26.093,17.315L26.089,17.315L26.039,17.315L26.034,17.315L25.984,17.315L25.984,17.415L26.221,17.415L26.221,17.315ZM25.67,17.154L25.57,17.154L25.57,17.391L25.646,17.391L25.646,17.415L25.883,17.415L25.883,17.315L25.834,17.315L25.806,17.315L25.756,17.315L25.751,17.315L25.701,17.315L25.696,17.315L25.67,17.315L25.67,17.314L25.67,17.264L25.67,17.259L25.67,17.209L25.67,17.204L25.67,17.154ZM25.67,16.816L25.57,16.816L25.57,17.054L25.67,17.054L25.67,17.004L25.67,16.976L25.67,16.927L25.67,16.921L25.67,16.871L25.67,16.866L25.67,16.816ZM25.685,16.594L25.57,16.594L25.57,16.717L25.67,16.717L25.67,16.694L25.685,16.694L25.685,16.594ZM26.023,16.594L25.785,16.594L25.785,16.694L26.023,16.694L26.023,16.594ZM26.36,16.594L26.123,16.594L26.123,16.694L26.36,16.694L26.36,16.594ZM26.698,16.594L26.46,16.594L26.46,16.694L26.698,16.694L26.698,16.594Z" style="fill:rgb(20,70,160);fill-rule:nonzero;"/>
        <path d="M26.985,17.846L26.798,17.846L26.798,17.946L26.885,17.946L26.885,17.981L26.985,17.981L26.985,17.846ZM26.985,18.081L26.885,18.081L26.885,18.319L26.985,18.319L26.985,18.081ZM26.985,18.419L26.885,18.419L26.885,18.567L26.846,18.567L26.818,18.567L26.769,18.567L26.764,18.567L26.714,18.567L26.709,18.567L26.659,18.567L26.659,18.667L26.896,18.667L26.896,18.657L26.985,18.657L26.985,18.419ZM26.559,18.567L26.508,18.567L26.481,18.567L26.431,18.567L26.426,18.567L26.376,18.567L26.371,18.567L26.321,18.567L26.321,18.667L26.559,18.667L26.559,18.567ZM26.221,18.567L26.171,18.567L26.144,18.567L26.093,18.567L26.089,18.567L26.039,18.567L26.034,18.567L25.984,18.567L25.984,18.667L26.221,18.667L26.221,18.567ZM25.67,18.406L25.57,18.406L25.57,18.643L25.646,18.643L25.646,18.667L25.883,18.667L25.883,18.567L25.834,18.567L25.806,18.567L25.756,18.567L25.751,18.567L25.701,18.567L25.696,18.567L25.67,18.567L25.67,18.566L25.67,18.516L25.67,18.511L25.67,18.461L25.67,18.456L25.67,18.406ZM25.67,18.069L25.57,18.069L25.57,18.306L25.67,18.306L25.67,18.256L25.67,18.228L25.67,18.179L25.67,18.174L25.67,18.123L25.67,18.118L25.67,18.069ZM25.685,17.846L25.57,17.846L25.57,17.969L25.67,17.969L25.67,17.946L25.685,17.946L25.685,17.846ZM26.023,17.846L25.785,17.846L25.785,17.946L26.023,17.946L26.023,17.846ZM26.36,17.846L26.123,17.846L26.123,17.946L26.36,17.946L26.36,17.846ZM26.698,17.846L26.46,17.846L26.46,17.946L26.698,17.946L26.698,17.846Z" style="fill:rgb(20,70,160);fill-rule:nonzero;"/>
        <path d="M26.985,19.101L26.798,19.101L26.798,19.201L26.885,19.201L26.885,19.236L26.985,19.236L26.985,19.101ZM26.985,19.336L26.885,19.336L26.885,19.574L26.985,19.574L26.985,19.336ZM26.985,19.674L26.885,19.674L26.885,19.822L26.846,19.822L26.818,19.822L26.769,19.822L26.764,19.822L26.714,19.822L26.709,19.822L26.659,19.822L26.659,19.922L26.896,19.922L26.896,19.911L26.985,19.911L26.985,19.674ZM26.559,19.822L26.508,19.822L26.481,19.822L26.431,19.822L26.426,19.822L26.376,19.822L26.371,19.822L26.321,19.822L26.321,19.922L26.559,19.922L26.559,19.822ZM26.221,19.822L26.171,19.822L26.144,19.822L26.093,19.822L26.089,19.822L26.039,19.822L26.034,19.822L25.984,19.822L25.984,19.922L26.221,19.922L26.221,19.822ZM25.67,19.661L25.57,19.661L25.57,19.898L25.646,19.898L25.646,19.922L25.883,19.922L25.883,19.822L25.834,19.822L25.806,19.822L25.756,19.822L25.751,19.822L25.701,19.822L25.696,19.822L25.67,19.822L25.67,19.821L25.67,19.771L25.67,19.766L25.67,19.716L25.67,19.711L25.67,19.661ZM25.67,19.323L25.57,19.323L25.57,19.561L25.67,19.561L25.67,19.511L25.67,19.483L25.67,19.434L25.67,19.428L25.67,19.378L25.67,19.373L25.67,19.323ZM25.685,19.101L25.57,19.101L25.57,19.224L25.67,19.224L25.67,19.201L25.685,19.201L25.685,19.101ZM26.023,19.101L25.785,19.101L25.785,19.201L26.023,19.201L26.023,19.101ZM26.36,19.101L26.123,19.101L26.123,19.201L26.36,19.201L26.36,19.101ZM26.698,19.101L26.46,19.101L26.46,19.201L26.698,19.201L26.698,19.101Z" style="fill:rgb(20,70,160);fill-rule:nonzero;"/>
        <rect x="25.57" y="20.344" width="1.415" height="0.821" style="fill:rgb(205,210,220);"/>
        <path d="M29.13,16.594L28.943,16.594L28.943,16.694L29.03,16.694L29.03,16.729L29.13,16.729L29.13,16.594ZM29.13,16.829L29.03,16.829L29.03,17.067L29.13,17.067L29.13,16.829ZM29.13,17.167L29.03,17.167L29.03,17.315L28.991,17.315L28.963,17.315L28.914,17.315L28.909,17.315L28.859,17.315L28.854,17.315L28.804,17.315L28.804,17.415L29.041,17.415L29.041,17.404L29.13,17.404L29.13,17.167ZM28.704,17.315L28.653,17.315L28.626,17.315L28.576,17.315L28.571,17.315L28.521,17.315L28.516,17.315L28.466,17.315L28.466,17.415L28.704,17.415L28.704,17.315ZM28.366,17.315L28.316,17.315L28.289,17.315L28.239,17.315L28.234,17.315L28.184,17.315L28.179,17.315L28.129,17.315L28.129,17.415L28.366,17.415L28.366,17.315ZM27.815,17.154L27.715,17.154L27.715,17.391L27.791,17.391L27.791,17.415L28.028,17.415L28.028,17.315L27.979,17.315L27.951,17.315L27.901,17.315L27.896,17.315L27.846,17.315L27.841,17.315L27.815,17.315L27.815,17.314L27.815,17.264L27.815,17.259L27.815,17.209L27.815,17.204L27.815,17.154ZM27.815,16.816L27.715,16.816L27.715,17.054L27.815,17.054L27.815,17.004L27.815,16.976L27.815,16.927L27.815,16.921L27.815,16.871L27.815,16.866L27.815,16.816ZM27.83,16.594L27.715,16.594L27.715,16.716L27.815,16.716L27.815,16.694L27.83,16.694L27.83,16.594ZM28.168,16.594L27.93,16.594L27.93,16.694L28.168,16.694L28.168,16.594ZM28.505,16.594L28.268,16.594L28.268,16.694L28.505,16.694L28.505,16.594ZM28.843,16.594L28.605,16.594L28.605,16.694L28.843,16.694L28.843,16.594Z" style="fill:rgb(20,70,160);fill-rule:nonzero;"/>
        <path d="M29.13,17.846L28.943,17.846L28.943,17.946L29.03,17.946L29.03,17.981L29.13,17.981L29.13,17.846ZM29.13,18.081L29.03,18.081L29.03,18.319L29.13,18.319L29.13,18.081ZM29.13,18.419L29.03,18.419L29.03,18.567L28.991,18.567L28.963,18.567L28.914,18.567L28.909,18.567L28.859,18.567L28.854,18.567L28.804,18.567L28.804,18.667L29.041,18.667L29.041,18.657L29.13,18.657L29.13,18.419ZM28.704,18.567L28.653,18.567L28.626,18.567L28.576,18.567L28.571,18.567L28.521,18.567L28.516,18.567L28.466,18.567L28.466,18.667L28.704,18.667L28.704,18.567ZM28.366,18.567L28.316,18.567L28.289,18.567L28.238,18.567L28.234,18.567L28.184,18.567L28.179,18.567L28.129,18.567L28.129,18.667L28.366,18.667L28.366,18.567ZM27.815,18.406L27.715,18.406L27.715,18.643L27.791,18.643L27.791,18.667L28.028,18.667L28.028,18.567L27.979,18.567L27.951,18.567L27.901,18.567L27.896,18.567L27.846,18.567L27.841,18.567L27.815,18.567L27.815,18.566L27.815,18.516L27.815,18.511L27.815,18.461L27.815,18.456L27.815,18.406ZM27.815,18.068L27.715,18.068L27.715,18.306L27.815,18.306L27.815,18.256L27.815,18.228L27.815,18.179L27.815,18.174L27.815,18.123L27.815,18.118L27.815,18.068ZM27.83,17.846L27.715,17.846L27.715,17.969L27.815,17.969L27.815,17.946L27.83,17.946L27.83,17.846ZM28.168,17.846L27.93,17.846L27.93,17.946L28.168,17.946L28.168,17.846ZM28.505,17.846L28.268,17.846L28.268,17.946L28.505,17.946L28.505,17.846ZM28.843,17.846L28.605,17.846L28.605,17.946L28.843,17.946L28.843,17.846Z" style="fill:rgb(20,70,160);fill-rule:nonzero;"/>
        <rect x="27.715" y="19.102" width="1.415" height="0.821" style="fill:rgb(205,210,220);"/>
        <rect x="27.715" y="20.344" width="1.415" height="0.821" style="fill:rgb(205,210,220);"/>
        <path d="M31.248,16.594L31.061,16.594L31.061,16.694L31.148,16.694L31.148,16.729L31.248,16.729L31.248,16.594ZM31.248,16.829L31.148,16.829L31.148,17.067L31.248,17.067L31.248,16.829ZM31.248,17.167L31.148,17.167L31.148,17.315L31.109,17.315L31.081,17.315L31.032,17.315L31.026,17.315L30.977,17.315L30.972,17.315L30.921,17.315L30.921,17.415L31.159,17.415L31.159,17.404L31.248,17.404L31.248,17.167ZM30.822,17.315L30.771,17.315L30.744,17.315L30.694,17.315L30.689,17.315L30.639,17.315L30.634,17.315L30.584,17.315L30.584,17.415L30.822,17.415L30.822,17.315ZM30.484,17.315L30.434,17.315L30.407,17.315L30.356,17.315L30.352,17.315L30.302,17.315L30.296,17.315L30.247,17.315L30.247,17.415L30.484,17.415L30.484,17.315ZM29.933,17.154L29.833,17.154L29.833,17.391L29.909,17.391L29.909,17.415L30.146,17.415L30.146,17.315L30.097,17.315L30.069,17.315L30.019,17.315L30.014,17.315L29.964,17.315L29.959,17.315L29.933,17.315L29.933,17.314L29.933,17.264L29.933,17.259L29.933,17.209L29.933,17.204L29.933,17.154ZM29.933,16.816L29.833,16.816L29.833,17.054L29.933,17.054L29.933,17.004L29.933,16.976L29.933,16.927L29.933,16.921L29.933,16.871L29.933,16.866L29.933,16.816ZM29.948,16.594L29.833,16.594L29.833,16.716L29.933,16.716L29.933,16.694L29.948,16.694L29.948,16.594ZM30.286,16.594L30.048,16.594L30.048,16.694L30.286,16.694L30.286,16.594ZM30.623,16.594L30.386,16.594L30.386,16.694L30.623,16.694L30.623,16.594ZM30.96,16.594L30.723,16.594L30.723,16.694L30.96,16.694L30.96,16.594Z" style="fill:rgb(20,70,160);fill-rule:nonzero;"/>
        <rect x="29.833" y="17.847" width="1.415" height="0.821" style="fill:rgb(205,210,220);"/>
        <rect x="29.833" y="19.102" width="1.415" height="0.821" style="fill:rgb(205,210,220);"/>
        <rect x="29.833" y="20.344" width="1.415" height="0.821" style="fill:rgb(205,210,220);"/>
        <path d="M36.407,27.678L36.407,39.401" style="fill:none;fill-rule:nonzero;stroke:rgb(195,200,207);stroke-width:0.5px;"/>
        <path d="M8.081,27.678L8.081,39.401" style="fill:none;fill-rule:nonzero;stroke:rgb(195,200,207);stroke-width:0.5px;"/>
        <path d="M10.153,27.678L10.153,37.337" style="fill:none;fill-rule:nonzero;stroke:rgb(195,200,207);stroke-width:0.5px;"/>
        <path d="M35.025,27.678L35.025,37.337" style="fill:none;fill-rule:nonzero;stroke:rgb(195,200,207);stroke-width:0.5px;"/>
        <path d="M37.825,28.015L6.498,28.015C5.971,28.015 5.543,27.588 5.543,27.06C5.543,26.533 5.971,26.105 6.498,26.105L37.825,26.105C38.352,26.105 38.78,26.533 38.78,27.06C38.78,27.588 38.352,28.015 37.825,28.015" style="fill:rgb(205,210,220);fill-rule:nonzero;"/>
        <path d="M37.928,28.009C37.783,28.009 21.88,28.012 21.735,28.012C21.608,28.012 6.7,28.015 6.573,28.015C6.508,28.02 6.148,28.036 5.852,27.764C5.506,27.447 5.538,27.006 5.542,26.954C6.327,27.006 7.32,27.066 8.469,27.126C9.616,27.185 10.924,27.243 12.359,27.291C18.491,27.494 21.553,27.444 26.395,27.394C29.287,27.364 32.685,27.439 37.928,28.009" style="fill:rgb(187,193,206);fill-rule:nonzero;"/>
        <path d="M20.968,20.332C20.976,20.594 20.985,20.857 20.993,21.12C20.763,21.2 20.533,21.281 20.303,21.362C21.162,21.365 22.021,21.369 22.88,21.373C22.639,21.293 22.399,21.214 22.158,21.134C22.161,20.682 22.165,20.23 22.168,19.779C21.768,19.963 21.368,20.147 20.968,20.332" style="fill:rgb(71,78,93);fill-rule:nonzero;"/>
        <path d="M23.145,18.341C23.102,18.252 22.963,18.016 22.691,17.848C22.509,17.736 22.314,17.699 22.192,17.674C22.074,17.649 21.974,17.639 21.903,17.634C21.925,17.68 21.963,17.747 22.028,17.811C22.191,17.971 22.343,17.93 22.503,18.031C22.724,18.172 22.778,18.458 22.814,18.646C22.864,18.914 22.817,19.125 22.776,19.298C22.697,19.632 22.548,19.893 22.413,20.077C23.101,19.542 23.361,18.789 23.145,18.341" style="fill:rgb(49,57,72);fill-rule:nonzero;"/>
        <path d="M20.891,18.164C20.799,18.241 20.708,18.329 20.623,18.43C20.029,19.136 20.05,20.043 20.084,20.434C20.379,20.5 20.674,20.567 20.968,20.633L22.244,20.194C22.486,19.993 22.727,19.791 22.969,19.59C22.995,19.483 23.118,18.941 22.79,18.456C22.468,17.977 21.824,17.727 21.306,17.903C21.109,17.97 20.972,18.084 20.891,18.164" style="fill:rgb(71,78,93);fill-rule:nonzero;"/>
        <path d="M22.357,19.197C22.369,19.183 22.395,19.157 22.43,19.156C22.5,19.153 22.545,19.246 22.556,19.269C22.586,19.329 22.584,19.388 22.58,19.423C22.579,19.416 22.574,19.276 22.465,19.218C22.423,19.197 22.381,19.196 22.357,19.197" style="fill:rgb(83,93,107);fill-rule:nonzero;"/>
        <path d="M22.566,17.805C22.838,17.915 22.96,18.015 23.022,18.073C23.256,18.29 23.347,18.549 23.372,18.645C23.497,19.125 23.095,19.814 22.317,20.206L22.143,20.18C22.176,20.032 22.21,19.884 22.244,19.736C22.286,19.73 22.37,19.711 22.445,19.646C22.521,19.581 22.613,19.45 22.573,19.319C22.553,19.249 22.499,19.153 22.43,19.156C22.365,19.159 22.295,19.251 22.289,19.388C22.254,19.382 22.219,19.377 22.184,19.371C22.177,19.202 22.17,19.033 22.162,18.864C21.738,18.631 21.315,18.398 20.891,18.165C21.09,17.975 21.288,17.786 21.487,17.597C21.983,17.603 22.348,17.717 22.566,17.805" style="fill:rgb(1,22,39);fill-rule:nonzero;"/>
        <path d="M23.371,18.644C23.346,18.549 23.255,18.29 23.021,18.072C22.864,17.927 22.681,17.853 22.565,17.805C22.454,17.758 22.358,17.728 22.289,17.71C22.302,17.759 22.326,17.833 22.378,17.908C22.507,18.096 22.663,18.085 22.801,18.216C22.991,18.396 22.988,18.687 22.987,18.879C22.984,19.151 22.897,19.349 22.824,19.511C22.682,19.824 22.484,20.051 22.316,20.206C23.094,19.813 23.496,19.125 23.371,18.644" style="fill:rgb(49,57,72);fill-rule:nonzero;"/>
        <path d="M25.567,23.237C27.01,24.209 28.53,25.361 28.316,25.834C28.265,25.946 28.133,25.987 27.949,26.043C27.416,26.206 26.908,26.042 25.796,25.531C25.384,25.342 24.873,25.097 24.29,24.795C24.715,24.276 25.141,23.756 25.567,23.237" style="fill:rgb(71,78,93);fill-rule:nonzero;"/>
        <path d="M26.249,26.188C25.592,26.105 24.934,26.023 24.277,25.941C24.06,26.12 23.908,26.136 23.809,26.118C23.684,26.095 23.549,26.048 23.393,26.047C23.286,26.047 23.198,26.087 23.144,26.119C23.14,26.089 23.138,26.04 23.163,25.993C23.254,25.823 23.592,25.898 23.632,25.774C23.651,25.717 23.595,25.649 23.546,25.591C23.48,25.512 23.405,25.476 23.305,25.429C23.165,25.364 23.023,25.329 23.022,25.329C22.956,25.312 22.922,25.299 22.855,25.275C22.798,25.254 22.762,25.238 22.734,25.202C22.713,25.173 22.705,25.144 22.701,25.124C22.769,25.147 22.826,25.16 22.868,25.167C22.976,25.186 23.064,25.185 23.148,25.183C23.198,25.181 23.238,25.179 23.266,25.177C23.389,25.225 23.996,25.476 24.119,25.524C24.324,25.53 24.643,25.533 25.031,25.509C26.777,25.403 27.786,24.887 28.144,25.328C28.231,25.437 28.299,25.595 28.26,25.733C28.106,26.276 26.446,26.198 26.249,26.188" style="fill:rgb(71,78,93);fill-rule:nonzero;"/>
        <path d="M27.514,39.571L27.514,40.112C27.375,40.121 27.237,40.13 27.099,40.139C27.099,39.979 27.099,39.818 27.1,39.657C27.238,39.629 27.376,39.6 27.514,39.571" style="fill:rgb(71,78,93);fill-rule:nonzero;"/>
        <path d="M27.768,39.93C28.08,40.097 28.422,40.167 28.602,40.199C29.064,40.283 29.476,40.217 29.639,40.469C29.667,40.512 29.681,40.555 29.687,40.579L27.099,40.579L27.099,39.93C27.229,40.058 27.295,40.1 27.411,40.039C27.436,40.027 27.479,39.997 27.515,39.936C27.599,39.933 27.684,39.931 27.768,39.93" style="fill:rgb(10,53,129);fill-rule:nonzero;"/>
        <path d="M23.015,29.891C24.811,28.969 26.465,28.662 27.02,29.301C27.297,29.62 27.338,30.273 27.42,31.581C27.459,32.209 27.451,32.67 27.452,32.682C27.5,33.638 27.568,35.549 27.657,39.703L26.938,39.703C26.736,37.328 26.571,34.906 26.447,32.441C26.421,31.926 26.397,31.412 26.375,30.9C26.018,31.259 25.394,31.797 24.477,32.198C24.262,32.292 23.392,32.657 22.182,32.709C22.182,32.709 20.515,32.782 19.322,32.091C19.217,32.03 19.01,31.907 18.841,31.663C18.808,31.617 18.679,31.423 18.627,31.156C18.515,30.578 18.851,30.103 18.921,30.009C20.286,29.97 21.65,29.931 23.015,29.891" style="fill:rgb(49,57,72);fill-rule:nonzero;"/>
        <path d="M19.136,39.671L19.136,40.117C19.275,40.125 19.413,40.132 19.552,40.14C19.551,40.007 19.551,39.875 19.55,39.742C19.412,39.719 19.274,39.695 19.136,39.671" style="fill:rgb(71,78,93);fill-rule:nonzero;"/>
        <path d="M18.883,39.93C18.571,40.097 18.229,40.167 18.049,40.199C17.587,40.283 17.175,40.217 17.012,40.469C16.984,40.512 16.97,40.555 16.964,40.579L19.552,40.579L19.552,39.93C19.422,40.058 19.356,40.1 19.24,40.039C19.215,40.027 19.172,39.997 19.136,39.936C19.052,39.933 18.967,39.931 18.883,39.93" style="fill:rgb(10,53,129);fill-rule:nonzero;"/>
        <path d="M18.975,39.758L19.679,39.758C19.576,37.213 19.473,34.668 19.37,32.123C19.64,32.258 20.037,32.43 20.541,32.546C21.253,32.711 21.769,32.83 22.163,32.54C22.56,32.247 22.682,31.648 22.576,31.2C22.408,30.491 21.615,29.945 20.636,29.973C20.064,29.985 19.493,29.997 18.921,30.009C18.732,30.281 18.492,30.714 18.442,31.271C18.41,31.635 18.477,31.91 18.487,31.99C18.655,33.33 18.844,35.612 18.975,39.758" style="fill:rgb(1,22,39);fill-rule:nonzero;"/>
        <path d="M17.255,24.404C17.057,24.685 16.209,25.885 16.111,25.966C16.087,25.985 16.063,25.986 16.063,25.986C15.997,25.989 15.941,25.894 15.91,25.832C15.563,25.052 15.216,24.271 14.869,23.49C15.086,23.312 15.131,23.166 15.132,23.065C15.133,22.937 15.113,22.797 15.143,22.643C15.163,22.538 15.219,22.46 15.26,22.412C15.232,22.403 15.184,22.391 15.133,22.407C14.949,22.464 14.958,22.81 14.829,22.826C14.769,22.833 14.713,22.765 14.665,22.706C14.6,22.626 14.579,22.546 14.553,22.439C14.515,22.289 14.508,22.142 14.508,22.142C14.505,22.073 14.499,22.038 14.488,21.968C14.478,21.907 14.469,21.869 14.439,21.835C14.415,21.808 14.387,21.795 14.368,21.787C14.379,21.858 14.38,21.917 14.379,21.959C14.377,22.069 14.359,22.155 14.34,22.237C14.33,22.285 14.32,22.325 14.313,22.352C14.336,22.481 14.466,23.126 14.49,23.256C14.569,23.715 14.846,25.299 15.145,26.569C15.214,26.866 15.348,27.404 15.676,27.479C15.805,27.508 15.928,27.458 16.007,27.413C16.871,26.911 17.735,26.408 18.599,25.905C18.151,25.405 17.703,24.904 17.255,24.404" style="fill:rgb(71,78,93);fill-rule:nonzero;"/>
        <path d="M17.255,24.404C17.057,24.685 16.209,25.885 16.111,25.966C16.087,25.985 16.063,25.986 16.063,25.986C15.997,25.989 15.941,25.894 15.91,25.832C15.563,25.052 15.216,24.271 14.869,23.49C15.086,23.312 15.131,23.166 15.132,23.065C15.133,22.937 15.113,22.797 15.143,22.643C15.163,22.538 15.219,22.46 15.26,22.412C15.232,22.403 15.184,22.391 15.133,22.407C14.949,22.464 14.958,22.81 14.829,22.825C14.769,22.833 14.713,22.765 14.665,22.706C14.6,22.626 14.579,22.546 14.553,22.439C14.515,22.289 14.508,22.142 14.508,22.142C14.506,22.116 14.505,22.095 14.503,22.075C14.497,22.013 14.487,21.968 14.487,21.968C14.493,21.966 14.993,26.069 15.938,26.168C16.204,26.196 16.622,25.918 17.255,24.404" style="fill:rgb(83,93,107);fill-rule:nonzero;"/>
        <path d="M18.921,30.009C18.967,28.611 19.014,27.213 19.061,25.815C19.054,25.769 19.039,25.742 19.017,25.733C18.954,25.707 18.83,25.827 18.644,26.094C18.154,25.542 17.664,24.989 17.174,24.436C17.433,23.917 17.903,23.142 18.713,22.419C19.29,21.903 19.862,21.572 20.303,21.362C20.525,21.363 21.323,21.367 21.526,21.368C21.702,21.369 21.943,21.37 22.104,21.37C22.433,21.372 22.702,21.372 22.879,21.373C23.233,21.523 23.622,21.713 24.027,21.954C24.708,22.358 25.25,22.796 25.666,23.186C25.209,23.787 24.752,24.388 24.295,24.989C24.234,24.909 24.1,24.743 24.036,24.772C23.999,24.789 23.999,24.864 24.008,25.117C24.015,25.282 24.022,25.424 24.027,25.532C24.03,25.59 24.068,26.408 24.07,26.467C24.072,26.494 24.089,26.87 24.089,26.882C24.107,27.247 24.123,28.058 24.129,29.86L18.921,30.009Z" style="fill:white;fill-rule:nonzero;"/>
        <path d="M21.206,29.961C21.071,29.244 20.901,28.634 20.667,27.091C20.393,25.276 20.258,24.352 20.387,23.487C20.533,22.518 20.849,21.791 20.868,21.364C20.68,21.363 20.492,21.362 20.303,21.362C20.142,21.436 19.972,21.521 19.798,21.62C19.798,21.62 19.523,21.775 19.264,21.959C18.997,22.148 18.143,22.998 17.225,24.345C17.221,24.365 17.217,24.386 17.213,24.407C17.209,24.431 17.206,24.453 17.204,24.469C17.684,25.011 18.164,25.553 18.644,26.094C18.83,25.827 18.955,25.707 19.018,25.733C19.039,25.742 19.054,25.769 19.061,25.815C19.015,27.212 18.968,28.611 18.921,30.009C19.683,29.993 20.444,29.977 21.206,29.961" style="fill:rgb(245,248,251);fill-rule:nonzero;"/>
        <path d="M17.559,23.768L25.224,23.768L25.666,23.186C25.544,23.074 25.393,22.953 25.25,22.833L18.29,22.833C17.995,23.153 17.749,23.471 17.559,23.768" style="fill:rgb(10,53,129);fill-rule:nonzero;"/>
        <path d="M18.936,29.58C18.931,29.723 18.926,29.866 18.922,30.009C20.691,29.972 22.46,29.935 24.229,29.898C24.225,29.792 24.22,29.686 24.215,29.58L18.936,29.58Z" style="fill:rgb(10,53,129);fill-rule:nonzero;"/>
        <path d="M24.705,22.419C24.553,22.31 24.411,22.2 24.24,22.092C23.752,21.784 23.288,21.55 22.88,21.373C22.021,21.37 21.162,21.366 20.303,21.362C19.979,21.51 19.625,21.703 19.264,21.96C19.058,22.105 18.887,22.263 18.713,22.419L24.705,22.419Z" style="fill:rgb(10,53,129);fill-rule:nonzero;"/>
        <path d="M24.009,25.118C24.005,25.029 24.001,24.939 23.997,24.849C24.004,24.798 24.021,24.779 24.036,24.773C24.109,24.742 24.252,24.931 24.296,24.99C24.5,24.721 24.704,24.452 24.909,24.183L17.314,24.183C17.268,24.267 17.212,24.361 17.175,24.436C17.376,24.664 17.577,24.891 17.779,25.118L24.009,25.118Z" style="fill:rgb(10,53,129);fill-rule:nonzero;"/>
        <path d="M19.025,26.882C19.015,27.194 19.004,27.505 18.994,27.817L24.132,27.817C24.118,27.505 24.104,27.194 24.089,26.882L19.025,26.882Z" style="fill:rgb(10,53,129);fill-rule:nonzero;"/>
        <path d="M18.146,25.532C18.312,25.719 18.479,25.907 18.645,26.094C18.83,25.827 18.955,25.707 19.018,25.733C19.04,25.742 19.054,25.769 19.061,25.815C19.054,26.032 19.046,26.249 19.04,26.467L24.071,26.467C24.057,26.155 24.042,25.844 24.028,25.532L18.146,25.532Z" style="fill:rgb(10,53,129);fill-rule:nonzero;"/>
        <path d="M24.195,29.165C24.18,28.853 24.166,28.542 24.152,28.23L18.98,28.23C18.97,28.542 18.959,28.853 18.949,29.165L24.195,29.165Z" style="fill:rgb(10,53,129);fill-rule:nonzero;"/>
        <path d="M20.356,23.768L25.224,23.768L25.667,23.186C25.544,23.074 25.394,22.953 25.25,22.833L20.516,22.833C20.468,23.038 20.422,23.255 20.387,23.488C20.374,23.58 20.364,23.674 20.356,23.768" style="fill:rgb(20,70,160);fill-rule:nonzero;"/>
        <path d="M18.29,22.833L18.289,22.834L18.29,22.833Z" style="fill:rgb(20,70,160);fill-rule:nonzero;"/>
        <path d="M18.936,29.58C18.931,29.723 18.926,29.866 18.922,30.009C18.926,29.866 18.931,29.723 18.936,29.58" style="fill:rgb(20,70,160);fill-rule:nonzero;"/>
        <path d="M18.921,30.009C20.69,29.972 22.459,29.935 24.229,29.899C24.224,29.792 24.219,29.686 24.214,29.58L21.129,29.58C21.156,29.707 21.181,29.833 21.206,29.961C20.444,29.977 19.682,29.993 18.921,30.009" style="fill:rgb(20,70,160);fill-rule:nonzero;"/>
        <path d="M24.24,22.092C23.752,21.784 23.289,21.55 22.88,21.373C22.021,21.37 21.162,21.366 20.303,21.363C20.492,21.363 20.68,21.364 20.868,21.365C20.857,21.613 20.744,21.976 20.623,22.419L24.705,22.419C24.553,22.31 24.411,22.2 24.24,22.092" style="fill:rgb(20,70,160);fill-rule:nonzero;"/>
        <path d="M17.225,24.345C17.208,24.375 17.188,24.409 17.175,24.436C17.376,24.663 17.577,24.89 17.779,25.117C17.587,24.901 17.396,24.685 17.204,24.47C17.21,24.428 17.217,24.387 17.225,24.345" style="fill:rgb(20,70,160);fill-rule:nonzero;"/>
        <path d="M17.314,24.183C17.285,24.236 17.255,24.29 17.225,24.344C17.25,24.295 17.288,24.235 17.316,24.183L17.314,24.183Z" style="fill:rgb(20,70,160);fill-rule:nonzero;"/>
        <path d="M24.009,25.118C24.005,25.029 24.001,24.939 23.997,24.849C24.004,24.798 24.021,24.779 24.036,24.773C24.109,24.742 24.252,24.931 24.296,24.99C24.5,24.721 24.704,24.452 24.909,24.183L20.339,24.183C20.338,24.462 20.359,24.77 20.396,25.118L24.009,25.118Z" style="fill:rgb(20,70,160);fill-rule:nonzero;"/>
        <path d="M20.785,27.816L24.133,27.816C24.119,27.504 24.105,27.193 24.09,26.881L20.637,26.881C20.647,26.953 20.657,27.017 20.668,27.091C20.709,27.363 20.747,27.597 20.785,27.816" style="fill:rgb(20,70,160);fill-rule:nonzero;"/>
        <path d="M19.04,26.467C19.047,26.25 19.054,26.032 19.061,25.815C19.054,26.032 19.047,26.25 19.04,26.467" style="fill:rgb(20,70,160);fill-rule:nonzero;"/>
        <path d="M24.071,26.467C24.057,26.155 24.043,25.844 24.028,25.532L20.444,25.532C20.48,25.815 20.522,26.12 20.574,26.467L24.071,26.467Z" style="fill:rgb(20,70,160);fill-rule:nonzero;"/>
        <path d="M24.195,29.165C24.18,28.853 24.166,28.542 24.152,28.23L20.857,28.23C20.924,28.599 20.986,28.901 21.042,29.165L24.195,29.165Z" style="fill:rgb(20,70,160);fill-rule:nonzero;"/>
        <path d="M18.981,28.231C18.971,28.543 18.96,28.854 18.95,29.166C18.96,28.854 18.971,28.543 18.981,28.231" style="fill:rgb(20,70,160);fill-rule:nonzero;"/>
        <path d="M18.936,29.58L21.13,29.58C21.102,29.447 21.073,29.311 21.042,29.165L18.95,29.165C18.945,29.303 18.94,29.442 18.936,29.58" style="fill:rgb(224,228,232);fill-rule:nonzero;"/>
        <path d="M18.981,28.231L20.858,28.231C20.835,28.103 20.81,27.964 20.785,27.816L18.995,27.816C19.005,27.505 19.016,27.193 19.026,26.882L20.637,26.882C20.615,26.741 20.594,26.597 20.574,26.467L19.04,26.467C19.02,27.055 19.001,27.643 18.981,28.231" style="fill:rgb(224,228,232);fill-rule:nonzero;"/>
        <path d="M18.645,26.095C18.479,25.908 18.312,25.72 18.146,25.533L20.444,25.533C20.425,25.387 20.41,25.249 20.396,25.118L17.779,25.118C18.067,25.444 18.356,25.769 18.645,26.095" style="fill:rgb(224,228,232);fill-rule:nonzero;"/>
        <path d="M20.623,22.419L18.713,22.419C18.887,22.263 19.058,22.105 19.264,21.96C18.875,22.234 18.566,22.533 18.29,22.834L20.516,22.834C20.551,22.684 20.587,22.552 20.623,22.419" style="fill:rgb(224,228,232);fill-rule:nonzero;"/>
        <path d="M20.356,23.768L17.559,23.768C17.749,23.471 17.994,23.154 18.289,22.835C17.849,23.313 17.533,23.785 17.316,24.183L20.338,24.183C20.338,24.039 20.345,23.902 20.356,23.768" style="fill:rgb(224,228,232);fill-rule:nonzero;"/>
        <rect x="1.395" y="40.579" width="41.195" height="0.212" style="fill:rgb(204,212,220);"/>
        <path d="M22.109,39.79L21.943,39.93L21.83,32.483L22.227,32.483" style="fill:rgb(205,210,220);fill-rule:nonzero;"/>
        <path d="M26.375,30.9C26.046,31.266 24.379,33.047 21.838,33.034C21.794,33.034 21.745,33.034 21.675,33.032C20.313,32.978 18.418,32.117 17.957,30.35C17.479,28.519 18.883,27.027 19.025,26.881C19.259,26.641 20.117,25.759 21.392,25.753C22.523,25.746 23.338,26.432 23.597,26.649C24.401,27.326 24.208,27.744 25.206,28.567C25.648,28.932 25.942,29.049 26.165,29.476C26.481,30.08 26.415,30.667 26.375,30.9" style="fill:rgb(205,210,220);fill-rule:nonzero;"/>
        <path d="M21.767,30.965C22.933,30.668 23.629,29.786 24.089,30.077C24.43,30.292 24.464,31.039 24.199,31.544C23.586,32.71 21.115,33.083 19.605,32.007C18.837,31.46 18.508,30.678 18.371,30.265C19.908,31.141 21.009,31.158 21.767,30.965" style="fill:rgb(187,193,206);fill-rule:nonzero;"/>
        <g opacity="0.6">
            <path d="M34.809,39.574C35.462,39.584 36.47,39.624 36.47,39.657C36.469,39.726 31.909,39.773 31.908,39.699C31.907,39.657 33.341,39.552 34.809,39.574" style="fill:rgb(187,193,206);fill-rule:nonzero;"/>
        </g>
        <g opacity="0.6">
            <path d="M33.393,37.508C34.046,37.518 35.054,37.558 35.054,37.591C35.053,37.66 30.493,37.706 30.492,37.633C30.491,37.591 31.925,37.486 33.393,37.508" style="fill:rgb(187,193,206);fill-rule:nonzero;"/>
        </g>
        <g opacity="0.6">
            <path d="M6.57,39.571C7.208,39.581 8.191,39.621 8.191,39.654C8.19,39.723 3.739,39.769 3.738,39.696C3.738,39.654 5.137,39.549 6.57,39.571" style="fill:rgb(187,193,206);fill-rule:nonzero;"/>
        </g>
        <path d="M35.345,12.134L30.893,12.134C30.838,12.134 30.793,12.089 30.793,12.033L30.793,9.265C30.793,9.209 30.838,9.164 30.893,9.164L35.345,9.164C35.4,9.164 35.445,9.209 35.445,9.265L35.445,12.033C35.445,12.089 35.4,12.134 35.345,12.134Z" style="fill:white;fill-rule:nonzero;stroke:rgb(205,210,220);stroke-width:0.1px;stroke-linecap:butt;"/>
        <path d="M31.675,10.661L31.417,10.661C31.384,10.661 31.357,10.634 31.357,10.6L31.357,10.422C31.357,10.389 31.384,10.362 31.417,10.362L31.675,10.362C31.708,10.362 31.735,10.389 31.735,10.422L31.735,10.6C31.735,10.634 31.708,10.661 31.675,10.661Z" style="fill:none;fill-rule:nonzero;stroke:rgb(24,128,56);stroke-width:0.03px;"/>
        <path d="M34.868,11.338L31.407,11.338C31.356,11.338 31.316,11.297 31.316,11.248C31.316,11.197 31.356,11.157 31.407,11.157L34.868,11.157C34.918,11.157 34.959,11.197 34.959,11.248C34.959,11.297 34.918,11.338 34.868,11.338" style="fill:rgb(205,210,220);fill-rule:nonzero;"/>
        <path d="M32.808,11.753L31.407,11.753C31.356,11.753 31.316,11.712 31.316,11.662C31.316,11.612 31.356,11.572 31.407,11.572L32.808,11.572C32.858,11.572 32.899,11.612 32.899,11.662C32.899,11.712 32.858,11.753 32.808,11.753" style="fill:rgb(205,210,220);fill-rule:nonzero;"/>
        <path d="M33.6,10.602L32.198,10.602C32.148,10.602 32.108,10.561 32.108,10.512C32.108,10.461 32.148,10.421 32.198,10.421L33.6,10.421C33.65,10.421 33.691,10.461 33.691,10.512C33.691,10.561 33.65,10.602 33.6,10.602" style="fill:rgb(24,128,56);fill-rule:nonzero;"/>
        <path d="M34.868,9.873L31.407,9.873C31.356,9.873 31.316,9.832 31.316,9.783C31.316,9.732 31.356,9.692 31.407,9.692L34.868,9.692C34.918,9.692 34.959,9.732 34.959,9.783C34.959,9.832 34.918,9.873 34.868,9.873" style="fill:rgb(25,103,210);fill-rule:nonzero;"/>
        <g opacity="0.2">
            <path d="M35.345,12.134L30.893,12.134C30.838,12.134 30.793,12.089 30.793,12.033L30.793,9.265C30.793,9.209 30.838,9.164 30.893,9.164C31.016,9.571 31.325,10.384 32.094,11.077C33.407,12.258 35.028,12.159 35.345,12.134" style="fill:rgb(205,210,220);fill-rule:nonzero;"/>
        </g>
        <path d="M31.675,10.661L31.417,10.661C31.384,10.661 31.357,10.634 31.357,10.6L31.357,10.422C31.357,10.389 31.384,10.362 31.417,10.362L31.675,10.362C31.708,10.362 31.735,10.389 31.735,10.422L31.735,10.6C31.735,10.634 31.708,10.661 31.675,10.661Z" style="fill:none;fill-rule:nonzero;stroke:rgb(24,128,56);stroke-width:0.1px;"/>
        <path d="M34.868,11.338L31.407,11.338C31.356,11.338 31.316,11.297 31.316,11.248C31.316,11.197 31.356,11.157 31.407,11.157L34.868,11.157C34.918,11.157 34.959,11.197 34.959,11.248C34.959,11.297 34.918,11.338 34.868,11.338" style="fill:rgb(205,210,220);fill-rule:nonzero;"/>
        <path d="M32.808,11.753L31.407,11.753C31.356,11.753 31.316,11.712 31.316,11.662C31.316,11.612 31.356,11.572 31.407,11.572L32.808,11.572C32.858,11.572 32.899,11.612 32.899,11.662C32.899,11.712 32.858,11.753 32.808,11.753" style="fill:rgb(205,210,220);fill-rule:nonzero;"/>
        <path d="M33.6,10.602L32.198,10.602C32.148,10.602 32.108,10.561 32.108,10.512C32.108,10.461 32.148,10.421 32.198,10.421L33.6,10.421C33.65,10.421 33.691,10.461 33.691,10.512C33.691,10.561 33.65,10.602 33.6,10.602" style="fill:rgb(24,128,56);fill-rule:nonzero;"/>
        <path d="M34.868,9.873L31.407,9.873C31.356,9.873 31.316,9.832 31.316,9.783C31.316,9.732 31.356,9.692 31.407,9.692L34.868,9.692C34.918,9.692 34.959,9.732 34.959,9.783C34.959,9.832 34.918,9.873 34.868,9.873" style="fill:rgb(25,103,210);fill-rule:nonzero;"/>
        <path d="M35.295,7.929L30.843,7.929C30.788,7.929 30.743,7.884 30.743,7.828L30.743,5.06C30.743,5.005 30.788,4.959 30.843,4.959L35.295,4.959C35.35,4.959 35.396,5.005 35.396,5.06L35.396,7.828C35.396,7.884 35.35,7.929 35.295,7.929Z" style="fill:white;fill-rule:nonzero;stroke:rgb(205,210,220);stroke-width:0.1px;stroke-linecap:butt;"/>
        <path d="M31.625,6.456L31.367,6.456C31.334,6.456 31.307,6.429 31.307,6.395L31.307,6.218C31.307,6.184 31.334,6.157 31.367,6.157L31.625,6.157C31.658,6.157 31.685,6.184 31.685,6.218L31.685,6.395C31.685,6.429 31.658,6.456 31.625,6.456Z" style="fill:none;fill-rule:nonzero;stroke:rgb(24,128,56);stroke-width:0.03px;"/>
        <path d="M34.818,7.133L31.357,7.133C31.306,7.133 31.266,7.092 31.266,7.043C31.266,6.992 31.306,6.952 31.357,6.952L34.818,6.952C34.868,6.952 34.909,6.992 34.909,7.043C34.909,7.092 34.868,7.133 34.818,7.133" style="fill:rgb(205,210,220);fill-rule:nonzero;"/>
        <path d="M32.758,7.548L31.357,7.548C31.306,7.548 31.266,7.507 31.266,7.458C31.266,7.407 31.306,7.367 31.357,7.367L32.758,7.367C32.808,7.367 32.849,7.407 32.849,7.458C32.849,7.507 32.808,7.548 32.758,7.548" style="fill:rgb(205,210,220);fill-rule:nonzero;"/>
        <path d="M33.549,6.397L32.148,6.397C32.097,6.397 32.057,6.356 32.057,6.307C32.057,6.257 32.097,6.216 32.148,6.216L33.549,6.216C33.599,6.216 33.64,6.257 33.64,6.307C33.64,6.356 33.599,6.397 33.549,6.397" style="fill:rgb(24,128,56);fill-rule:nonzero;"/>
        <path d="M34.818,5.668L31.357,5.668C31.306,5.668 31.266,5.627 31.266,5.578C31.266,5.527 31.306,5.487 31.357,5.487L34.818,5.487C34.868,5.487 34.909,5.527 34.909,5.578C34.909,5.627 34.868,5.668 34.818,5.668" style="fill:rgb(25,103,210);fill-rule:nonzero;"/>
        <g opacity="0.2">
            <path d="M35.295,7.929L30.843,7.929C30.788,7.929 30.743,7.884 30.743,7.828L30.743,5.06C30.743,5.005 30.788,4.959 30.843,4.959C30.966,5.366 31.275,6.179 32.044,6.872C33.357,8.053 34.978,7.954 35.295,7.929" style="fill:rgb(205,210,220);fill-rule:nonzero;"/>
        </g>
        <path d="M31.625,6.456L31.367,6.456C31.334,6.456 31.307,6.429 31.307,6.395L31.307,6.218C31.307,6.184 31.334,6.157 31.367,6.157L31.625,6.157C31.658,6.157 31.685,6.184 31.685,6.218L31.685,6.395C31.685,6.429 31.658,6.456 31.625,6.456Z" style="fill:none;fill-rule:nonzero;stroke:rgb(24,128,56);stroke-width:0.1px;"/>
        <path d="M34.818,7.133L31.357,7.133C31.306,7.133 31.266,7.092 31.266,7.043C31.266,6.992 31.306,6.952 31.357,6.952L34.818,6.952C34.868,6.952 34.909,6.992 34.909,7.043C34.909,7.092 34.868,7.133 34.818,7.133" style="fill:rgb(205,210,220);fill-rule:nonzero;"/>
        <path d="M32.758,7.548L31.357,7.548C31.306,7.548 31.266,7.507 31.266,7.458C31.266,7.407 31.306,7.367 31.357,7.367L32.758,7.367C32.808,7.367 32.849,7.407 32.849,7.458C32.849,7.507 32.808,7.548 32.758,7.548" style="fill:rgb(205,210,220);fill-rule:nonzero;"/>
        <path d="M33.549,6.397L32.148,6.397C32.097,6.397 32.057,6.356 32.057,6.307C32.057,6.257 32.097,6.216 32.148,6.216L33.549,6.216C33.599,6.216 33.64,6.257 33.64,6.307C33.64,6.356 33.599,6.397 33.549,6.397" style="fill:rgb(24,128,56);fill-rule:nonzero;"/>
        <path d="M34.818,5.668L31.357,5.668C31.306,5.668 31.266,5.627 31.266,5.578C31.266,5.527 31.306,5.487 31.357,5.487L34.818,5.487C34.868,5.487 34.909,5.527 34.909,5.578C34.909,5.627 34.868,5.668 34.818,5.668" style="fill:rgb(25,103,210);fill-rule:nonzero;"/>
        <path d="M29.072,7.934L24.62,7.934C24.565,7.934 24.52,7.889 24.52,7.833L24.52,5.065C24.52,5.01 24.565,4.965 24.62,4.965L29.072,4.965C29.127,4.965 29.172,5.01 29.172,5.065L29.172,7.833C29.172,7.889 29.127,7.934 29.072,7.934Z" style="fill:white;fill-rule:nonzero;stroke:rgb(205,210,220);stroke-width:0.1px;stroke-linecap:butt;"/>
        <path d="M25.402,6.462L25.144,6.462C25.111,6.462 25.084,6.435 25.084,6.402L25.084,6.224C25.084,6.191 25.111,6.163 25.144,6.163L25.402,6.163C25.435,6.163 25.462,6.191 25.462,6.224L25.462,6.402C25.462,6.435 25.435,6.462 25.402,6.462Z" style="fill:none;fill-rule:nonzero;stroke:rgb(24,128,56);stroke-width:0.03px;"/>
        <path d="M28.595,7.139L25.134,7.139C25.083,7.139 25.043,7.098 25.043,7.049C25.043,6.998 25.083,6.958 25.134,6.958L28.595,6.958C28.645,6.958 28.686,6.998 28.686,7.049C28.686,7.098 28.645,7.139 28.595,7.139" style="fill:rgb(205,210,220);fill-rule:nonzero;"/>
        <path d="M26.535,7.554L25.134,7.554C25.083,7.554 25.043,7.513 25.043,7.464C25.043,7.413 25.083,7.373 25.134,7.373L26.535,7.373C26.585,7.373 26.626,7.413 26.626,7.464C26.626,7.513 26.585,7.554 26.535,7.554" style="fill:rgb(205,210,220);fill-rule:nonzero;"/>
        <path d="M27.327,6.404L25.925,6.404C25.875,6.404 25.835,6.363 25.835,6.313C25.835,6.263 25.875,6.223 25.925,6.223L27.327,6.223C27.377,6.223 27.418,6.263 27.418,6.313C27.418,6.363 27.377,6.404 27.327,6.404" style="fill:rgb(24,128,56);fill-rule:nonzero;"/>
        <path d="M28.595,5.674L25.134,5.674C25.083,5.674 25.043,5.633 25.043,5.583C25.043,5.533 25.083,5.493 25.134,5.493L28.595,5.493C28.645,5.493 28.686,5.533 28.686,5.583C28.686,5.633 28.645,5.674 28.595,5.674" style="fill:rgb(25,103,210);fill-rule:nonzero;"/>
        <g opacity="0.2">
            <path d="M29.072,7.934L24.62,7.934C24.565,7.934 24.52,7.889 24.52,7.833L24.52,5.065C24.52,5.01 24.565,4.965 24.62,4.965C24.743,5.371 25.052,6.185 25.821,6.877C27.134,8.058 28.755,7.96 29.072,7.934" style="fill:rgb(205,210,220);fill-rule:nonzero;"/>
        </g>
        <path d="M25.402,6.462L25.144,6.462C25.111,6.462 25.084,6.435 25.084,6.402L25.084,6.224C25.084,6.191 25.111,6.163 25.144,6.163L25.402,6.163C25.435,6.163 25.462,6.191 25.462,6.224L25.462,6.402C25.462,6.435 25.435,6.462 25.402,6.462Z" style="fill:none;fill-rule:nonzero;stroke:rgb(24,128,56);stroke-width:0.1px;"/>
        <path d="M28.595,7.139L25.134,7.139C25.083,7.139 25.043,7.098 25.043,7.049C25.043,6.998 25.083,6.958 25.134,6.958L28.595,6.958C28.645,6.958 28.686,6.998 28.686,7.049C28.686,7.098 28.645,7.139 28.595,7.139" style="fill:rgb(205,210,220);fill-rule:nonzero;"/>
        <path d="M26.535,7.554L25.134,7.554C25.083,7.554 25.043,7.513 25.043,7.464C25.043,7.413 25.083,7.373 25.134,7.373L26.535,7.373C26.585,7.373 26.626,7.413 26.626,7.464C26.626,7.513 26.585,7.554 26.535,7.554" style="fill:rgb(205,210,220);fill-rule:nonzero;"/>
        <path d="M27.327,6.404L25.925,6.404C25.875,6.404 25.835,6.363 25.835,6.313C25.835,6.263 25.875,6.223 25.925,6.223L27.327,6.223C27.377,6.223 27.418,6.263 27.418,6.313C27.418,6.363 27.377,6.404 27.327,6.404" style="fill:rgb(24,128,56);fill-rule:nonzero;"/>
        <path d="M28.595,5.674L25.134,5.674C25.083,5.674 25.043,5.633 25.043,5.583C25.043,5.533 25.083,5.493 25.134,5.493L28.595,5.493C28.645,5.493 28.686,5.533 28.686,5.583C28.686,5.633 28.645,5.674 28.595,5.674" style="fill:rgb(25,103,210);fill-rule:nonzero;"/>
        <path d="M29.053,12.16L24.601,12.16C24.546,12.16 24.501,12.115 24.501,12.059L24.501,9.291C24.501,9.236 24.546,9.191 24.601,9.191L29.053,9.191C29.108,9.191 29.153,9.236 29.153,9.291L29.153,12.059C29.153,12.115 29.108,12.16 29.053,12.16Z" style="fill:white;fill-rule:nonzero;stroke:rgb(205,210,220);stroke-width:0.1px;stroke-linecap:butt;"/>
        <path d="M25.384,10.688L25.126,10.688C25.093,10.688 25.066,10.661 25.066,10.628L25.066,10.45C25.066,10.417 25.093,10.389 25.126,10.389L25.384,10.389C25.417,10.389 25.444,10.417 25.444,10.45L25.444,10.628C25.444,10.661 25.417,10.688 25.384,10.688Z" style="fill:none;fill-rule:nonzero;stroke:rgb(24,128,56);stroke-width:0.03px;"/>
        <path d="M28.577,11.365L25.116,11.365C25.065,11.365 25.025,11.325 25.025,11.275C25.025,11.224 25.065,11.185 25.116,11.185L28.577,11.185C28.627,11.185 28.668,11.224 28.668,11.275C28.668,11.325 28.627,11.365 28.577,11.365" style="fill:rgb(205,210,220);fill-rule:nonzero;"/>
        <path d="M26.517,11.78L25.116,11.78C25.065,11.78 25.025,11.739 25.025,11.69C25.025,11.64 25.065,11.599 25.116,11.599L26.517,11.599C26.567,11.599 26.608,11.64 26.608,11.69C26.608,11.739 26.567,11.78 26.517,11.78" style="fill:rgb(205,210,220);fill-rule:nonzero;"/>
        <path d="M27.308,10.63L25.906,10.63C25.856,10.63 25.816,10.589 25.816,10.539C25.816,10.489 25.856,10.449 25.906,10.449L27.308,10.449C27.358,10.449 27.399,10.489 27.399,10.539C27.399,10.589 27.358,10.63 27.308,10.63" style="fill:rgb(24,128,56);fill-rule:nonzero;"/>
        <path d="M28.577,9.9L25.116,9.9C25.065,9.9 25.025,9.859 25.025,9.809C25.025,9.759 25.065,9.719 25.116,9.719L28.577,9.719C28.627,9.719 28.668,9.759 28.668,9.809C28.668,9.859 28.627,9.9 28.577,9.9" style="fill:rgb(25,103,210);fill-rule:nonzero;"/>
        <g opacity="0.2">
            <path d="M29.053,12.16L24.601,12.16C24.546,12.16 24.501,12.115 24.501,12.059L24.501,9.291C24.501,9.236 24.546,9.191 24.601,9.191C24.724,9.597 25.033,10.411 25.802,11.103C27.115,12.285 28.736,12.186 29.053,12.16" style="fill:rgb(205,210,220);fill-rule:nonzero;"/>
        </g>
        <path d="M25.384,10.688L25.126,10.688C25.093,10.688 25.066,10.661 25.066,10.628L25.066,10.45C25.066,10.417 25.093,10.389 25.126,10.389L25.384,10.389C25.417,10.389 25.444,10.417 25.444,10.45L25.444,10.628C25.444,10.661 25.417,10.688 25.384,10.688Z" style="fill:none;fill-rule:nonzero;stroke:rgb(24,128,56);stroke-width:0.1px;"/>
        <path d="M28.577,11.365L25.116,11.365C25.065,11.365 25.025,11.325 25.025,11.275C25.025,11.224 25.065,11.185 25.116,11.185L28.577,11.185C28.627,11.185 28.668,11.224 28.668,11.275C28.668,11.325 28.627,11.365 28.577,11.365" style="fill:rgb(205,210,220);fill-rule:nonzero;"/>
        <path d="M26.517,11.78L25.116,11.78C25.065,11.78 25.025,11.739 25.025,11.69C25.025,11.64 25.065,11.599 25.116,11.599L26.517,11.599C26.567,11.599 26.608,11.64 26.608,11.69C26.608,11.739 26.567,11.78 26.517,11.78" style="fill:rgb(205,210,220);fill-rule:nonzero;"/>
        <path d="M27.308,10.63L25.906,10.63C25.856,10.63 25.816,10.589 25.816,10.539C25.816,10.489 25.856,10.449 25.906,10.449L27.308,10.449C27.358,10.449 27.399,10.489 27.399,10.539C27.399,10.589 27.358,10.63 27.308,10.63" style="fill:rgb(24,128,56);fill-rule:nonzero;"/>
        <path d="M28.577,9.9L25.116,9.9C25.065,9.9 25.025,9.859 25.025,9.809C25.025,9.759 25.065,9.719 25.116,9.719L28.577,9.719C28.627,9.719 28.668,9.759 28.668,9.809C28.668,9.859 28.627,9.9 28.577,9.9" style="fill:rgb(25,103,210);fill-rule:nonzero;"/>
        <path d="M22.785,12.16L18.334,12.16C18.278,12.16 18.233,12.115 18.233,12.059L18.233,9.291C18.233,9.236 18.278,9.191 18.334,9.191L22.785,9.191C22.841,9.191 22.886,9.236 22.886,9.291L22.886,12.059C22.886,12.115 22.841,12.16 22.785,12.16Z" style="fill:white;fill-rule:nonzero;stroke:rgb(205,210,220);stroke-width:0.1px;stroke-linecap:butt;"/>
        <path d="M19.116,10.688L18.858,10.688C18.825,10.688 18.798,10.661 18.798,10.628L18.798,10.45C18.798,10.417 18.825,10.389 18.858,10.389L19.116,10.389C19.149,10.389 19.176,10.417 19.176,10.45L19.176,10.628C19.176,10.661 19.149,10.688 19.116,10.688Z" style="fill:none;fill-rule:nonzero;stroke:rgb(24,128,56);stroke-width:0.03px;"/>
        <path d="M22.309,11.365L18.847,11.365C18.797,11.365 18.757,11.325 18.757,11.275C18.757,11.224 18.797,11.185 18.847,11.185L22.309,11.185C22.359,11.185 22.4,11.224 22.4,11.275C22.4,11.325 22.359,11.365 22.309,11.365" style="fill:rgb(205,210,220);fill-rule:nonzero;"/>
        <path d="M20.249,11.78L18.847,11.78C18.797,11.78 18.757,11.739 18.757,11.69C18.757,11.64 18.797,11.599 18.847,11.599L20.249,11.599C20.299,11.599 20.34,11.64 20.34,11.69C20.34,11.739 20.299,11.78 20.249,11.78" style="fill:rgb(205,210,220);fill-rule:nonzero;"/>
        <path d="M21.041,10.63L19.639,10.63C19.589,10.63 19.549,10.589 19.549,10.539C19.549,10.489 19.589,10.449 19.639,10.449L21.041,10.449C21.091,10.449 21.131,10.489 21.131,10.539C21.131,10.589 21.091,10.63 21.041,10.63" style="fill:rgb(24,128,56);fill-rule:nonzero;"/>
        <path d="M22.309,9.9L18.847,9.9C18.797,9.9 18.757,9.859 18.757,9.809C18.757,9.759 18.797,9.719 18.847,9.719L22.309,9.719C22.359,9.719 22.4,9.759 22.4,9.809C22.4,9.859 22.359,9.9 22.309,9.9" style="fill:rgb(25,103,210);fill-rule:nonzero;"/>
        <g opacity="0.2">
            <path d="M22.785,12.16L18.334,12.16C18.278,12.16 18.233,12.115 18.233,12.059L18.233,9.291C18.233,9.236 18.278,9.191 18.334,9.191C18.456,9.597 18.765,10.411 19.535,11.103C20.847,12.285 22.469,12.186 22.785,12.16" style="fill:rgb(205,210,220);fill-rule:nonzero;"/>
        </g>
        <path d="M19.116,10.688L18.858,10.688C18.825,10.688 18.798,10.661 18.798,10.628L18.798,10.45C18.798,10.417 18.825,10.389 18.858,10.389L19.116,10.389C19.149,10.389 19.176,10.417 19.176,10.45L19.176,10.628C19.176,10.661 19.149,10.688 19.116,10.688Z" style="fill:none;fill-rule:nonzero;stroke:rgb(24,128,56);stroke-width:0.1px;"/>
        <path d="M22.309,11.365L18.847,11.365C18.797,11.365 18.757,11.325 18.757,11.275C18.757,11.224 18.797,11.185 18.847,11.185L22.309,11.185C22.359,11.185 22.4,11.224 22.4,11.275C22.4,11.325 22.359,11.365 22.309,11.365" style="fill:rgb(205,210,220);fill-rule:nonzero;"/>
        <path d="M20.249,11.78L18.847,11.78C18.797,11.78 18.757,11.739 18.757,11.69C18.757,11.64 18.797,11.599 18.847,11.599L20.249,11.599C20.299,11.599 20.34,11.64 20.34,11.69C20.34,11.739 20.299,11.78 20.249,11.78" style="fill:rgb(205,210,220);fill-rule:nonzero;"/>
        <path d="M21.041,10.63L19.639,10.63C19.589,10.63 19.549,10.589 19.549,10.539C19.549,10.489 19.589,10.449 19.639,10.449L21.041,10.449C21.091,10.449 21.131,10.489 21.131,10.539C21.131,10.589 21.091,10.63 21.041,10.63" style="fill:rgb(24,128,56);fill-rule:nonzero;"/>
        <path d="M22.309,9.9L18.847,9.9C18.797,9.9 18.757,9.859 18.757,9.809C18.757,9.759 18.797,9.719 18.847,9.719L22.309,9.719C22.359,9.719 22.4,9.759 22.4,9.809C22.4,9.859 22.359,9.9 22.309,9.9" style="fill:rgb(25,103,210);fill-rule:nonzero;"/>
        <path d="M22.785,7.94L18.334,7.94C18.278,7.94 18.233,7.895 18.233,7.84L18.233,5.071C18.233,5.016 18.278,4.971 18.334,4.971L22.785,4.971C22.841,4.971 22.886,5.016 22.886,5.071L22.886,7.84C22.886,7.895 22.841,7.94 22.785,7.94Z" style="fill:white;fill-rule:nonzero;stroke:rgb(205,210,220);stroke-width:0.1px;stroke-linecap:butt;"/>
        <path d="M19.116,6.468L18.858,6.468C18.825,6.468 18.798,6.441 18.798,6.408L18.798,6.23C18.798,6.197 18.825,6.169 18.858,6.169L19.116,6.169C19.149,6.169 19.176,6.197 19.176,6.23L19.176,6.408C19.176,6.441 19.149,6.468 19.116,6.468Z" style="fill:none;fill-rule:nonzero;stroke:rgb(24,128,56);stroke-width:0.03px;"/>
        <path d="M22.309,7.145L18.847,7.145C18.797,7.145 18.757,7.104 18.757,7.054C18.757,7.004 18.797,6.964 18.847,6.964L22.309,6.964C22.359,6.964 22.4,7.004 22.4,7.054C22.4,7.104 22.359,7.145 22.309,7.145" style="fill:rgb(205,210,220);fill-rule:nonzero;"/>
        <path d="M20.249,7.56L18.847,7.56C18.797,7.56 18.757,7.519 18.757,7.469C18.757,7.419 18.797,7.379 18.847,7.379L20.249,7.379C20.299,7.379 20.34,7.419 20.34,7.469C20.34,7.519 20.299,7.56 20.249,7.56" style="fill:rgb(205,210,220);fill-rule:nonzero;"/>
        <path d="M21.041,6.409L19.639,6.409C19.589,6.409 19.549,6.368 19.549,6.318C19.549,6.268 19.589,6.228 19.639,6.228L21.041,6.228C21.091,6.228 21.131,6.268 21.131,6.318C21.131,6.368 21.091,6.409 21.041,6.409" style="fill:rgb(24,128,56);fill-rule:nonzero;"/>
        <path d="M22.309,5.68L18.847,5.68C18.797,5.68 18.757,5.639 18.757,5.589C18.757,5.539 18.797,5.499 18.847,5.499L22.309,5.499C22.359,5.499 22.4,5.539 22.4,5.589C22.4,5.639 22.359,5.68 22.309,5.68" style="fill:rgb(25,103,210);fill-rule:nonzero;"/>
        <g opacity="0.2">
            <path d="M22.785,7.941L18.334,7.941C18.278,7.941 18.233,7.896 18.233,7.84L18.233,5.072C18.233,5.016 18.278,4.971 18.334,4.971C18.456,5.378 18.765,6.191 19.535,6.884C20.847,8.065 22.469,7.966 22.785,7.941" style="fill:rgb(205,210,220);fill-rule:nonzero;"/>
        </g>
        <path d="M19.116,6.468L18.858,6.468C18.825,6.468 18.798,6.441 18.798,6.408L18.798,6.23C18.798,6.197 18.825,6.169 18.858,6.169L19.116,6.169C19.149,6.169 19.176,6.197 19.176,6.23L19.176,6.408C19.176,6.441 19.149,6.468 19.116,6.468Z" style="fill:none;fill-rule:nonzero;stroke:rgb(24,128,56);stroke-width:0.1px;"/>
        <path d="M22.309,7.145L18.847,7.145C18.797,7.145 18.757,7.104 18.757,7.054C18.757,7.004 18.797,6.964 18.847,6.964L22.309,6.964C22.359,6.964 22.4,7.004 22.4,7.054C22.4,7.104 22.359,7.145 22.309,7.145" style="fill:rgb(205,210,220);fill-rule:nonzero;"/>
        <path d="M20.249,7.56L18.847,7.56C18.797,7.56 18.757,7.519 18.757,7.469C18.757,7.419 18.797,7.379 18.847,7.379L20.249,7.379C20.299,7.379 20.34,7.419 20.34,7.469C20.34,7.519 20.299,7.56 20.249,7.56" style="fill:rgb(205,210,220);fill-rule:nonzero;"/>
        <path d="M21.041,6.409L19.639,6.409C19.589,6.409 19.549,6.368 19.549,6.318C19.549,6.268 19.589,6.228 19.639,6.228L21.041,6.228C21.091,6.228 21.131,6.268 21.131,6.318C21.131,6.368 21.091,6.409 21.041,6.409" style="fill:rgb(24,128,56);fill-rule:nonzero;"/>
        <path d="M22.309,5.68L18.847,5.68C18.797,5.68 18.757,5.639 18.757,5.589C18.757,5.539 18.797,5.499 18.847,5.499L22.309,5.499C22.359,5.499 22.4,5.539 22.4,5.589C22.4,5.639 22.359,5.68 22.309,5.68" style="fill:rgb(25,103,210);fill-rule:nonzero;"/>
        <path d="M16.387,7.94L11.936,7.94C11.88,7.94 11.835,7.895 11.835,7.84L11.835,5.071C11.835,5.016 11.88,4.971 11.936,4.971L16.387,4.971C16.443,4.971 16.488,5.016 16.488,5.071L16.488,7.84C16.488,7.895 16.443,7.94 16.387,7.94Z" style="fill:white;fill-rule:nonzero;stroke:rgb(205,210,220);stroke-width:0.1px;stroke-linecap:butt;"/>
        <path d="M12.718,6.468L12.46,6.468C12.427,6.468 12.4,6.441 12.4,6.408L12.4,6.23C12.4,6.197 12.427,6.169 12.46,6.169L12.718,6.169C12.751,6.169 12.778,6.197 12.778,6.23L12.778,6.408C12.778,6.441 12.751,6.468 12.718,6.468Z" style="fill:none;fill-rule:nonzero;stroke:rgb(24,128,56);stroke-width:0.03px;"/>
        <path d="M15.911,7.145L12.449,7.145C12.399,7.145 12.359,7.104 12.359,7.054C12.359,7.004 12.399,6.964 12.449,6.964L15.911,6.964C15.961,6.964 16.002,7.004 16.002,7.054C16.002,7.104 15.961,7.145 15.911,7.145" style="fill:rgb(205,210,220);fill-rule:nonzero;"/>
        <path d="M13.851,7.56L12.449,7.56C12.399,7.56 12.359,7.519 12.359,7.469C12.359,7.419 12.399,7.379 12.449,7.379L13.851,7.379C13.901,7.379 13.942,7.419 13.942,7.469C13.942,7.519 13.901,7.56 13.851,7.56" style="fill:rgb(205,210,220);fill-rule:nonzero;"/>
        <path d="M14.642,6.409L13.24,6.409C13.19,6.409 13.15,6.368 13.15,6.318C13.15,6.268 13.19,6.228 13.24,6.228L14.642,6.228C14.692,6.228 14.733,6.268 14.733,6.318C14.733,6.368 14.692,6.409 14.642,6.409" style="fill:rgb(24,128,56);fill-rule:nonzero;"/>
        <path d="M15.911,5.68L12.449,5.68C12.399,5.68 12.359,5.639 12.359,5.589C12.359,5.539 12.399,5.499 12.449,5.499L15.911,5.499C15.961,5.499 16.002,5.539 16.002,5.589C16.002,5.639 15.961,5.68 15.911,5.68" style="fill:rgb(25,103,210);fill-rule:nonzero;"/>
        <g opacity="0.2">
            <path d="M16.387,7.941L11.936,7.941C11.88,7.941 11.835,7.896 11.835,7.84L11.835,5.072C11.835,5.016 11.88,4.971 11.936,4.971C12.058,5.378 12.367,6.191 13.137,6.884C14.449,8.065 16.071,7.966 16.387,7.941" style="fill:rgb(205,210,220);fill-rule:nonzero;"/>
        </g>
        <path d="M12.718,6.468L12.46,6.468C12.427,6.468 12.4,6.441 12.4,6.408L12.4,6.23C12.4,6.197 12.427,6.169 12.46,6.169L12.718,6.169C12.751,6.169 12.778,6.197 12.778,6.23L12.778,6.408C12.778,6.441 12.751,6.468 12.718,6.468Z" style="fill:none;fill-rule:nonzero;stroke:rgb(24,128,56);stroke-width:0.1px;"/>
        <path d="M15.911,7.145L12.449,7.145C12.399,7.145 12.359,7.104 12.359,7.054C12.359,7.004 12.399,6.964 12.449,6.964L15.911,6.964C15.961,6.964 16.002,7.004 16.002,7.054C16.002,7.104 15.961,7.145 15.911,7.145" style="fill:rgb(205,210,220);fill-rule:nonzero;"/>
        <path d="M13.851,7.56L12.449,7.56C12.399,7.56 12.359,7.519 12.359,7.469C12.359,7.419 12.399,7.379 12.449,7.379L13.851,7.379C13.901,7.379 13.942,7.419 13.942,7.469C13.942,7.519 13.901,7.56 13.851,7.56" style="fill:rgb(205,210,220);fill-rule:nonzero;"/>
        <path d="M14.642,6.409L13.24,6.409C13.19,6.409 13.15,6.368 13.15,6.318C13.15,6.268 13.19,6.228 13.24,6.228L14.642,6.228C14.692,6.228 14.733,6.268 14.733,6.318C14.733,6.368 14.692,6.409 14.642,6.409" style="fill:rgb(24,128,56);fill-rule:nonzero;"/>
        <path d="M15.911,5.68L12.449,5.68C12.399,5.68 12.359,5.639 12.359,5.589C12.359,5.539 12.399,5.499 12.449,5.499L15.911,5.499C15.961,5.499 16.002,5.539 16.002,5.589C16.002,5.639 15.961,5.68 15.911,5.68" style="fill:rgb(25,103,210);fill-rule:nonzero;"/>
        <path d="M16.387,12.167L11.936,12.167C11.88,12.167 11.835,12.122 11.835,12.066L11.835,9.298C11.835,9.242 11.88,9.197 11.936,9.197L16.387,9.197C16.443,9.197 16.488,9.242 16.488,9.298L16.488,12.066C16.488,12.122 16.443,12.167 16.387,12.167Z" style="fill:white;fill-rule:nonzero;stroke:rgb(205,210,220);stroke-width:0.1px;stroke-linecap:butt;"/>
        <path d="M12.718,10.695L12.46,10.695C12.427,10.695 12.4,10.668 12.4,10.634L12.4,10.456C12.4,10.423 12.427,10.396 12.46,10.396L12.718,10.396C12.751,10.396 12.778,10.423 12.778,10.456L12.778,10.634C12.778,10.668 12.751,10.695 12.718,10.695Z" style="fill:none;fill-rule:nonzero;stroke:rgb(24,128,56);stroke-width:0.03px;"/>
        <path d="M15.911,11.371L12.449,11.371C12.399,11.371 12.359,11.33 12.359,11.28C12.359,11.23 12.399,11.19 12.449,11.19L15.911,11.19C15.961,11.19 16.002,11.23 16.002,11.28C16.002,11.33 15.961,11.371 15.911,11.371" style="fill:rgb(205,210,220);fill-rule:nonzero;"/>
        <path d="M13.851,11.786L12.449,11.786C12.399,11.786 12.359,11.745 12.359,11.695C12.359,11.645 12.399,11.605 12.449,11.605L13.851,11.605C13.901,11.605 13.942,11.645 13.942,11.695C13.942,11.745 13.901,11.786 13.851,11.786" style="fill:rgb(205,210,220);fill-rule:nonzero;"/>
        <path d="M14.642,10.636L13.24,10.636C13.19,10.636 13.15,10.595 13.15,10.546C13.15,10.495 13.19,10.455 13.24,10.455L14.642,10.455C14.692,10.455 14.733,10.495 14.733,10.546C14.733,10.595 14.692,10.636 14.642,10.636" style="fill:rgb(24,128,56);fill-rule:nonzero;"/>
        <path d="M15.911,9.906L12.449,9.906C12.399,9.906 12.359,9.865 12.359,9.815C12.359,9.765 12.399,9.725 12.449,9.725L15.911,9.725C15.961,9.725 16.002,9.765 16.002,9.815C16.002,9.865 15.961,9.906 15.911,9.906" style="fill:rgb(25,103,210);fill-rule:nonzero;"/>
        <g opacity="0.2">
            <path d="M16.387,12.167L11.936,12.167C11.88,12.167 11.835,12.122 11.835,12.066L11.835,9.298C11.835,9.242 11.88,9.197 11.936,9.197C12.058,9.604 12.367,10.417 13.137,11.11C14.449,12.291 16.071,12.192 16.387,12.167" style="fill:rgb(205,210,220);fill-rule:nonzero;"/>
        </g>
        <path d="M12.718,10.695L12.46,10.695C12.427,10.695 12.4,10.668 12.4,10.634L12.4,10.456C12.4,10.423 12.427,10.396 12.46,10.396L12.718,10.396C12.751,10.396 12.778,10.423 12.778,10.456L12.778,10.634C12.778,10.668 12.751,10.695 12.718,10.695Z" style="fill:none;fill-rule:nonzero;stroke:rgb(24,128,56);stroke-width:0.1px;"/>
        <path d="M15.911,11.371L12.449,11.371C12.399,11.371 12.359,11.33 12.359,11.28C12.359,11.23 12.399,11.19 12.449,11.19L15.911,11.19C15.961,11.19 16.002,11.23 16.002,11.28C16.002,11.33 15.961,11.371 15.911,11.371" style="fill:rgb(205,210,220);fill-rule:nonzero;"/>
        <path d="M13.851,11.786L12.449,11.786C12.399,11.786 12.359,11.745 12.359,11.695C12.359,11.645 12.399,11.605 12.449,11.605L13.851,11.605C13.901,11.605 13.942,11.645 13.942,11.695C13.942,11.745 13.901,11.786 13.851,11.786" style="fill:rgb(205,210,220);fill-rule:nonzero;"/>
        <path d="M14.642,10.636L13.24,10.636C13.19,10.636 13.15,10.595 13.15,10.546C13.15,10.495 13.19,10.455 13.24,10.455L14.642,10.455C14.692,10.455 14.733,10.495 14.733,10.546C14.733,10.595 14.692,10.636 14.642,10.636" style="fill:rgb(24,128,56);fill-rule:nonzero;"/>
        <path d="M15.911,9.906L12.449,9.906C12.399,9.906 12.359,9.865 12.359,9.815C12.359,9.765 12.399,9.725 12.449,9.725L15.911,9.725C15.961,9.725 16.002,9.765 16.002,9.815C16.002,9.865 15.961,9.906 15.911,9.906" style="fill:rgb(25,103,210);fill-rule:nonzero;"/>
        <path d="M16.387,16.148L11.936,16.148C11.88,16.148 11.835,16.103 11.835,16.047L11.835,13.279C11.835,13.223 11.88,13.178 11.936,13.178L16.387,13.178C16.443,13.178 16.488,13.223 16.488,13.279L16.488,16.047C16.488,16.103 16.443,16.148 16.387,16.148Z" style="fill:white;fill-rule:nonzero;stroke:rgb(205,210,220);stroke-width:0.1px;stroke-linecap:butt;"/>
        <path d="M12.718,14.676L12.46,14.676C12.427,14.676 12.4,14.649 12.4,14.615L12.4,14.437C12.4,14.404 12.427,14.377 12.46,14.377L12.718,14.377C12.751,14.377 12.778,14.404 12.778,14.437L12.778,14.615C12.778,14.649 12.751,14.676 12.718,14.676Z" style="fill:none;fill-rule:nonzero;stroke:rgb(24,128,56);stroke-width:0.03px;"/>
        <path d="M15.911,15.352L12.449,15.352C12.399,15.352 12.359,15.311 12.359,15.261C12.359,15.211 12.399,15.171 12.449,15.171L15.911,15.171C15.961,15.171 16.002,15.211 16.002,15.261C16.002,15.311 15.961,15.352 15.911,15.352" style="fill:rgb(205,210,220);fill-rule:nonzero;"/>
        <path d="M13.851,15.767L12.449,15.767C12.399,15.767 12.359,15.726 12.359,15.676C12.359,15.626 12.399,15.586 12.449,15.586L13.851,15.586C13.901,15.586 13.942,15.626 13.942,15.676C13.942,15.726 13.901,15.767 13.851,15.767" style="fill:rgb(205,210,220);fill-rule:nonzero;"/>
        <path d="M14.642,14.617L13.24,14.617C13.19,14.617 13.15,14.576 13.15,14.527C13.15,14.476 13.19,14.436 13.24,14.436L14.642,14.436C14.692,14.436 14.733,14.476 14.733,14.527C14.733,14.576 14.692,14.617 14.642,14.617" style="fill:rgb(24,128,56);fill-rule:nonzero;"/>
        <path d="M15.911,13.887L12.449,13.887C12.399,13.887 12.359,13.846 12.359,13.797C12.359,13.746 12.399,13.706 12.449,13.706L15.911,13.706C15.961,13.706 16.002,13.746 16.002,13.797C16.002,13.846 15.961,13.887 15.911,13.887" style="fill:rgb(25,103,210);fill-rule:nonzero;"/>
        <g opacity="0.2">
            <path d="M16.387,16.148L11.936,16.148C11.88,16.148 11.835,16.103 11.835,16.047L11.835,13.279C11.835,13.223 11.88,13.178 11.936,13.178C12.058,13.585 12.367,14.398 13.137,15.091C14.449,16.272 16.071,16.173 16.387,16.148" style="fill:rgb(205,210,220);fill-rule:nonzero;"/>
        </g>
        <path d="M12.718,14.676L12.46,14.676C12.427,14.676 12.4,14.649 12.4,14.615L12.4,14.437C12.4,14.404 12.427,14.377 12.46,14.377L12.718,14.377C12.751,14.377 12.778,14.404 12.778,14.437L12.778,14.615C12.778,14.649 12.751,14.676 12.718,14.676Z" style="fill:none;fill-rule:nonzero;stroke:rgb(24,128,56);stroke-width:0.1px;"/>
        <path d="M15.911,15.352L12.449,15.352C12.399,15.352 12.359,15.311 12.359,15.261C12.359,15.211 12.399,15.171 12.449,15.171L15.911,15.171C15.961,15.171 16.002,15.211 16.002,15.261C16.002,15.311 15.961,15.352 15.911,15.352" style="fill:rgb(205,210,220);fill-rule:nonzero;"/>
        <path d="M13.851,15.767L12.449,15.767C12.399,15.767 12.359,15.726 12.359,15.676C12.359,15.626 12.399,15.586 12.449,15.586L13.851,15.586C13.901,15.586 13.942,15.626 13.942,15.676C13.942,15.726 13.901,15.767 13.851,15.767" style="fill:rgb(205,210,220);fill-rule:nonzero;"/>
        <path d="M14.642,14.617L13.24,14.617C13.19,14.617 13.15,14.576 13.15,14.527C13.15,14.476 13.19,14.436 13.24,14.436L14.642,14.436C14.692,14.436 14.733,14.476 14.733,14.527C14.733,14.576 14.692,14.617 14.642,14.617" style="fill:rgb(24,128,56);fill-rule:nonzero;"/>
        <path d="M15.911,13.887L12.449,13.887C12.399,13.887 12.359,13.846 12.359,13.797C12.359,13.746 12.399,13.706 12.449,13.706L15.911,13.706C15.961,13.706 16.002,13.746 16.002,13.797C16.002,13.846 15.961,13.887 15.911,13.887" style="fill:rgb(25,103,210);fill-rule:nonzero;"/>
        <path d="M16.387,20.072L11.936,20.072C11.88,20.072 11.835,20.027 11.835,19.971L11.835,17.203C11.835,17.148 11.88,17.103 11.936,17.103L16.387,17.103C16.443,17.103 16.488,17.148 16.488,17.203L16.488,19.971C16.488,20.027 16.443,20.072 16.387,20.072Z" style="fill:white;fill-rule:nonzero;stroke:rgb(205,210,220);stroke-width:0.1px;stroke-linecap:butt;"/>
        <path d="M12.718,18.6L12.46,18.6C12.427,18.6 12.4,18.573 12.4,18.54L12.4,18.362C12.4,18.329 12.427,18.301 12.46,18.301L12.718,18.301C12.751,18.301 12.778,18.329 12.778,18.362L12.778,18.54C12.778,18.573 12.751,18.6 12.718,18.6Z" style="fill:none;fill-rule:nonzero;stroke:rgb(24,128,56);stroke-width:0.03px;"/>
        <path d="M15.911,19.277L12.449,19.277C12.399,19.277 12.359,19.236 12.359,19.187C12.359,19.137 12.399,19.096 12.449,19.096L15.911,19.096C15.961,19.096 16.002,19.137 16.002,19.187C16.002,19.236 15.961,19.277 15.911,19.277" style="fill:rgb(205,210,220);fill-rule:nonzero;"/>
        <path d="M13.851,19.691L12.449,19.691C12.399,19.691 12.359,19.65 12.359,19.601C12.359,19.551 12.399,19.51 12.449,19.51L13.851,19.51C13.901,19.51 13.942,19.551 13.942,19.601C13.942,19.65 13.901,19.691 13.851,19.691" style="fill:rgb(205,210,220);fill-rule:nonzero;"/>
        <path d="M14.642,18.541L13.24,18.541C13.19,18.541 13.15,18.5 13.15,18.45C13.15,18.4 13.19,18.36 13.24,18.36L14.642,18.36C14.692,18.36 14.733,18.4 14.733,18.45C14.733,18.5 14.692,18.541 14.642,18.541" style="fill:rgb(24,128,56);fill-rule:nonzero;"/>
        <path d="M15.911,17.812L12.449,17.812C12.399,17.812 12.359,17.771 12.359,17.721C12.359,17.671 12.399,17.631 12.449,17.631L15.911,17.631C15.961,17.631 16.002,17.671 16.002,17.721C16.002,17.771 15.961,17.812 15.911,17.812" style="fill:rgb(25,103,210);fill-rule:nonzero;"/>
        <g opacity="0.2">
            <path d="M16.387,20.072L11.936,20.072C11.88,20.072 11.835,20.027 11.835,19.971L11.835,17.203C11.835,17.148 11.88,17.103 11.936,17.103C12.058,17.509 12.367,18.323 13.137,19.015C14.449,20.196 16.071,20.098 16.387,20.072" style="fill:rgb(205,210,220);fill-rule:nonzero;"/>
        </g>
        <path d="M12.718,18.6L12.46,18.6C12.427,18.6 12.4,18.573 12.4,18.54L12.4,18.362C12.4,18.329 12.427,18.301 12.46,18.301L12.718,18.301C12.751,18.301 12.778,18.329 12.778,18.362L12.778,18.54C12.778,18.573 12.751,18.6 12.718,18.6Z" style="fill:none;fill-rule:nonzero;stroke:rgb(24,128,56);stroke-width:0.1px;"/>
        <path d="M15.911,19.277L12.449,19.277C12.399,19.277 12.359,19.236 12.359,19.187C12.359,19.137 12.399,19.096 12.449,19.096L15.911,19.096C15.961,19.096 16.002,19.137 16.002,19.187C16.002,19.236 15.961,19.277 15.911,19.277" style="fill:rgb(205,210,220);fill-rule:nonzero;"/>
        <path d="M13.851,19.691L12.449,19.691C12.399,19.691 12.359,19.65 12.359,19.601C12.359,19.551 12.399,19.51 12.449,19.51L13.851,19.51C13.901,19.51 13.942,19.551 13.942,19.601C13.942,19.65 13.901,19.691 13.851,19.691" style="fill:rgb(205,210,220);fill-rule:nonzero;"/>
        <path d="M14.642,18.541L13.24,18.541C13.19,18.541 13.15,18.5 13.15,18.45C13.15,18.4 13.19,18.36 13.24,18.36L14.642,18.36C14.692,18.36 14.733,18.4 14.733,18.45C14.733,18.5 14.692,18.541 14.642,18.541" style="fill:rgb(24,128,56);fill-rule:nonzero;"/>
        <path d="M15.911,17.812L12.449,17.812C12.399,17.812 12.359,17.771 12.359,17.721C12.359,17.671 12.399,17.631 12.449,17.631L15.911,17.631C15.961,17.631 16.002,17.671 16.002,17.721C16.002,17.771 15.961,17.812 15.911,17.812" style="fill:rgb(25,103,210);fill-rule:nonzero;"/>
        <path d="M10.119,20.072L5.668,20.072C5.612,20.072 5.567,20.027 5.567,19.971L5.567,17.203C5.567,17.148 5.612,17.103 5.668,17.103L10.119,17.103C10.175,17.103 10.22,17.148 10.22,17.203L10.22,19.971C10.22,20.027 10.175,20.072 10.119,20.072Z" style="fill:white;fill-rule:nonzero;stroke:rgb(205,210,220);stroke-width:0.1px;stroke-linecap:butt;"/>
        <path d="M6.45,18.6L6.192,18.6C6.159,18.6 6.132,18.573 6.132,18.54L6.132,18.362C6.132,18.329 6.159,18.301 6.192,18.301L6.45,18.301C6.483,18.301 6.51,18.329 6.51,18.362L6.51,18.54C6.51,18.573 6.483,18.6 6.45,18.6Z" style="fill:none;fill-rule:nonzero;stroke:rgb(24,128,56);stroke-width:0.03px;"/>
        <path d="M9.643,19.277L6.181,19.277C6.131,19.277 6.091,19.236 6.091,19.187C6.091,19.137 6.131,19.096 6.181,19.096L9.643,19.096C9.693,19.096 9.733,19.137 9.733,19.187C9.733,19.236 9.693,19.277 9.643,19.277" style="fill:rgb(205,210,220);fill-rule:nonzero;"/>
        <path d="M7.583,19.691L6.181,19.691C6.131,19.691 6.091,19.65 6.091,19.601C6.091,19.551 6.131,19.51 6.181,19.51L7.583,19.51C7.633,19.51 7.674,19.551 7.674,19.601C7.674,19.65 7.633,19.691 7.583,19.691" style="fill:rgb(205,210,220);fill-rule:nonzero;"/>
        <path d="M8.375,18.541L6.973,18.541C6.923,18.541 6.883,18.5 6.883,18.45C6.883,18.4 6.923,18.36 6.973,18.36L8.375,18.36C8.425,18.36 8.465,18.4 8.465,18.45C8.465,18.5 8.425,18.541 8.375,18.541" style="fill:rgb(24,128,56);fill-rule:nonzero;"/>
        <path d="M9.643,17.812L6.181,17.812C6.131,17.812 6.091,17.771 6.091,17.721C6.091,17.671 6.131,17.631 6.181,17.631L9.643,17.631C9.693,17.631 9.733,17.671 9.733,17.721C9.733,17.771 9.693,17.812 9.643,17.812" style="fill:rgb(25,103,210);fill-rule:nonzero;"/>
        <g opacity="0.2">
            <path d="M10.119,20.072L5.668,20.072C5.612,20.072 5.567,20.027 5.567,19.971L5.567,17.203C5.567,17.148 5.612,17.103 5.668,17.103C5.79,17.509 6.099,18.323 6.869,19.015C8.181,20.196 9.803,20.098 10.119,20.072" style="fill:rgb(205,210,220);fill-rule:nonzero;"/>
        </g>
        <path d="M6.45,18.6L6.192,18.6C6.159,18.6 6.132,18.573 6.132,18.54L6.132,18.362C6.132,18.329 6.159,18.301 6.192,18.301L6.45,18.301C6.483,18.301 6.51,18.329 6.51,18.362L6.51,18.54C6.51,18.573 6.483,18.6 6.45,18.6Z" style="fill:none;fill-rule:nonzero;stroke:rgb(24,128,56);stroke-width:0.1px;"/>
        <path d="M9.643,19.277L6.181,19.277C6.131,19.277 6.091,19.236 6.091,19.187C6.091,19.137 6.131,19.096 6.181,19.096L9.643,19.096C9.693,19.096 9.733,19.137 9.733,19.187C9.733,19.236 9.693,19.277 9.643,19.277" style="fill:rgb(205,210,220);fill-rule:nonzero;"/>
        <path d="M7.583,19.691L6.181,19.691C6.131,19.691 6.091,19.65 6.091,19.601C6.091,19.551 6.131,19.51 6.181,19.51L7.583,19.51C7.633,19.51 7.674,19.551 7.674,19.601C7.674,19.65 7.633,19.691 7.583,19.691" style="fill:rgb(205,210,220);fill-rule:nonzero;"/>
        <path d="M8.375,18.541L6.973,18.541C6.923,18.541 6.883,18.5 6.883,18.45C6.883,18.4 6.923,18.36 6.973,18.36L8.375,18.36C8.425,18.36 8.465,18.4 8.465,18.45C8.465,18.5 8.425,18.541 8.375,18.541" style="fill:rgb(24,128,56);fill-rule:nonzero;"/>
        <path d="M9.643,17.812L6.181,17.812C6.131,17.812 6.091,17.771 6.091,17.721C6.091,17.671 6.131,17.631 6.181,17.631L9.643,17.631C9.693,17.631 9.733,17.671 9.733,17.721C9.733,17.771 9.693,17.812 9.643,17.812" style="fill:rgb(25,103,210);fill-rule:nonzero;"/>
        <path d="M10.119,16.154L5.668,16.154C5.612,16.154 5.567,16.109 5.567,16.053L5.567,13.285C5.567,13.229 5.612,13.184 5.668,13.184L10.119,13.184C10.175,13.184 10.22,13.229 10.22,13.285L10.22,16.053C10.22,16.109 10.175,16.154 10.119,16.154Z" style="fill:white;fill-rule:nonzero;stroke:rgb(205,210,220);stroke-width:0.1px;stroke-linecap:butt;"/>
        <path d="M6.45,14.681L6.192,14.681C6.159,14.681 6.132,14.654 6.132,14.62L6.132,14.442C6.132,14.409 6.159,14.382 6.192,14.382L6.45,14.382C6.483,14.382 6.51,14.409 6.51,14.442L6.51,14.62C6.51,14.654 6.483,14.681 6.45,14.681Z" style="fill:none;fill-rule:nonzero;stroke:rgb(24,128,56);stroke-width:0.03px;"/>
        <path d="M9.643,15.358L6.181,15.358C6.131,15.358 6.091,15.317 6.091,15.268C6.091,15.217 6.131,15.177 6.181,15.177L9.643,15.177C9.693,15.177 9.733,15.217 9.733,15.268C9.733,15.317 9.693,15.358 9.643,15.358" style="fill:rgb(205,210,220);fill-rule:nonzero;"/>
        <path d="M7.583,15.773L6.181,15.773C6.131,15.773 6.091,15.732 6.091,15.683C6.091,15.632 6.131,15.592 6.181,15.592L7.583,15.592C7.633,15.592 7.674,15.632 7.674,15.683C7.674,15.732 7.633,15.773 7.583,15.773" style="fill:rgb(205,210,220);fill-rule:nonzero;"/>
        <path d="M8.375,14.622L6.973,14.622C6.923,14.622 6.883,14.581 6.883,14.532C6.883,14.481 6.923,14.441 6.973,14.441L8.375,14.441C8.425,14.441 8.465,14.481 8.465,14.532C8.465,14.581 8.425,14.622 8.375,14.622" style="fill:rgb(24,128,56);fill-rule:nonzero;"/>
        <path d="M9.643,13.893L6.181,13.893C6.131,13.893 6.091,13.852 6.091,13.803C6.091,13.752 6.131,13.712 6.181,13.712L9.643,13.712C9.693,13.712 9.733,13.752 9.733,13.803C9.733,13.852 9.693,13.893 9.643,13.893" style="fill:rgb(25,103,210);fill-rule:nonzero;"/>
        <g opacity="0.2">
            <path d="M10.119,16.154L5.668,16.154C5.612,16.154 5.567,16.109 5.567,16.053L5.567,13.285C5.567,13.229 5.612,13.184 5.668,13.184C5.79,13.591 6.099,14.404 6.869,15.097C8.181,16.278 9.803,16.179 10.119,16.154" style="fill:rgb(205,210,220);fill-rule:nonzero;"/>
        </g>
        <path d="M6.45,14.681L6.192,14.681C6.159,14.681 6.132,14.654 6.132,14.62L6.132,14.442C6.132,14.409 6.159,14.382 6.192,14.382L6.45,14.382C6.483,14.382 6.51,14.409 6.51,14.442L6.51,14.62C6.51,14.654 6.483,14.681 6.45,14.681Z" style="fill:none;fill-rule:nonzero;stroke:rgb(24,128,56);stroke-width:0.1px;"/>
        <path d="M9.643,15.358L6.181,15.358C6.131,15.358 6.091,15.317 6.091,15.268C6.091,15.217 6.131,15.177 6.181,15.177L9.643,15.177C9.693,15.177 9.733,15.217 9.733,15.268C9.733,15.317 9.693,15.358 9.643,15.358" style="fill:rgb(205,210,220);fill-rule:nonzero;"/>
        <path d="M7.583,15.773L6.181,15.773C6.131,15.773 6.091,15.732 6.091,15.683C6.091,15.632 6.131,15.592 6.181,15.592L7.583,15.592C7.633,15.592 7.674,15.632 7.674,15.683C7.674,15.732 7.633,15.773 7.583,15.773" style="fill:rgb(205,210,220);fill-rule:nonzero;"/>
        <path d="M8.375,14.622L6.973,14.622C6.923,14.622 6.883,14.581 6.883,14.532C6.883,14.481 6.923,14.441 6.973,14.441L8.375,14.441C8.425,14.441 8.465,14.481 8.465,14.532C8.465,14.581 8.425,14.622 8.375,14.622" style="fill:rgb(24,128,56);fill-rule:nonzero;"/>
        <path d="M9.643,13.893L6.181,13.893C6.131,13.893 6.091,13.852 6.091,13.803C6.091,13.752 6.131,13.712 6.181,13.712L9.643,13.712C9.693,13.712 9.733,13.752 9.733,13.803C9.733,13.852 9.693,13.893 9.643,13.893" style="fill:rgb(25,103,210);fill-rule:nonzero;"/>
        <path d="M10.119,12.173L5.668,12.173C5.612,12.173 5.567,12.128 5.567,12.072L5.567,9.304C5.567,9.248 5.612,9.203 5.668,9.203L10.119,9.203C10.175,9.203 10.22,9.248 10.22,9.304L10.22,12.072C10.22,12.128 10.175,12.173 10.119,12.173Z" style="fill:white;fill-rule:nonzero;stroke:rgb(205,210,220);stroke-width:0.1px;stroke-linecap:butt;"/>
        <path d="M6.45,10.7L6.192,10.7C6.159,10.7 6.132,10.673 6.132,10.639L6.132,10.461C6.132,10.428 6.159,10.401 6.192,10.401L6.45,10.401C6.483,10.401 6.51,10.428 6.51,10.461L6.51,10.639C6.51,10.673 6.483,10.7 6.45,10.7Z" style="fill:none;fill-rule:nonzero;stroke:rgb(24,128,56);stroke-width:0.03px;"/>
        <path d="M9.643,11.377L6.181,11.377C6.131,11.377 6.091,11.336 6.091,11.286C6.091,11.236 6.131,11.196 6.181,11.196L9.643,11.196C9.693,11.196 9.733,11.236 9.733,11.286C9.733,11.336 9.693,11.377 9.643,11.377" style="fill:rgb(205,210,220);fill-rule:nonzero;"/>
        <path d="M7.583,11.792L6.181,11.792C6.131,11.792 6.091,11.751 6.091,11.701C6.091,11.651 6.131,11.611 6.181,11.611L7.583,11.611C7.633,11.611 7.674,11.651 7.674,11.701C7.674,11.751 7.633,11.792 7.583,11.792" style="fill:rgb(205,210,220);fill-rule:nonzero;"/>
        <path d="M8.375,10.641L6.973,10.641C6.923,10.641 6.883,10.6 6.883,10.551C6.883,10.5 6.923,10.46 6.973,10.46L8.375,10.46C8.425,10.46 8.465,10.5 8.465,10.551C8.465,10.6 8.425,10.641 8.375,10.641" style="fill:rgb(24,128,56);fill-rule:nonzero;"/>
        <path d="M9.643,9.912L6.181,9.912C6.131,9.912 6.091,9.871 6.091,9.822C6.091,9.771 6.131,9.731 6.181,9.731L9.643,9.731C9.693,9.731 9.733,9.771 9.733,9.822C9.733,9.871 9.693,9.912 9.643,9.912" style="fill:rgb(25,103,210);fill-rule:nonzero;"/>
        <g opacity="0.2">
            <path d="M10.119,12.173L5.668,12.173C5.612,12.173 5.567,12.128 5.567,12.072L5.567,9.304C5.567,9.248 5.612,9.203 5.668,9.203C5.79,9.61 6.099,10.423 6.869,11.116C8.181,12.297 9.803,12.198 10.119,12.173" style="fill:rgb(205,210,220);fill-rule:nonzero;"/>
        </g>
        <path d="M6.45,10.7L6.192,10.7C6.159,10.7 6.132,10.673 6.132,10.639L6.132,10.461C6.132,10.428 6.159,10.401 6.192,10.401L6.45,10.401C6.483,10.401 6.51,10.428 6.51,10.461L6.51,10.639C6.51,10.673 6.483,10.7 6.45,10.7Z" style="fill:none;fill-rule:nonzero;stroke:rgb(24,128,56);stroke-width:0.1px;"/>
        <path d="M9.643,11.377L6.181,11.377C6.131,11.377 6.091,11.336 6.091,11.286C6.091,11.236 6.131,11.196 6.181,11.196L9.643,11.196C9.693,11.196 9.733,11.236 9.733,11.286C9.733,11.336 9.693,11.377 9.643,11.377" style="fill:rgb(205,210,220);fill-rule:nonzero;"/>
        <path d="M7.583,11.792L6.181,11.792C6.131,11.792 6.091,11.751 6.091,11.701C6.091,11.651 6.131,11.611 6.181,11.611L7.583,11.611C7.633,11.611 7.674,11.651 7.674,11.701C7.674,11.751 7.633,11.792 7.583,11.792" style="fill:rgb(205,210,220);fill-rule:nonzero;"/>
        <path d="M8.375,10.641L6.973,10.641C6.923,10.641 6.883,10.6 6.883,10.551C6.883,10.5 6.923,10.46 6.973,10.46L8.375,10.46C8.425,10.46 8.465,10.5 8.465,10.551C8.465,10.6 8.425,10.641 8.375,10.641" style="fill:rgb(24,128,56);fill-rule:nonzero;"/>
        <path d="M9.643,9.912L6.181,9.912C6.131,9.912 6.091,9.871 6.091,9.822C6.091,9.771 6.131,9.731 6.181,9.731L9.643,9.731C9.693,9.731 9.733,9.771 9.733,9.822C9.733,9.871 9.693,9.912 9.643,9.912" style="fill:rgb(25,103,210);fill-rule:nonzero;"/>
        <path d="M10.119,7.947L5.668,7.947C5.612,7.947 5.567,7.902 5.567,7.846L5.567,5.078C5.567,5.022 5.612,4.977 5.668,4.977L10.119,4.977C10.175,4.977 10.22,5.022 10.22,5.078L10.22,7.846C10.22,7.902 10.175,7.947 10.119,7.947Z" style="fill:white;fill-rule:nonzero;stroke:rgb(205,210,220);stroke-width:0.1px;stroke-linecap:butt;"/>
        <path d="M6.45,6.474L6.192,6.474C6.159,6.474 6.132,6.447 6.132,6.413L6.132,6.235C6.132,6.202 6.159,6.175 6.192,6.175L6.45,6.175C6.483,6.175 6.51,6.202 6.51,6.235L6.51,6.413C6.51,6.447 6.483,6.474 6.45,6.474Z" style="fill:none;fill-rule:nonzero;stroke:rgb(24,128,56);stroke-width:0.03px;"/>
        <path d="M9.643,7.151L6.181,7.151C6.131,7.151 6.091,7.11 6.091,7.06C6.091,7.01 6.131,6.97 6.181,6.97L9.643,6.97C9.693,6.97 9.733,7.01 9.733,7.06C9.733,7.11 9.693,7.151 9.643,7.151" style="fill:rgb(205,210,220);fill-rule:nonzero;"/>
        <path d="M7.583,7.566L6.181,7.566C6.131,7.566 6.091,7.525 6.091,7.475C6.091,7.425 6.131,7.385 6.181,7.385L7.583,7.385C7.633,7.385 7.674,7.425 7.674,7.475C7.674,7.525 7.633,7.566 7.583,7.566" style="fill:rgb(205,210,220);fill-rule:nonzero;"/>
        <path d="M8.375,6.415L6.973,6.415C6.923,6.415 6.883,6.374 6.883,6.325C6.883,6.274 6.923,6.234 6.973,6.234L8.375,6.234C8.425,6.234 8.465,6.274 8.465,6.325C8.465,6.374 8.425,6.415 8.375,6.415" style="fill:rgb(24,128,56);fill-rule:nonzero;"/>
        <path d="M9.643,5.686L6.181,5.686C6.131,5.686 6.091,5.645 6.091,5.596C6.091,5.545 6.131,5.505 6.181,5.505L9.643,5.505C9.693,5.505 9.733,5.545 9.733,5.596C9.733,5.645 9.693,5.686 9.643,5.686" style="fill:rgb(25,103,210);fill-rule:nonzero;"/>
        <g opacity="0.2">
            <path d="M10.119,7.947L5.668,7.947C5.612,7.947 5.567,7.902 5.567,7.846L5.567,5.078C5.567,5.022 5.612,4.977 5.668,4.977C5.79,5.384 6.099,6.197 6.869,6.89C8.181,8.071 9.803,7.972 10.119,7.947" style="fill:rgb(205,210,220);fill-rule:nonzero;"/>
        </g>
        <path d="M6.45,6.474L6.192,6.474C6.159,6.474 6.132,6.447 6.132,6.413L6.132,6.235C6.132,6.202 6.159,6.175 6.192,6.175L6.45,6.175C6.483,6.175 6.51,6.202 6.51,6.235L6.51,6.413C6.51,6.447 6.483,6.474 6.45,6.474Z" style="fill:none;fill-rule:nonzero;stroke:rgb(24,128,56);stroke-width:0.1px;"/>
        <path d="M9.643,7.151L6.181,7.151C6.131,7.151 6.091,7.11 6.091,7.06C6.091,7.01 6.131,6.97 6.181,6.97L9.643,6.97C9.693,6.97 9.733,7.01 9.733,7.06C9.733,7.11 9.693,7.151 9.643,7.151" style="fill:rgb(205,210,220);fill-rule:nonzero;"/>
        <path d="M7.583,7.566L6.181,7.566C6.131,7.566 6.091,7.525 6.091,7.475C6.091,7.425 6.131,7.385 6.181,7.385L7.583,7.385C7.633,7.385 7.674,7.425 7.674,7.475C7.674,7.525 7.633,7.566 7.583,7.566" style="fill:rgb(205,210,220);fill-rule:nonzero;"/>
        <path d="M8.375,6.415L6.973,6.415C6.923,6.415 6.883,6.374 6.883,6.325C6.883,6.274 6.923,6.234 6.973,6.234L8.375,6.234C8.425,6.234 8.465,6.274 8.465,6.325C8.465,6.374 8.425,6.415 8.375,6.415" style="fill:rgb(24,128,56);fill-rule:nonzero;"/>
        <path d="M9.643,5.686L6.181,5.686C6.131,5.686 6.091,5.645 6.091,5.596C6.091,5.545 6.131,5.505 6.181,5.505L9.643,5.505C9.693,5.505 9.733,5.545 9.733,5.596C9.733,5.645 9.693,5.686 9.643,5.686" style="fill:rgb(25,103,210);fill-rule:nonzero;"/>
    </g>
</svg>
