<?xml version="1.0" encoding="utf-8"?>
<!-- Generator: Adobe Illustrator 24.1.0, SVG Export Plug-In . SVG Version: 6.00 Build 0)  -->
<svg version="1.1" id="Layer_3" xmlns="http://www.w3.org/2000/svg" xmlns:xlink="http://www.w3.org/1999/xlink" x="0px" y="0px"
	 viewBox="0 0 940.4 778.1" style="enable-background:new 0 0 940.4 778.1;" xml:space="preserve">
<style type="text/css">
	.st0{fill:#FFFFFF;}
	.st1{fill:#1E1926;}
	.st2{fill:#88EFD7;}
	.st3{fill:#2463F5;}
	.st4{fill:#F5B3A6;}
</style>
<g id="Macbook">
	<path class="st0" d="M224.3,660.2l491.6-1.4c12.9,0,23.3-10.5,23.3-23.4V310.8c0-12.9-10.5-23.4-23.4-23.4c0,0,0,0-0.1,0
		l-491.6,1.4c-12.9,0-23.3,10.5-23.3,23.4v324.6C200.9,649.7,211.3,660.2,224.3,660.2C224.3,660.2,224.3,660.2,224.3,660.2z"/>
	<path class="st1" d="M223.1,662.8h10.1l27.8-0.1l41.9-0.1l52.3-0.2l59.1-0.2l62.6-0.2l61.8-0.2l57.8-0.2l50.2-0.1l38.6-0.1
		l23.6-0.1h5.1c7.3,0,14.3-3,19.3-8.4c5.1-5.5,7.9-12.8,7.8-20.4V324.3c0-5.1,0.1-10.2,0-15.4c-0.2-13.3-10.9-24.1-24.2-24.2
		c-0.9,0-1.9,0-2.8,0l-19.7,0.1l-35.7,0.1l-47.8,0.1l-56.3,0.2l-61.2,0.2l-62.5,0.2l-60.4,0.2l-54.2,0.2l-44.6,0.1l-31.4,0.1
		c-4.8,0-9.6,0-14.4,0c-15.8,0.1-27,13.7-27,28.9c0,7.3,0,14.6,0,21.9v297.8c0,1.3,0,2.6,0,3.9C199,651.9,209.8,662.6,223.1,662.8
		c1.9,0,4.4-5.3,2.4-5.3c-12.5-0.1-22.6-10.2-22.7-22.7c0-1.7,0-3.3,0-5V332.6c0-7.1,0-14.1,0-21.2c0-7.5,3.5-14.1,10.3-17.5
		c3.5-1.7,7.4-2.5,11.3-2.3h17.1l32.9-0.1l45.6-0.1l54.6-0.2l60.1-0.2l62-0.2l60.4-0.2l55.3-0.2l46.6-0.1l34.4-0.1l18.8-0.1
		c1.3,0,2.6,0,3.9,0c11.9,0.9,21.1,10.8,21.1,22.7c0.1,5.8,0,11.6,0,17.3v299c0,2.4,0,4.8,0,7.2c0,8-4.1,14.9-11.7,18
		c-5.2,2.2-11,1.7-16.5,1.7l-25.7,0.1l-40,0.1l-50.7,0.2l-57.9,0.2l-61.5,0.2l-61.6,0.2l-58,0.2l-51.5,0.2l-40.6,0.1l-26.8,0.1h-9.2
		C223.6,657.6,221.1,662.9,223.1,662.8z"/>
	<path class="st1" d="M495,513.6h-5.1h-12.2h-14.8h-12.8c-2.1,0-4.2-0.1-6.2,0h-0.1c-1.3,0-2.3,1.6-2.8,2.6
		c-0.3,0.6-0.9,2.7,0.4,2.7h5.1h12.2h14.8h12.8c2.1,0,4.2,0.1,6.2,0h0.1c1.3,0,2.3-1.6,2.8-2.6C495.6,515.8,496.3,513.6,495,513.6
		L495,513.6z"/>
	<path class="st1" d="M371.4,624.5v23.2c0,0.4,0.3,0.8,0.8,0.8h3.3h8.9h13.2h16h17.6l17.8,0h16.6h14h10.1c1.6,0,3.2,0,4.8,0h0.2
		c1.3,0,2.3-1.6,2.8-2.6c0.3-0.6,0.9-2.7-0.4-2.7h-3.3h-8.9h-13.2h-16H438h-17.8h-16.6h-14h-10.1c-1.6,0-3.2-0.1-4.8,0h-0.2l0.8,0.8
		v-23.2c0-0.4-0.3-0.8-0.8-0.8c-0.6,0.1-1.1,0.3-1.5,0.7C372.1,621.7,371.5,623,371.4,624.5L371.4,624.5z"/>
	<path class="st1" d="M778.6,0.3c-3.5-0.3-6.9-0.3-10.4-0.2l-21.6,0.1L669,0.3L560.6,0.5l-121,0.2L322.3,0.9l-95.1,0.2l-55.4,0.1
		h-7.3c-0.1,0-0.2,0-0.3,0.1c-11.8,0.4-23.9,10.3-21.6,23.1c0.3,1.7,0.7,3.5,1.1,5.2l7,33l23.8,112.4l18.5,87.3
		c0.4,1.9,0.8,3.8,1.2,5.8c2.6,11.6,12.3,19.5,23.5,22.3c5.8,1.5,11.7,1.2,17.6,1.2l65.1-0.2l106.8-0.2l121.7-0.3l107.9-0.2l66-0.2
		c4.7,0,9.6,0.2,14.3-0.5c13-2,25.1-11,28.5-24c0.5-1.9,0.8-3.9,1.3-5.9l17.8-84.4l23.8-112.8l7.3-34.7c0.4-2,0.9-4,1.3-6
		C799.2,10.5,789.6,1.6,778.6,0.3z"/>
	<path class="st0" d="M166,23.5l608.5-1.1l-52.3,245.3l-503.5,1.1c-0.3,0-0.6-0.2-0.7-0.5L166,23.5z"/>
	<path class="st1" d="M669.1,282.2l-1,24.1H275.5l-4.2-28.3"/>
	<path class="st1" d="M667.1,283.4l-1,24.1l3.2-3.9H282.6c-1.7-0.1-3.5-0.1-5.2,0c-0.2,0-0.4,0-0.7,0l0.8,0.8l-4.2-28.3
		c-0.2-1.3-1.5-0.7-2.2-0.1c-1.1,0.9-1.8,2.3-1.8,3.7l4.2,28.3c0.1,0.4,0.3,0.8,0.8,0.8h376.6c5.1,0,10.2,0.1,15.3,0h0.7
		c1.6,0,3.1-2.5,3.2-3.9l1-24.1c0-1.2-0.6-1.7-1.7-1C668.1,280.7,667.3,282,667.1,283.4L667.1,283.4z"/>
	<path class="st1" d="M698.2,334.1c-4.5,0-8.9,0-13.3,0H248.1c-3.1,0-5.9,4-7,6.5c-0.7,1.5-2.3,6.7,0.9,6.7c4.5,0,8.9,0,13.3,0
		h436.9c3.2,0,5.9-4,7-6.5C699.9,339.3,701.6,334.1,698.2,334.1L698.2,334.1z"/>
	<path class="st1" d="M698.2,472.5c-4.5,0-8.9,0-13.3,0h-417h-18.6h-1.2c-3.1,0-5.9,4-7,6.5c-0.7,1.5-2.3,6.7,0.9,6.7
		c4.5,0,8.9,0,13.3,0h379.7h37.3h19.8c3.2,0,5.9-4,7-6.5C699.9,477.7,701.6,472.5,698.2,472.5L698.2,472.5z"/>
	<path class="st1" d="M698.2,437.9c-4.5,0-8.9,0-13.3,0H356.4h-51.2h-57.1c-3.1,0-5.9,4-7,6.5c-0.7,1.5-2.3,6.7,0.9,6.7
		c4.5,0,8.9,0,13.3,0h436.9c3.2,0,5.9-4,7-6.5C699.9,443.1,701.6,437.9,698.2,437.9L698.2,437.9z"/>
	<path class="st1" d="M698.2,403.3c-4.5,0-8.9,0-13.3,0h-140h-63.7H248.1c-3.1,0-5.9,4-7,6.5c-0.7,1.5-2.3,6.7,0.9,6.7
		c4.5,0,8.9,0,13.3,0h436.9c3.2,0,5.9-4,7-6.5C699.9,408.5,701.6,403.3,698.2,403.3L698.2,403.3z"/>
	<path class="st1" d="M698.2,368.6c-4.5,0-8.9,0-13.3,0h-33.2h-48.3H248.1c-3.1,0-5.9,4-7,6.5c-0.7,1.5-2.3,6.7,0.9,6.7
		c4.5,0,8.9,0,13.3,0h436.9c3.2,0,5.9-4,7-6.5C699.9,373.9,701.6,368.7,698.2,368.6L698.2,368.6z"/>
	<path class="st2" d="M687.3,218.1c11.1-44.4,20.8-89,29.3-134h-243l-1.3,135.7L687.3,218.1z"/>
	<path class="st2" d="M690.1,217.1c4.3-17.3,8.5-34.7,12.4-52.2c4-17.6,7.7-35.3,11.3-53c2-9.9,3.9-19.8,5.8-29.8
		c0.2-0.8-0.1-2.1-1.1-2.1H485.2c-3.2,0-6.3-0.1-9.5,0h-0.4c-1.4,0-2.6,1.4-3.3,2.4c-1,1.2-1.5,2.8-1.5,4.3l-0.1,13.5l-0.3,32.5
		l-0.4,39.2l-0.3,33.9l-0.1,11.3c0,1.7-0.2,3.5,0,5.3v0.2c0,0.6,0.5,1.2,1.1,1.2l5.8,0l15.7-0.1l23.2-0.2l28.3-0.2l30.9-0.3
		l31.2-0.2l29.1-0.2l24.5-0.2l17.7-0.2c2.8,0,5.6,0,8.4-0.1h0.4c1.9,0,3.5-2.4,4.2-3.9c0.4-0.9,1.4-4.1-0.5-4h-5.8l-15.7,0.1
		l-23.2,0.2l-28.2,0.2l-30.9,0.2l-31.2,0.3l-29.1,0.2l-24.5,0.2l-17.7,0.1c-2.8,0-5.7-0.2-8.4,0.1h-0.4l1.2,1.2l0.1-13.5l0.3-32.5
		l0.4-39.2l0.3-33.8c0.1-5.5,0.2-11,0.2-16.5c0-0.1,0-0.1,0-0.2l-4.8,6.7h233.2c3.1,0,6.3,0.2,9.5,0c0.1,0,0.3,0,0.4,0l-1.1-2.1
		c-3.3,17.5-6.8,35-10.4,52.4c-3.6,17.1-7.5,34.3-11.5,51.4c-2.3,9.8-4.7,19.5-7.1,29.2c-0.3,1.3-0.3,3.5,1.6,2.9
		S689.6,218.9,690.1,217.1z"/>
	<path class="st1" d="M471.5,139.2c-0.2-1.3,0.3-1.2,0.6-1.6c0.1,0.5,0.2,1,0,1.5l0.3-0.1c0-0.3,0-0.6,0.2-0.9l0.1,1
		c0.4-0.2,0.6-1.4,1.3-0.9c-0.2-0.9-1-2.3-0.6-3.1c0.2,0.5,0.3,1,0.2,1.5c0-0.1,0.1-0.5,0.2-0.3v0.9c0.3,0.3,0-0.7,0.2-0.7
		c0.2,0.7,0.3,0.4,0.4,1c0,0.1-0.2-0.2-0.2,0.1c0.4,0.1,0.7,0.4,0.8,0.8c-0.1-0.4-0.2-0.9-0.1-1c0.4-0.2,0.4,0.8,0.7,1
		c0-0.5,0.4-0.1,0.1-1.1c0.1,0,0.3,0.4,0.4,0.7c0.1-0.5,1-0.5,0.5-1.5l-0.1,0c0,0,0,0,0-0.1c0.4-1.2,1.6,0,2.2-0.8l0.1,0.3
		c0.3-0.5,0.9-0.6,0.9-1.5c0.1,0,0.5,0.5,0.5,0.9c0.2-0.4,0.2-0.8,0.8-0.4c-0.1,0.7,0.3,0.5-0.2,0.6c0.5,0.1,0.8,0.6,0.9-0.5
		c0.1,0.9,0.7,0.9,0.8,0.5l-0.5-0.5c0.2-0.2,0.4-0.3,0.6-0.3l0.3,1.1c1.3,0.9,0.7-3,2.2-1.1c-0.1-0.9-0.7-0.3-0.8-1.3
		c0.4,0,1.4,1.3,1.5,1.2c0.8,0.3-0.1-1.8,0.6-1.7c-0.4-0.6-0.5-1.2-0.4-1.9c0.4-0.1,1.1,1.3,1,1.8c-0.1,0.1-0.2,0-0.2-0.1
		c-0.1,0.3-0.1,0.6,0.2,0.8l-0.1-0.4c0.3,0.3,0.9,0,1,0.6c0.1-0.5-0.1-0.7-0.4-0.8c0.7,0.3,0.8-0.4,1.4-0.3
		c-0.2-0.2-0.4-0.5-0.3-0.6c0.9,0,0-0.9,0.4-1.4c0.5,0.4,0.5,1.4,0.8,0.6c0.5,0.2,0.5,1,0.5,1.3c0.1-1,1.1,0,1.4-0.1l-0.1,0.5
		c0-0.2,0.1-0.3,0.3-0.4l-0.5-0.7c0.2,0,0.3,0,0.5,0.3c-0.1-0.6-0.7-1.2-0.7-2c0.4,0.3,0.4-0.8,0.9,0.2c-0.7,0,0.5,1,0.1,1.4
		c0-0.2,0.2-0.2,0.4-0.2c0.1,0.1,0.1,0.2,0.1,0.3c1,0.5-0.3-1.3,0.3-1.6c0.2,0.6,0.6,1,0.7,0.8c-0.2,0.1-0.5-0.8-0.5-1.4
		c0.6,0.2,0.2-0.6,0.5-0.7l-0.3,0c-0.2-0.6,0-0.6,0.2-1c0.2,0.4-0.1,0.5,0.1,0.6c-0.2-1.1,1.1,0.6,1.2-0.4c0.4,0.2,0.5,1,0.8,1.1
		c0.1-1,0.9,0.4,1-0.5c-0.5-0.6-0.4-0.4-0.5-1.4l-0.5,1.1l-0.1-1.4c-0.2,0.2-0.2,0.8-0.4,0.8c-0.1-0.8,0-0.6-0.4-1.1
		c0.9,0.9,0.3-1.1,1-0.6l0.9,1.8c1,0.4,0.5-1.6,1.4-1.7l-0.4-0.1c-0.3-0.8,0.4-0.4,0.4-0.9c0.2,0.4,0.5,0.7,0.9,1
		c-0.2-0.4,0.5-0.4-0.1-1.6l0.7,0.5c0.7-0.1-0.4-2.1,0.3-2.4c0.2,0.8,0.7,1,0.6,1.7c0.2-0.1,0.4-0.2,0.2-0.6c0.3,0.3,0-1.2,0.5-0.8
		c-0.1-0.3-0.4-0.9-0.2-1c0.1,0.1,0.1,0.2,0.2,0.3c-0.2-0.3,0-0.6-0.5-1.1c1.6,1.3,1.3-1.4,2.7-0.4c0.2-0.5,0.5-1,0.9-1.4
		c0.1,0.2,0.2,0.3,0.1,0.3c0.8,0.1-0.8-1.8,0.1-1.8c0.9,0.6,0.1,0.7,0.5,0.9c1.3,1.7,0.4-0.9,1.5-0.2v0.2c0.7,0.3,0.1-1.3,0.7-1.6
		c0.1,0.1,0.1,0.2,0.2,0.3c-0.3-0.9-0.2-1.8,0.1-2.7c0.4,0.8,0.1,0.5,0.7,1.1c0.1-0.3-0.9-1-0.7-1.6c0.6,0.2,1.1,0.6,1.5,1l-0.3,0.4
		c0.9,0.7,0.4-0.5,0.7-0.5l0.3,0.4c0.4-0.7-0.4-1.7,0.2-2.2l-0.3-0.2c-0.5-1.3,0.7,0.3,0.4-0.8l0.9,0.9c-0.1-0.8-0.1-1.5,0-2.3
		c0.3,0.8,0.5,1.7,0.5,2.5c0.4-0.4,0.5-1,0.2-1.4c0,0.2,0.1,0.5-0.1,0.5c-0.4-1-0.5-1.8-0.1-2.2c1.6,1.9,1.4-0.7,2.9,0.4
		c0-1.5,1.5-1.4,2.1-2.5c-1.6-1,0.2-0.3-1.3-1.6c0.1-0.3,0.2-0.4,0.2-0.3l0,0l1.3,0.1c0.5,0.2,0.2,0.5,0.5,0.8
		c0.5-0.4,0.8,0.4,1.4,0.4c-0.6-0.4-0.6-0.9-0.2-1l-1-0.2c-0.3-1.4,1.6,0.5,1.4-0.9l0.3,0.6c0-0.6,1-1.4,0-2.8
		c0.2,0.1,0.7,0.3,0.7,0.6c0.8-0.8,0-3.1,1.2-3.2l0.3,0.4c0-0.3-0.5-0.9,0-0.8c0.2,0.1,0.3,0.4,0.4,0.3c-0.1-0.2-0.4-1,0-1.1
		l0.3,0.5c1-0.6-0.2-2.2-0.1-3.2c0.6,0.6,1.6,0.6,2.3,0.1l0.2,0.1c0.7-1,0-2.6,0.1-3.9c1.6,0.2,1.5-1.9,2.7-2.5
		c-0.3,0-0.9-0.6-0.9-0.9c0.3-0.1-0.5-1.2,0.5-0.5l-0.1,0.1c1.1,0.5,1.1-0.2,1.3-0.6l-1.4-0.9c2.5,0.1,0.3-3.2,2.5-2.8
		c-0.3-0.5-0.1-0.8-0.4-1.2l0.8,0.4c0.5-0.6,0.8-1.3,0.8-2l0.5,0.5c0.1-0.2-0.4-0.7-0.9-1.1h-7c0.1,0.1,0.2,0.2,0.2,0.4l-0.7-0.4
		h-0.1l0.7,0.8l-1.1-0.3l0.1,0.4c0.1-0.1,0.5,0,0.7,0.1c0.2,0.7-1,0.8-1.5,0.5l0.3,1.5c-0.2-0.1-0.3-0.3-0.4-0.5
		c0.3,0.7-1-0.5-0.4,0.4c0.2,0,0.5,0.3,0.6,0.4c-0.6,0-0.9,0.5-0.8,1.1l-0.5-0.4c-0.5,0.7-0.5,1.8-0.8,2.6c0.4-0.1,1.3,0.6,1.3,0.9
		l-0.9-0.5c0.5,0.5,0.4,0,0.9,0.7c-0.3,0.2-1.1-0.4-1.3-0.8l0.1,0.6c-0.3-0.1-0.4-0.3-0.7-0.6c0.5,0.5-1.2,0.1-0.4,0.9l-0.3-0.1
		c-0.2,0.7-0.5,1.4-0.6,2.1c0.7,0.5,0.4,0.7,0.9,1.3c-0.5,0.3-1.4,0.5-1.6,1.1c0.1,0.7,0.5,0.6,0.8,1.1c-0.7-0.5-0.9,0.2-1.2-0.5
		c-0.3,0.7-0.4,1.5-0.4,2.3c0.3,0.1,0.5,0.1,0.7,0.3c0,0.2-0.5,0.1-0.8-0.1V97c0.3,1.8-3.2,0.7-2.4,2.6v-0.1l0.1,1.4
		c-0.3,0.3-0.3-0.6-0.9-0.7c0.4,1.8-1,1.2-0.8,2.5c-2.1-1.2-1.2,1.9-2.8,1.5l0.4,0.4c0.3,0.6-0.4,0-0.6,0c0.3,0.3,0.5,0.2,0.6,0.5
		c-0.3,0.9-1,1.7-1.9,2.1c-0.9,0.5-1.8,0.8-2.6,1.3c-0.5,0.4,1.7,2.6,0.2,2.2l-0.5-1c0,0.8-0.4,1.5-1,2c-0.6,0.4-1,1.1-1.2,1.9
		c-0.1-0.3-0.3-0.5-0.2-0.6c-0.7-0.5-0.8,0.7-0.4,1.2c-0.2,0.1-0.4-0.4-0.7-0.6c-0.5-0.2,0.1,1.4-0.5,0.8c-0.1-0.1-0.1-0.2-0.1-0.4
		c0.1,0.4-0.7,0.5,0,1.1c-0.6,0-0.5,1-1.1,0.8c0.4,1-0.9,0.2-0.2,1.5c-0.8-1.3-1.3-0.4-1.2,0.4c-0.2-0.5-0.5-0.2-0.7-0.9
		c-0.3,0.2-0.4,0.7,0.1,1.3c-1.5-1.1-0.3,2.1-1.8,0.4c-0.3,1.2-0.8,2.3-1.5,3.4c-0.7-1.4,0.8-0.8,0-2.2c-0.4,1.1-0.2,2.6-1.1,2.8
		c-0.3,0-0.2-0.7-0.3-1c-0.4,1.1-1.5,0.9-1.8,2.1c0-0.2,0-0.3,0-0.5c-0.1,0.1-0.4,0-0.1,0.6v-0.3c0.7,0.8,0.4,2.3,0.6,2.8
		c-0.6-2-0.9,0-1.6-2.5c0,0.3,0,0.7,0.2,1c-0.2,0-0.3-0.3-0.4-0.8c-0.3,0.7,0.2,1.2-0.3,1.5c-0.1-0.3-0.2-0.6-0.2-0.9
		c0.1,0.7,0.1,1.5-0.4,1.5c-0.1-0.2-0.2-0.4-0.1-0.5c-0.6,0.5-0.4,2.3-1.3,2.1c-0.4-1.5-0.4-0.3-1-1.5l-0.2,0.6l0.4,0.5
		c-0.3,0.2-0.3,1.2-0.8,1v-0.6l-0.5,0.6l0.5,0.3c-0.1,0.8,0.7,1.5,0,1.4c0-0.2-0.3,0.2-0.8-0.4l0,0c0,0.5,0,1-0.4,0.8
		c-0.2-0.4-0.5-1.4-0.6-1.6c0.2,1.1-0.7,0.7-0.5,1.9c-0.1-0.3-0.2-0.7-0.3-1l0.2,0.9c-0.3-0.2-0.3-0.3-0.5-0.8
		c-0.5,0.1,0.7,1.5-0.1,1.1c0-0.1,0-0.2,0-0.4c-0.7-0.1-0.9,1.1-1.6,0.9c-0.6-1.2,0.4-0.5-0.2-1.5c-0.7,0.6-1.1,2.2-2,2.3l0.2,0.1
		c0.4,1.8-0.8-0.6-1,0.4c0-0.3-0.1-0.6-0.1-0.8c-0.6-0.1-0.9,0.9-1.5,1.8v-0.5c-0.4-0.3-0.9,0.1-1.3,0c0,0.5-0.2,0.5,0.1,1.1
		c-1.7-2.3-1.6,2.2-3.1,0.2c0.1,0,0.2-0.5,0.1-0.5l-0.7,0.7c0.2,0.8,0.2,0.4,0.5,1c0,0.5-0.1,0.9-0.3,1c0.1-0.4,0-0.9-0.3-1.3
		C471.4,136.7,471.4,137.9,471.5,139.2L471.5,139.2L471.5,139.2z"/>
	<path class="st1" d="M471.5,217.5c0-0.9-0.7-0.4-0.2-1.2c0.6,1.7,0.7-0.6,1.5,0.1c0,1-0.6,0.7,0.2,1.3c0-1.7,1.2,0,1.6-0.5
		c-0.3-1.2,0.9-0.9,1.6-1.5c0.1,0.5,1.7,0.1,2.5,0.3v0.2c-0.2-1.3,0.6-1.4,1.1-1.8c0.2,0.5,0.2,1,0,1.5l0.5-0.2c0-0.4,0.1-0.8,0.4-1
		l0.1,1c0.7-0.3,1.1-1.6,2.2-1.4c-0.2-0.9-1.4-2.1-0.7-3c0.2,0.4,0.5,1.2,0.3,1.5c0.1-0.1,0.2-0.5,0.4-0.4l-0.1,0.9
		c0.5,0.2,0-0.7,0.3-0.8c0.2,0.7,0.4,0.4,0.5,0.9c-0.1,0.1-0.4-0.2-0.4,0.2c0.5,0,1,0.2,1.3,0.6c-0.2-0.4-0.3-0.9,0-1.1
		c0.7-0.3,0.5,0.7,1,0.8c0-0.5,0.6-0.2,0.3-1.2c0.2-0.1,0.4,0.4,0.5,0.6c0.2-0.6,1.6-0.9,0.9-1.7h-0.1c0,0,0,0,0-0.1
		c0.8-1.5,2.6-0.6,3.6-1.6l0.1,0.3c0.5-0.7,1.4-1,1.7-1.9c0.2-0.1,0.7,0.3,0.8,0.8c0.4-0.5,0.3-0.9,1.3-0.8
		c-0.3,0.8,0.4,0.4-0.4,0.7c0.8-0.1,1.1,0.3,1.5-0.9c0.1,1,0.9,0.8,1.1,0.3l-0.7-0.3c0.3-0.3,0.6-0.4,1-0.5l0.2,1.2
		c1.9,0.5,1.6-3.6,3.5-2c0-1-1-0.1-1-1.1c0.7-0.2,2,0.9,2.2,0.8c1.1,0,0.1-2,1.2-2.2c-0.5-0.5-0.7-1.3-0.3-2
		c0.7-0.2,1.5,1.1,1.2,1.6c-0.1,0.1-0.3,0-0.3-0.1c-0.1,0.3-0.3,0.6,0.1,0.8l-0.1-0.4c0.5,0.2,1.3-0.4,1.4,0.4
		c0.3-0.7-0.1-0.7-0.5-0.7c1,0,1.2-0.7,2.2-0.9c-0.2-0.1-0.5-0.5-0.4-0.5c1.4-0.3,0.2-1,0.9-1.7c0.7,0.2,0.5,1.4,1,0.4
		c0.7,0,0.6,0.9,0.5,1.3c0.4-1.2,1.6-0.5,2.1-0.6l-0.2,0.6c0.1-0.2,0.3-0.5,0.5-0.6l-0.6-0.6c0.3,0,0.5-0.2,0.6,0.2
		c0-0.6-0.8-1.1-0.7-2c0.5,0.2,0.7-1,1.3-0.2c-1.1,0.3,0.6,0.9-0.1,1.6c0.1-0.2,0.3-0.4,0.6-0.4c0.1,0.1,0.1,0.2,0,0.3
		c1.3,0.2-0.2-1.4,0.8-2c0.2,0.6,0.8,0.8,0.8,0.6c-0.4,0.3-0.7-0.8-0.5-1.4c0.8,0,0.5-0.8,0.8-1l-0.5,0.1c-0.2-0.6,0.2-0.8,0.5-1.2
		c0.1,0.1,0.1,0.2,0.1,0.3c0.2-0.7,1.5,0.4,1.8-0.6c0.5,0.1,0.6,1,1,1c0.3-1.2,1.2,0.1,1.6-1c-0.6-0.5-0.5-0.3-0.4-1.4l-0.9,1.5
		l0.2-1.7c-0.4,0.3-0.5,1.1-0.8,1.1c0-0.9,0.1-0.7-0.4-1.1c1.1,0.7,0.6-1.4,1.6-1.2l1,1.7c1.3,0.1,1-2.1,2.3-2.6h-0.5
		c-0.3-0.8,0.6-0.7,0.8-1.2c0.3,0.6,0.7,0.6,1,0.8c-0.3-0.4,0.8-0.7,0.2-1.9l0.9,0.3c1.1-0.5,0-2.5,0.9-3c0.1,0.8,0.8,0.9,0.5,1.8
		c0.3-0.2,0.6-0.4,0.3-0.8c0.4,0.2,0.3-1.4,0.9-1.1c0-0.3-0.4-1,0-1.2c0.1,0.1,0.1,0.2,0.2,0.3c-0.2-0.3,0.2-0.8-0.4-1.2
		c2,0.9,2.2-2.4,3.9-1.6c0.4-0.8,1-1.5,1.5-2.2c0.1,0.2,0.2,0.3,0,0.3c1.1-0.2-0.7-2,0.5-2.3c1,0.4-0.1,0.9,0.4,1
		c1.4,1.6,0.8-1.3,2.1-0.8l-0.1,0.2c0.9,0.1,0.5-1.7,1.3-2.3c0,0.1,0.1,0.2,0.2,0.3c-0.1-1.2,0.2-2.5,0.8-3.5c0.3,0.9,0,0.7,0.7,1.2
		c0.2-0.4-0.9-1-0.5-1.8c0.5,0.1,1.1,0,1.8,0.6l-0.5,0.7c1,0.6,0.7-0.8,1.1-1l0.3,0.4c0.7-1.1-0.1-2.1,0.8-3l-0.3-0.2
		c-0.4-1.5,0.9,0.1,0.7-1.2l1,0.8c0.1-1.1,0.3-2.1,0.6-3.1c0.2,1,0.2,2.1,0,3.2c0.3-0.4,0.9-1.3,0.7-2c0,0.2,0,0.7-0.2,0.7
		c-0.3-1-0.2-2.1,0.4-2.9c1.6,2,2-1.5,3.7-0.7c0.4-2,2.3-2.5,3.3-4.2c-1.8-0.8,0.3-0.5-1.2-1.8c0.2-0.5,0.3-0.6,0.4-0.5h-0.1h0.1
		l0,0l1.6-0.4c0.6,0.1,0.1,0.7,0.4,0.9c0.7-0.8,0.8,0.2,1.6,0c-0.4-0.2-0.5-0.6-0.3-0.9c0.1-0.2,0.2-0.3,0.3-0.3l-1.1,0.1
		c0-1.9,1.9,0.1,1.9-1.8l0.2,0.8c0.1-0.8,1.5-2.3,0.7-4c0.2,0,0.7,0.2,0.7,0.6c1.1-1.4,0.8-4.5,2.2-5l0.3,0.4c0.1-0.4-0.4-1,0.2-1.1
		c0.2,0.1,0.3,0.4,0.4,0.3s-0.2-1.3,0.2-1.5l0.2,0.7c1.3-1.1,0.3-3.1,0.7-4.6c1.1,0.9,2.2-0.1,2.6-0.6l0.2,0.1
		c1.1-1.7,0.6-3.8,1-5.8c1.8-0.2,2.2-3.2,3.7-4.5c-0.3,0.1-0.9-0.6-0.9-1c0.4-0.3-0.3-1.6,0.7-0.9l-0.1,0.1c1.2,0.4,1.3-0.6,1.6-1.3
		l-1.4-1c2.8-0.5,1.1-5,3.4-4.9c-0.2-0.6,0-1.1-0.2-1.8l0.8,0.4c0.6-1,1.1-2,1.3-3.2l0.4,0.6c0.4-0.8-1.9-2.2-1.6-3l1.3,0.4
		c0.5-1.4,2-2.4,1.4-4.4c0.2,0.1,0.5,0.3,0.5,0.6c0.3-0.7,1.7-2.3,0-2.8c1.1,0.5,0.6-1.5,0.4-2.5l0.8,0.5c-0.8-1.1-1.1-1.2-1.1-2.3
		c0.1-0.1,0.5,0,0.5,0.2c0.4-0.5-0.6-0.8,0-1.5l0.4,0.5c0.3-0.7,0-0.8-0.5-1.4c-0.2-0.6,0.6-1.4,1.4-1.2c-0.4-0.3-0.9-0.9-0.5-1.3
		c0.2,0,0.4,0.2,0.5,0.4c0.9-1.1-0.4-2.3,0.6-2.9c0.2,0.1,0.3,0.1,0.5,0c-0.1,0.6-0.3,1.2-0.6,1.7c0.7,0.3,1.1-0.5,1.9,0.5
		c-0.4-0.9-1.3-2.5-0.8-3.1c0.1,0,0.2,0,0.3,0l0.1,0.1c0.1-0.2,0.1-0.4,0-0.6c0.2-0.2,0.3-0.4,0.4-0.6c0.6,0.1,0.6-0.8,0.7-1.2
		c-0.8-0.2-0.6-0.7-1.3-0.5c0.1,0,0.1,0.1,0,0.4c0,0.1,0,0.1,0,0.2l-0.1,0c0,0.3-0.1,0.6-0.2,1c-0.3-0.5-0.6-0.9,0-1.2
		c-0.5-0.4-0.9-0.8-1.2-1c1.3-0.2,2.2-1.1,2.9-1c-0.2-1.4,0.3-3.1-1-4.4c-0.1-0.4,0.5-0.3,0.8-0.4c0.1,0.3,0,0.5,0.2,0.7
		c-0.2-0.8,0.3-2.2-0.7-2.7c0.7-0.8,0.9,0.8,1-0.5l0.3,0.3c1.5-1.4,0-3-0.2-4.7h-4.2c0,0,0,0.1,0.1,0.1c-0.1,0-0.2,0-0.3,0
		c0.5,0,1,0.1,1.5,0.2c0,0.4,0.5,0.9-0.2,0.9c0.1-0.2-0.2-0.3-0.4-0.5l0.2,0.5c-1.1,0.1-0.2-0.7-1-0.9c0.2,0.9,0.9,2,0.5,2.6
		c-1-0.1-0.1-1.5-1.1-0.9l0.5-0.9c-1.7,0.3,0.2-0.5-1.6-0.3c-0.5,1.2,0.3,1.5-0.3,2.7c0.5,0.4,0.8,0.1,1.3,0.6
		c0.6,2-2.8,0.7-1.7,2.3c0.6,0.5,1.8,1,1,1.8l-1-0.6c-0.4,1.1,1.5,1.2,0.4,2.2c-0.4-0.4-0.2-1.1-0.3-0.9c-1.1,0.5,0.5,0.8,0.4,1.4
		l-1-0.2c-0.2,1.3,0.2,2.9,0,4.4c-0.3-0.2-0.5-0.5-0.9-0.3c0,1-0.2,1.9-0.6,2.8c-0.4,0.8-0.9,1.6-1.5,2.4l0.7,1
		c0,0.1-0.5,0.1-0.6-0.1c-0.5,0.5,0.5,0.2,0.8,0.7c0,0.4-0.6,0.3-0.8,0c0.4,1.4,0.6,3.9-0.7,4.7l-0.2-0.3c-0.6,0.8,1.3,1.8,0.3,2.3
		l-0.1-0.2c-1,1.9-1,4.5-2.8,5.4c1.1,0.9-1.2,1.7,0.3,2.7c-1.2,0.7-1.4,0.2-2.5,1.5c-0.2,0.4,0.8,1.2,0.7,1.8l-0.8-0.5l0.5,1
		l-1.2-0.2v0.6c0.2-0.2,0.5-0.2,0.8,0c0.1,1-1.3,1.5-1.8,1.3v2.2c-0.2-0.2-0.3-0.4-0.3-0.7c0.2,1-1-0.5-0.6,0.7
		c0.2,0,0.5,0.4,0.6,0.5c-0.7,0.1-1.1,1.1-1.3,1.9l-0.5-0.5c-0.7,1.2-1,2.9-1.7,4.3c0.5-0.4,1.4,0.4,1.3,0.9l-0.9-0.4
		c0.4,0.6,0.5-0.2,0.9,0.8c-0.4,0.5-1.2-0.3-1.3-0.8v0.8c-0.3-0.1-0.3-0.4-0.6-0.6c0.4,0.6-1.4,0.5-0.7,1.5l-0.3-0.1
		c-0.7,1.4-0.8,2.2-1.3,3.4c0.7,0.5,0.3,0.9,0.7,1.6c-0.7,0.7-1.8,1.2-2.2,2.2c0,1,0.5,0.7,0.7,1.3c-0.7-0.4-1.2,0.6-1.3-0.3
		c-0.5,1.1-0.9,2.3-1.1,3.5c0.4,0,0.6,0,0.7,0.2c-0.1,0.4-0.6,0.4-0.9,0.1v-0.1c-0.1,2.5-4.1,2.3-3.6,4.7v-0.1l-0.2,1.9
		c-0.5,0.5-0.2-0.8-0.9-0.7c0.1,2.4-1.6,2.1-1.7,3.9c-2.3-0.8-2.1,3.2-4.1,3.3l0.5,0.3c0.2,0.7-0.5,0.1-0.8,0.3
		c0.3,0.3,0.6,0,0.7,0.5c-0.7,1.5-1.8,2.7-3.1,3.7l-3.9,2.9c-0.9,0.8,1.5,2.8-0.3,2.9l-0.4-1.2c-0.4,1.2-1.1,2.3-2,3.2
		c-0.9,0.8-1.7,1.8-2.2,3c-0.1-0.3-0.2-0.6-0.1-0.7c-0.8-0.3-1.2,1.3-0.9,1.8c-0.3,0.2-0.4-0.4-0.8-0.5c-0.6,0-0.2,1.7-0.9,1.2
		c-0.1-0.1,0-0.3,0-0.4c0,0.5-1.1,1-0.3,1.5c-0.9,0.2-1,1.5-1.8,1.5c0.3,1.2-1.3,0.6-0.6,1.9c-0.8-1.3-1.8,0.1-1.8,1
		c-0.1-0.5-0.6-0.1-0.8-0.8c-0.5,0.3-0.6,1-0.3,1.5c0,0,0,0.1,0.1,0.1c-1.8-0.8-0.9,2.8-2.7,1.2c-0.8,1.7-1.9,3.3-3.1,4.8
		c-0.7-1.3,1.3-1.3,0.5-2.6c-0.9,1.5-0.9,3.2-2.3,3.9c-0.4,0.1-0.2-0.7-0.2-1c-0.9,1.5-2.4,1.7-3.1,3.3c-0.1-0.2-0.1-0.4,0-0.5
		c-0.2,0.2-0.6,0.2-0.3,0.8l0.1-0.3c0.8,0.6,0.1,2.5,0.3,3c-0.6-2-1.3,0.4-1.9-2.3c-0.1,0.3,0,0.7,0.1,1c-0.3,0-0.5-0.2-0.5-0.8
		c-0.6,0.9,0,1.4-0.7,1.9c-0.2-0.3-0.1-0.5-0.2-0.9c-0.1,0.8-0.1,1.7-0.9,1.8c0-0.2-0.2-0.4-0.1-0.5c-1,0.8-1,2.8-2.5,3
		c-0.3-1.6-0.6-0.2-1.2-1.3c-0.2,0.3-0.3,0.5-0.5,0.8l0.5,0.4c-0.6,0.3-0.7,1.5-1.3,1.4l0.2-0.7l-1,0.9l0.8,0.1
		c-0.3,1,0.7,1.4-0.2,1.6c0.1-0.2-0.6,0.3-1.2-0.2l0,0c-0.1,0.5-0.2,1.1-0.8,1.1c-0.3-0.3-0.5-1.4-0.7-1.6c0.2,1.1-1.2,1.1-1.1,2.3
		c0-0.4-0.2-0.7-0.3-1l0.1,0.9c-0.4-0.1-0.5-0.2-0.6-0.7c-0.9,0.3,0.9,1.4-0.3,1.2c0-0.1,0-0.2,0.1-0.4c-1.1,0.2-1.6,1.5-2.7,1.6
		c-0.7-1.1,0.6-0.7-0.1-1.6c-0.6,0.6-1.1,1.2-1.6,1.8c-0.4,0.6-1.1,1.1-1.8,1.4h0.3c0.5,1.8-1.2-0.4-1.6,0.7
		c0.1-0.2-0.2-1.1-0.1-0.8c-1,0.1-1.6,1.3-2.7,2.5v-0.5c-0.6-0.2-1.4,0.4-2,0.4c0,0.5-0.4,0.6,0,1.2c-2.5-1.8-2.8,2.9-5,1.3
		c0.2-0.1,0.3-0.6,0.2-0.5l-1.2,0.9c0.3,0.7,0.3,0.4,0.8,0.9c0,0.5-0.2,0.9-0.6,1.2c0.4-0.7-0.4-1.2-0.7-1.6
		c0.1,0.2,0.1,0.5,0.2,0.8c-1.1-1.1,0.3,1.6-0.9,1l-0.1-0.4c-0.3,0.3-0.5,1-0.9,1c-0.4-0.8,0.3-0.6,0.1-1.3
		c-0.5,0.2-0.6,2.1-1.3,1.4c0.2-0.3,0.5-0.5,0.6-0.8c-0.8-0.9-0.8-0.6-1.2-0.6l0,0l-1-0.2l0.3,0.2c-0.1,2.6-1.2,0.9-1.8,2.7
		c0.5-1.8-0.1-0.9-0.2-2c-0.3-0.2-0.7-0.4-0.7-0.8c-0.2,0.8-0.6,0-1,0.5c0,0.9,0,1.8,0,2.7c0,0.3,0,0.7,0,1
		C470.9,216.7,471.2,216.8,471.5,217.5z M578.9,96.3c0,0.3-0.1,0.4-0.3,0.3c0-0.2,0-0.3,0-0.5l-0.1-0.1
		C578.6,96.2,578.8,96.2,578.9,96.3z M572.8,95.9c0,0.1,0,0.2,0,0.4l0,0C572.8,96.1,572.8,96,572.8,95.9z M572.6,97.3
		c0.3,0,0.6,0.2,0.5,0.4c-0.2-0.2-0.4,0.2-0.7,0.3C572.5,97.8,572.5,97.5,572.6,97.3z"/>
	<path class="st1" d="M581.7,218.8c0.3,0.3,0.9,0.9,0.8,1.2c0-0.1-0.1-0.5,0.2-0.5l0.3,0.9c0.5-0.1-0.3-0.7,0-0.9
		c0.4,0.5,0.5,0.2,0.8,0.6c0,0.1-0.4,0-0.3,0.3c0.4-0.2,0.9-0.2,1.3,0c-0.3-0.2-0.6-0.6-0.5-0.9c0.4-0.6,0.7,0.4,1.2,0.3
		c-0.2-0.5,0.4-0.5-0.2-1.2c0.1-0.2,0.5,0.1,0.7,0.3c-0.1-0.6,1-1.5,0-1.9h-0.1c0,0,0,0,0-0.1c0.1-1.6,1.9-1.6,2.3-2.9l0.2,0.2
		c0.2-0.8,0.8-1.5,0.6-2.4c0.1-0.2,0.7,0,0.9,0.3c0.2-0.6,0-0.9,0.8-1.2c0.1,0.9,0.5,0.2,0,0.8c0.6-0.4,1.1-0.2,0.9-1.4
		c0.4,0.8,1,0.3,1.1-0.2h-0.7c0.1-0.3,0.3-0.6,0.6-0.9l0.7,0.9c1.8-0.4-0.1-3.7,2.1-3.2c-0.3-0.8-0.8,0.3-1.3-0.6
		c0.5-0.5,2-0.1,2.1-0.2c1-0.4-0.7-1.8,0.1-2.3c-0.6-0.3-1.1-0.9-1.1-1.6c0.5-0.5,1.7,0.3,1.7,0.9c-0.1,0.2-0.2,0.2-0.3,0.1
		c0,0.3,0,0.6,0.4,0.7l-0.2-0.3c0.5,0,1-0.9,1.3-0.3c0-0.7-0.4-0.6-0.7-0.4c0.9-0.4,0.8-1.2,1.5-1.7c-0.2,0-0.6-0.2-0.6-0.3
		c1-0.8-0.2-1,0.1-1.8c0.7-0.1,1,1,1.1-0.1c0.6-0.2,0.8,0.5,1,0.9c-0.1-1.2,1.2-1,1.5-1.4v0.6c0-0.3,0.1-0.5,0.2-0.7l-0.7-0.3
		c0.2-0.1,0.3-0.3,0.6-0.1c-0.3-0.5-1.1-0.6-1.3-1.5c0.5-0.1,0.2-1.2,1-0.7c-0.8,0.7,0.9,0.5,0.5,1.4c0-0.2,0.1-0.4,0.3-0.6
		c0.1,0,0.2,0.2,0.2,0.3c1.2-0.4-0.7-1.1-0.1-2.1c0.4,0.5,1,0.4,1,0.2c-0.2,0.4-0.8-0.4-1-1c0.7-0.3,0.1-0.8,0.3-1.1l-0.4,0.2
		c-0.4-0.5-0.2-0.7-0.1-1.2c0.1,0,0.2,0.2,0.2,0.3c-0.1-0.7,1.5-0.3,1.3-1.2c0.5-0.1,0.9,0.6,1.2,0.5c-0.2-1.2,1-0.4,1-1.5
		c-0.7-0.2-0.6-0.1-0.9-1.1l-0.2,1.6l-0.5-1.5c-0.2,0.4,0,1.1-0.3,1.3c-0.3-0.8-0.2-0.6-0.8-0.8c1.2,0.1,0-1.4,0.9-1.6l1.5,1.1
		c1.2-0.5,0.1-2.2,1.1-3.1l-0.5,0.2c-0.5-0.6,0.3-0.8,0.2-1.4c0.5,0.4,0.8,0.3,1.2,0.3c-0.4-0.2,0.5-0.9-0.5-1.7l0.9-0.1
		c0.8-0.8-0.9-2.1-0.3-2.9c0.4,0.7,1,0.5,1.1,1.4c0.2-0.3,0.4-0.5,0-0.8c0.4,0-0.3-1.3,0.3-1.3c-0.2-0.3-0.7-0.7-0.5-1
		c0.1,0,0.2,0.1,0.2,0.2c-0.2-0.2-0.1-0.8-0.8-0.8c2.1,0,1.1-2.8,2.9-2.8c0.1-0.8,0.3-1.6,0.6-2.4c0.1,0.1,0.3,0.2,0.2,0.2
		c0.9-0.6-1.3-1.5-0.3-2.1c1.1,0,0.2,0.8,0.7,0.7c1.8,0.9,0.3-1.4,1.6-1.5v0.2c0.8-0.2-0.1-1.7,0.3-2.4c0.1,0.1,0.2,0.1,0.3,0.2
		c-0.5-1-0.7-2.2-0.5-3.3c0.6,0.6,0.2,0.6,1,0.8c0-0.4-1.2-0.5-1.1-1.3c0.5,0,1-0.4,1.8-0.1l-0.2,0.7c1.1,0.2,0.3-0.9,0.6-1.2
		l0.4,0.3c0.3-1.2-0.8-1.7-0.3-2.8h-0.4c-0.8-1.2,0.8-0.2,0.2-1.3l1.2,0.4c-0.3-0.9-0.4-1.9-0.5-2.9c0.5,0.8,0.8,1.8,1,2.7
		c0.2-0.4,0.4-1.5,0-2c0,0.2,0.2,0.6,0,0.7c-0.6-0.7-0.8-1.7-0.5-2.6c2.1,1.2,1.3-1.9,3.2-1.8c-0.3-1.9,1.3-2.8,1.8-4.6
		c-1.9-0.1,0.1-0.5-1.6-1.2c0-0.5,0.1-0.6,0.2-0.6l-0.1,0l0.1,0l0,0l1.4-0.8c0.6-0.1,0.3,0.6,0.7,0.7c0.4-0.8,0.8-0.1,1.5-0.5
		c-0.7-0.1-0.8-0.7-0.4-1.1l-1,0.4c-0.5-1.6,1.8-0.5,1.2-2.1l0.4,0.6c-0.1-0.8,0.7-2.4-0.5-3.6c0.2,0,0.8,0,0.8,0.3
		c0.6-1.5-0.5-4.1,0.7-5l0.4,0.3c0-0.3-0.7-0.8-0.1-1c0.2,0.1,0.4,0.3,0.5,0.1c-0.1-0.2-0.5-1.1-0.2-1.4l0.4,0.5
		c1-1.3-0.6-2.8-0.5-4.2c1,0.2,2-0.3,2.3-1.2l0.2,0.1c0.6-1.8-0.3-3.4-0.5-5.2c1.7-0.6,1.3-3.3,2.5-4.8c-0.3,0.2-1-0.3-1.1-0.7
		c0.3-0.3-0.7-1.3,0.5-0.9v0.1c1.2,0,1.1-0.9,1.2-1.5l-1.5-0.5c2.6-1,0-4.5,2.2-4.9c-0.3-0.5-0.2-1-0.5-1.5l0.8,0.2
		c0.4-0.9,0.6-2,0.7-3l0.5,0.4c0.2-0.8-2.2-1.6-2.2-2.3l1.3,0.1c0.2-1.4,1.5-2.5,0.6-4.1c0.2,0.1,0.5,0.2,0.5,0.4
		c0.1-0.6,1.2-2.3-0.5-2.4c1.1,0.2,0.3-1.4-0.1-2.2l0.8,0.3c-1-0.8-1.2-0.9-1.4-1.8c0.1-0.1,0.5-0.1,0.5,0.1
		c0.3-0.5-0.7-0.6-0.2-1.3l0.5,0.4c0.2-0.7-0.1-0.7-0.7-1.2c-0.3-0.5,0.4-1.3,1.2-1.3c-0.4-0.2-1-0.7-0.7-1c0.2,0,0.4,0.1,0.5,0.3
		c0.7-1.1-0.7-1.9,0.2-2.6c0.2,0,0.3,0,0.5,0c0,0.5-0.1,1.1-0.3,1.6c0.8,0.1,1-0.6,2,0.2c-0.5-0.7-1.6-2-1.2-2.6
		c0.1,0,0.2-0.1,0.3-0.1l0.1,0.1c0.1-0.2,0-0.3-0.1-0.5c0.1-0.2,0.2-0.4,0.2-0.6c0.6,0,0.5-0.8,0.5-1.2c-0.8-0.1-0.6-0.6-1.4-0.2
		c0.1,0,0.1,0.1,0.1,0.3c0,0.1,0,0.1,0.1,0.2h-0.1c0,0.3,0,0.6-0.1,1c-0.4-0.4-0.7-0.7-0.2-1.1c-0.5-0.3-1-0.6-1.3-0.8
		c1.2-0.3,2-1.2,2.7-1.2c-0.2-0.7-0.2-1.5-0.4-2.2H629c0.4,0.4,1.1,0.5,0.5,1.2c-0.4-0.3-0.3-0.9-0.4-0.8c-1,0.6,0.6,0.6,0.5,1.2h-1
		c0,1.2,0.6,2.6,0.6,3.9c-0.3-0.1-0.6-0.4-0.9-0.1c0.3,1.7-0.6,3.5-1.4,4.9l0.8,0.8c0,0.1-0.4,0.2-0.6,0c-0.4,0.5,0.5,0.1,0.8,0.5
		c0,0.4-0.6,0.4-0.8,0.1c0.6,1.2,1.2,3.4,0,4.3l-0.2-0.3c-0.5,0.8,1.6,1.4,0.7,2l-0.1-0.2c-0.7,1.8-0.2,4.1-1.8,5.3
		c1.2,0.6-0.9,1.8,0.8,2.3c-1,0.9-1.3,0.5-2.2,1.9c-0.2,0.4,1,0.9,1,1.4l-0.9-0.2l0.8,0.9l-1.2,0.1l0.1,0.5c0.2-0.2,0.5-0.3,0.7-0.2
		c0.3,0.9-1,1.6-1.4,1.5l0.4,2c-0.2-0.1-0.4-0.3-0.5-0.5c0.4,0.8-1-0.2-0.4,0.8c0.2-0.1,0.5,0.2,0.7,0.3c-0.6,0.3-0.8,1.2-0.8,2
		l-0.6-0.3c-0.4,1.2-0.3,2.8-0.6,4.2c0.4-0.4,1.5,0,1.5,0.5l-1-0.1c0.5,0.5,0.5-0.3,1,0.5c-0.2,0.5-1.2,0-1.4-0.4l0.2,0.8
		c-0.3,0-0.4-0.2-0.8-0.4c0.5,0.5-1.2,0.8-0.3,1.5l-0.3,0c-0.3,1.4-0.2,2.2-0.4,3.4c0.8,0.3,0.5,0.7,1.1,1.3
		c-0.5,0.8-1.3,1.5-1.5,2.5c0.2,0.9,0.6,0.5,1,1c-0.8-0.2-0.9,0.8-1.3,0.1c-0.2,1.1-0.2,2.3-0.1,3.4c0.3,0,0.5-0.2,0.8,0
		c0,0.3-0.5,0.5-0.8,0.4l0-0.1c0.6,2.2-3.2,3.2-2.1,5.1v-0.1l0.4,1.7c-0.3,0.6-0.4-0.6-1-0.3c0.8,2-0.9,2.3-0.5,3.9
		c-2.4,0-1,3.5-2.7,4.2l0.5,0.2c0.4,0.6-0.4,0.3-0.6,0.5c0.4,0.1,0.6-0.2,0.8,0.2c-0.2,1.5-0.8,3-1.7,4.2c-0.8,1.3-1.8,2.6-2.5,3.8
		c-0.5,1,2.3,1.9,0.6,2.6l-0.8-0.8c0.1,1.2-0.2,2.3-0.7,3.4c-0.6,1-0.9,2.2-0.9,3.3c-0.2-0.2-0.4-0.4-0.3-0.6
		c-0.8,0.1-0.7,1.6-0.2,1.9c-0.2,0.3-0.5-0.2-0.9-0.2c-0.5,0.2,0.4,1.6-0.4,1.4c-0.1,0-0.2-0.2-0.2-0.3c0.2,0.5-0.7,1.2,0.2,1.4
		c-0.7,0.5-0.3,1.6-1,2c0.7,0.9-1,1,0.1,1.9c-1.2-0.8-1.5,0.7-1.2,1.5c-0.3-0.4-0.6,0.2-1-0.3c-0.3,0.5-0.2,1.1,0.3,1.4
		c0,0,0.1,0.1,0.2,0.1c-1.9,0,0.2,2.7-1.9,2.1c-0.1,1.8-0.4,3.6-0.9,5.3c-1.1-0.9,0.7-1.6-0.6-2.4c-0.2,1.7,0.4,3.2-0.5,4.3
		c-0.3,0.2-0.4-0.6-0.5-0.8c-0.2,1.7-1.5,2.4-1.5,4.1c-0.1-0.1-0.2-0.3-0.2-0.5c-0.1,0.3-0.5,0.4,0.1,0.8V190c1,0.2,1.1,2.1,1.4,2.5
		c-1.3-1.5-1,0.9-2.5-1.2c0,0.3,0.2,0.7,0.5,0.8c-0.2,0.1-0.5,0.1-0.7-0.5c-0.2,1,0.5,1.2,0.1,1.9c-0.2-0.2-0.2-0.4-0.5-0.7
		c0.3,0.8,0.5,1.5,0,2c-0.1-0.2-0.4-0.2-0.2-0.4c-0.5,1.1,0.2,2.8-0.9,3.6c-0.8-1.2-0.6,0.1-1.5-0.6c0,0.3-0.1,0.6-0.1,0.8l0.6,0.1
		c-0.3,0.5,0,1.6-0.6,1.8l-0.1-0.7l-0.5,1.2l0.7-0.3c0.1,1,1.2,0.9,0.5,1.4c0-0.2-0.4,0.5-1.1,0.3l0,0c0.1,0.5,0.2,1.1-0.2,1.3
		c-0.3-0.2-0.9-1-1.2-1.1c0.6,0.9-0.6,1.4,0,2.5c-0.2-0.3-0.4-0.6-0.7-0.8l0.5,0.8c-0.4,0.1-0.5,0-0.8-0.4c-0.6,0.6,1.3,0.8,0.2,1.2
		c0-0.1-0.1-0.2-0.1-0.4c-0.8,0.6-0.8,2-1.6,2.5c-1-0.6,0.2-0.9-0.7-1.3c-0.6,1.3-0.5,3.4-1.5,4.2l0.2-0.1c1.1,1.4-1.2,0.2-1,1.3
		c0-0.2-0.5-0.9-0.4-0.7c-0.7,0.5-0.8,1.8-1.2,3.3l-0.2-0.5c-0.6,0.1-1,0.9-1.5,1.2c0.2,0.5-0.1,0.7,0.5,1c-2.8-0.5-1.2,3.7-3.6,3.3
		c0.1-0.1,0-0.6-0.1-0.5l-0.6,1.3c0.6,0.5,0.4,0.2,1,0.5c0,0.1,0.1,0.3,0.1,0.4h3.3C582.7,220.5,581.4,220,581.7,218.8z M635.5,86.6
		c0.1,0.3-0.1,0.3-0.3,0.3c0-0.2,0-0.3,0-0.5h-0.1C635.3,86.5,635.4,86.6,635.5,86.6L635.5,86.6z M629.5,87v0.4l0,0V87z M629.5,88.3
		c0.3,0,0.6,0.1,0.5,0.3c-0.2-0.1-0.4,0.2-0.7,0.4C629.4,88.7,629.4,88.5,629.5,88.3L629.5,88.3z"/>
	<path class="st1" d="M664.5,220.2c0.8-0.6,0.7-1.3,1.3-2c-0.2,0-0.7-0.1-0.6-0.2c0.9-1.1-0.4-0.9-0.1-1.9c0.7-0.2,1.1,0.9,1-0.2
		c0.6-0.3,0.9,0.4,1,0.8c-0.3-1.2,1-1.3,1.4-1.7l0.1,0.6c0-0.3,0-0.5,0.1-0.8l-0.7-0.1c0.2-0.2,0.3-0.4,0.6-0.2
		c-0.3-0.5-1.1-0.4-1.5-1.3c0.5-0.1,0.1-1.2,1-0.8c-0.7,0.9,0.9,0.4,0.7,1.3c0-0.2,0.1-0.5,0.3-0.6c0.1,0,0.2,0.1,0.2,0.2
		c1.2-0.6-0.8-1-0.3-2.1c0.4,0.4,1,0.3,1,0.1c-0.2,0.4-0.9-0.3-1.1-0.9c0.7-0.5,0-0.9,0.2-1.2l-0.3,0.3c-0.4-0.4-0.2-0.7-0.2-1.3
		c0.1,0,0.2,0.1,0.2,0.2c-0.2-0.7,1.4-0.5,1.2-1.5c0.5-0.2,0.9,0.5,1.3,0.3c-0.3-1.2,1-0.5,0.8-1.7c-0.8-0.1-0.6,0-1-0.9l-0.1,1.7
		l-0.6-1.4c-0.2,0.4,0.1,1.1-0.2,1.3c-0.4-0.7-0.2-0.6-0.8-0.7c1.2,0-0.1-1.5,0.8-1.8l1.6,0.9c1.1-0.6-0.1-2.3,0.8-3.4l-0.4,0.3
		c-0.6-0.5,0.2-0.9,0.1-1.4c0.4,0.2,0.8,0.3,1.2,0.2c-0.4-0.2,0.4-1-0.6-1.6l0.9-0.2c0.7-0.9-1.1-2-0.5-3c0.5,0.6,1,0.3,1.2,1.2
		c0.1-0.3,0.3-0.6,0-0.8c0.4,0-0.4-1.3,0.3-1.4c-0.2-0.3-0.7-0.6-0.5-1c0.1,0,0.2,0.1,0.3,0.1c-0.3-0.1-0.2-0.8-0.9-0.8
		c2.1-0.2,0.9-3,2.7-3.3c0.1-0.9,0.2-1.7,0.4-2.5c0.2,0.1,0.3,0.1,0.2,0.2c0.8-0.7-1.4-1.3-0.4-2.1c1.1-0.1,0.3,0.8,0.7,0.6
		c1.9,0.7,0.2-1.4,1.5-1.7l0,0.2c0.8-0.3-0.2-1.7,0.2-2.5c0.1,0.1,0.2,0.1,0.3,0.1c-0.5-1-0.8-2.2-0.6-3.4c0.6,0.6,0.2,0.6,1,0.7
		c0-0.5-1.2-0.4-1.2-1.3c0.5-0.1,1-0.5,1.8-0.2l-0.2,0.8c1.1,0.1,0.3-1,0.6-1.3l0.4,0.2c0.2-1.2-0.9-1.7-0.4-2.9h-0.4
		c-0.9-1.1,0.8-0.3,0.2-1.3l1.2,0.3c-0.3-0.9-0.5-1.9-0.6-2.9c0.5,0.8,0.9,1.7,1.2,2.7c0.1-0.4,0.4-1.5-0.1-2c0.1,0.2,0.3,0.5,0,0.7
		c-0.7-0.7-0.9-1.7-0.7-2.7c2.1,1,1.2-2.1,3.1-2c-0.4-1.9,1.2-3,1.5-4.9c-1.9,0,0.1-0.6-1.7-1.1c0-0.5,0.1-0.6,0.2-0.6l-0.1,0.1
		l0.1-0.1l0,0l1.4-0.9c0.6-0.1,0.3,0.5,0.7,0.7c0.4-0.9,0.8-0.1,1.5-0.6c-0.3,0-0.6-0.3-0.7-0.6c0-0.2,0.1-0.4,0.2-0.5l-1,0.5
		c-0.6-1.7,1.8-0.6,1.2-2.3l0.4,0.6c-0.1-0.8,0.7-2.5-0.6-3.7c0.2,0,0.8,0,0.8,0.3c0.6-1.6-0.7-4.2,0.5-5.1l0.4,0.3
		c0-0.4-0.7-0.8-0.2-1c0.2,0.1,0.4,0.3,0.5,0.1c-0.1-0.2-0.6-1.1-0.2-1.4l0.4,0.5c0.9-1.4-0.6-2.8-0.6-4.3c1.3,0.4,2-0.8,2.3-1.3
		l0.2,0.1c0.5-1.9-0.5-3.5-0.6-5.4c1.6-0.7,1.3-3.5,2.4-5.1c-0.3,0.2-1-0.3-1.1-0.6c0.3-0.4-0.7-1.4,0.5-1v0.1
		c1.2,0,1.1-0.9,1.2-1.6l-1.5-0.5c2.5-1.2-0.1-4.7,2-5.2c-0.3-0.5-0.2-1-0.6-1.5l0.8,0.2c0.4-1,0.6-2.1,0.6-3.1l0.5,0.4
		c0.2-0.8-2.3-1.5-2.2-2.3h1.3c0.2-1.4,1.5-2.6,0.5-4.2c0.2,0,0.5,0.2,0.6,0.4c0.1-0.7,1.2-2.4-0.6-2.5c1.1,0.2,0.3-1.4-0.1-2.3
		l0.8,0.3c-1-0.8-1.3-0.9-1.5-1.8c0.1-0.2,0.5-0.1,0.5,0.1c0.3-0.5-0.7-0.6-0.2-1.4l0.5,0.4c0.2-0.7-0.1-0.7-0.7-1.2
		c-0.3-0.5,0.4-1.4,1.1-1.4c-0.4-0.2-1-0.6-0.7-1c0.2,0,0.4,0.1,0.5,0.2c0.7-1.1-0.8-2,0.1-2.7c0.2,0,0.4,0,0.5-0.1
		c0,0.6-0.1,1.1-0.3,1.7c0.8,0.1,1-0.7,2,0.1c-0.5-0.7-1.7-2-1.3-2.7c0.1,0,0.2,0,0.3-0.1l0.1,0.1c0.1-0.2,0-0.4-0.1-0.5
		c0.1-0.2,0.2-0.4,0.3-0.6c0.6,0,0.4-0.9,0.5-1.3c-0.8-0.1-0.7-0.6-1.4-0.2c0.1-0.1,0.1,0.1,0.1,0.4c0,0.1,0,0.1,0.1,0.2h-0.1
		c0,0.3,0,0.6,0,1c-0.4-0.4-0.7-0.7-0.2-1.1c-0.5-0.3-1.1-0.6-1.3-0.7c1.2-0.4,1.9-1.4,2.7-1.4c-0.4-1.3-0.1-2.9-1.6-3.8
		c-0.2-0.4,0.5-0.4,0.7-0.5c0.2,0.2,0.1,0.5,0.3,0.6c-0.3-0.7,0-2-1.1-2.3c0.6-0.8,1,0.6,0.9-0.6l0.3,0.2c1.8-2-2.1-3.8-0.6-6h-5
		c0.3,0.7-0.2,1.7,0.8,2.4c-0.1,0-0.2,0.1-0.3,0.1c0.5-0.1,1-0.1,1.5,0c0,0.4,0.7,0.8-0.1,0.8c0-0.2-0.2-0.3-0.5-0.4l0.3,0.4
		c-1.1,0.3-0.3-0.6-1.1-0.6c0.3,0.8,1.1,1.8,0.8,2.3c-1,0-0.3-1.4-1.2-0.7l0.4-0.9c-1.6,0.5,0.1-0.5-1.6,0c-0.4,1.1,0.5,1.4,0.1,2.5
		c0.5,0.3,0.8,0,1.4,0.3c0.9,1.8-2.7,1.1-1.4,2.4c0.7,0.4,1.9,0.6,1.2,1.5l-1.1-0.4c-0.2,1.1,1.6,0.8,0.7,1.9
		c-0.4-0.3-0.3-0.9-0.5-0.8c-1,0.7,0.6,0.6,0.5,1.2h-1c0,1.2,0.7,2.7,0.7,4c-0.3-0.1-0.6-0.4-0.9-0.1c0.2,0.9,0.1,1.8-0.2,2.7
		c-0.3,0.9-0.6,1.7-1.1,2.5l0.8,0.8c0,0.1-0.4,0.2-0.6,0c-0.4,0.6,0.5,0.1,0.9,0.5c0,0.4-0.6,0.4-0.8,0.1c0.6,1.2,1.2,3.5,0.1,4.5
		l-0.2-0.3c-0.5,0.9,1.7,1.4,0.7,2.1l-0.1-0.2c-0.6,1.9-0.1,4.3-1.7,5.5c1.2,0.5-0.9,1.9,0.9,2.3c-1,1-1.3,0.6-2.1,2
		c-0.2,0.4,1,0.9,1.1,1.4l-0.9-0.2l0.8,0.9l-1.1,0.1l0.2,0.5c0.2-0.2,0.5-0.3,0.7-0.2c0.3,0.9-0.9,1.7-1.4,1.6l0.5,2
		c-0.2-0.1-0.4-0.3-0.5-0.5c0.4,0.8-1.1-0.2-0.4,0.8c0.2-0.1,0.5,0.2,0.7,0.3c-0.6,0.3-0.8,1.3-0.7,2.1l-0.6-0.3
		c-0.4,1.3-0.2,2.9-0.5,4.4c0.4-0.5,1.5-0.1,1.5,0.4l-1-0.1c0.5,0.4,0.5-0.4,1.1,0.4c-0.2,0.5-1.2,0.1-1.4-0.3l0.2,0.8
		c-0.3,0-0.4-0.2-0.8-0.4c0.5,0.4-1.2,0.9-0.2,1.6H684c-0.3,1.5-0.1,2.3-0.3,3.5c0.8,0.3,0.5,0.7,1.1,1.2c-0.5,0.8-1.3,1.6-1.5,2.7
		c0.2,0.9,0.6,0.4,1,0.9c-0.8-0.2-0.9,0.9-1.3,0.2c-0.2,1.2-0.2,2.4,0,3.5c0.3-0.1,0.5-0.2,0.8,0c0.1,0.3-0.5,0.6-0.8,0.4l-0.1-0.1
		c0.7,2.2-3.1,3.5-1.9,5.5l0-0.1l0.4,1.8c-0.3,0.7-0.4-0.6-1-0.3c0.8,2-0.9,2.5-0.4,4.1c-2.4,0.2-0.8,3.7-2.6,4.6l0.5,0.1
		c0.4,0.5-0.4,0.3-0.6,0.5c0.4,0.1,0.6-0.2,0.8,0.1c-0.2,3.3-2.6,5.9-3.9,8.8c-0.5,1.1,2.4,1.8,0.8,2.7l-0.8-0.8
		c0.1,1.2,0,2.5-0.5,3.7c-0.5,1.1-0.8,2.3-0.8,3.5c-0.2-0.2-0.5-0.4-0.4-0.6c-0.8,0.2-0.6,1.7-0.1,2c-0.2,0.3-0.5-0.2-0.9-0.1
		c-0.5,0.3,0.5,1.6-0.3,1.5c-0.1,0-0.2-0.2-0.2-0.3c0.2,0.5-0.6,1.4,0.3,1.4c-0.7,0.6-0.2,1.7-0.9,2.2c0.7,0.8-0.9,1.2,0.3,1.9
		c-1.2-0.7-1.5,0.9-1.1,1.7c-0.3-0.4-0.6,0.2-1-0.2c-0.2,0.6-0.2,1.2,0.5,1.5c-1.9,0.3,0.4,2.8-1.8,2.4c0,1.9-0.1,3.8-0.5,5.6
		c-1.2-0.7,0.5-1.8-0.8-2.4c0,1.7,0.7,3.2-0.2,4.5c-0.3,0.3-0.5-0.5-0.6-0.8c0,1.8-1.3,2.7-1.2,4.4c-0.1-0.1-0.2-0.3-0.2-0.5
		c-0.1,0.3-0.4,0.5,0.1,0.8V207c1,0,1.2,2,1.7,2.3c-1.4-1.3-0.9,1-2.7-0.8c0.1,0.3,0.3,0.6,0.6,0.8c-0.2,0.2-0.5,0.1-0.8-0.4
		c-0.1,1.1,0.6,1.1,0.3,1.9c-0.3-0.2-0.3-0.4-0.6-0.7c0.3,0.7,0.7,1.5,0.2,2c-0.1-0.1-0.4-0.2-0.3-0.4c-0.4,1.2,0.5,2.9-0.5,3.9
		c-1-1.1-0.6,0.2-1.6-0.3c0,0.3,0,0.6,0,0.9h0.6c-0.3,0.6,0.2,1.6-0.4,1.9l-0.2-0.7l-0.3,1.2l0.7-0.4c0.2,0.9,1.3,0.7,0.6,1.4
		c0-0.2-0.3,0.6-1,0.5l0,0c0.1,0.1,0.1,0.3,0.1,0.4h2.1c-0.1-0.2-0.1-0.3-0.1-0.5c0.4-0.5,1.5,0,1.7,0.5h0.7c0.2-0.2,0.4-0.2,0.6,0
		l0,0C665.2,219.8,664.9,219.9,664.5,220.2z M697.7,96.9c0.1,0.3-0.1,0.3-0.2,0.4c0-0.2,0-0.3-0.1-0.5h-0.1
		C697.4,96.8,697.6,96.8,697.7,96.9L697.7,96.9z M691.7,98L691.7,98v-0.4V98z M691.7,98.9c0.3,0,0.6,0.1,0.6,0.2
		c-0.2-0.1-0.4,0.2-0.7,0.5C691.6,99.3,691.7,99.1,691.7,98.9L691.7,98.9z"/>
	<path class="st1" d="M526.8,237.7l1.1-25l21.6,16.1l-13.5-0.8L526.8,237.7z"/>
	<path class="st1" d="M528.8,236.4l1.1-25l-3.6,3.8l21.6,16.1l2.8-5.2l-11.8-0.7c-0.5,0-1.1-0.1-1.6-0.1c-0.9,0-1.5,0.8-2.1,1.4
		l-4.7,5l-3.9,4.1c-0.9,1-2,2.4-1.7,3.8s1.6,0.8,2.2,0.1l8-8.5l1.2-1.2l-1.5,0.7l11.8,0.7l1.7,0.1c1.1,0.1,2.2-1.4,2.6-2.3
		s1.1-2.3,0.2-2.9l-21.6-16.1c-0.7-0.5-1.7,0.5-2.1,0.9c-0.8,0.8-1.3,1.8-1.5,2.9l-1.1,25c0,0.4,0,1,0.4,1.3
		c0.4,0.2,0.9,0.1,1.3-0.2C527.8,239.2,528.6,237.9,528.8,236.4z"/>
	<path class="st1" d="M246.4,219.2h186.8c2.5,0,5,0.1,7.6,0h0.3c1.3,0,2.3-1.6,2.8-2.6c0.3-0.6,0.9-2.7-0.4-2.7H256.7
		c-2.5,0-5.1-0.1-7.6,0h-0.3c-1.3,0-2.3,1.6-2.8,2.6C245.7,217.1,245.1,219.2,246.4,219.2z"/>
	<path class="st1" d="M243,198.9h189.4c2.6,0,5.1,0.1,7.7,0c0.1,0,0.2,0,0.3,0c1.3,0,2.3-1.6,2.8-2.6c0.3-0.6,0.9-2.7-0.4-2.7H253.5
		c-2.5,0-5.1-0.1-7.7,0h-0.3c-1.3,0-2.3,1.6-2.8,2.6C242.4,196.8,241.7,198.9,243,198.9z"/>
	<path class="st1" d="M238.5,178.5h192.8c2.6,0,5.2,0.1,7.8,0h0.3c1.3,0,2.3-1.6,2.8-2.6c0.3-0.6,0.9-2.7-0.4-2.7H249.1
		c-2.6,0-5.2-0.1-7.8,0h-0.3c-1.3,0-2.3,1.6-2.8,2.6C237.9,176.4,237.2,178.5,238.5,178.5L238.5,178.5z"/>
	<path class="st1" d="M234.8,158.1h196.3c2.7,0,5.3,0.1,8,0h0.3c1.3,0,2.3-1.6,2.8-2.6c0.3-0.6,0.9-2.7-0.4-2.7H245.6
		c-2.7,0-5.3-0.1-8,0h-0.3c-1.3,0-2.3,1.6-2.8,2.6C234.2,156,233.5,158.1,234.8,158.1L234.8,158.1z"/>
	<path class="st1" d="M231.2,137.2l81,0.5l81.2,0.5l45.3,0.3c1.3,0,2.3-1.6,2.8-2.6c0.3-0.6,0.9-2.7-0.4-2.7l-81-0.5l-81.2-0.5
		l-45.3-0.3c-1.3,0-2.3,1.6-2.8,2.6C230.6,135.1,230,137.2,231.2,137.2L231.2,137.2z"/>
	<path class="st1" d="M226.4,105.7c0.5,2.8,2.7,4.9,5.5,5.3c3.4,0.5,6.4-2.1,8.1-4.8c2.1-3.3,2.4-7.1,2-10.9c-0.4-3.4-1-6.9-2-10.2
		c-0.5-1.7-1-3.5-1.7-5.2c-0.4-1.3-1.2-2.5-2.3-3.2c-1.7-0.9-3.5-0.1-4.7,1.1c-1.8,1.8-2.7,4.3-2.6,6.8c0.2,3.5,1,6.9,2.2,10.1
		c0.9,3,2.4,5.8,4.3,8.3c1,1.3,2.2,2.3,3.7,2.9c1.5,0.6,3.2,0.6,4.8-0.1c4.1-1.9,6.6-7.5,4.1-11.6c-0.5-0.8-1.6-0.1-2.1,0.3
		c-0.9,0.8-1.5,2-1.7,3.2c-0.5,3.9-0.6,8.1,2.4,11c1.2,1.2,2.8,1.7,4.4,1.5c2.5-0.5,4.5-2.2,5.4-4.5c1.1-2.2,1-4.7-0.4-6.7
		c-0.7-0.9-1.8,0-2.3,0.6c-1,0.9-1.5,2.2-1.5,3.5c0.8,4.3,3.6,8,7.5,10c4.2,2.2,9.2,2.2,13.4,0.2c9.9-4.6,13.7-16.5,13.2-26.7
		c-0.1-2.5-0.5-5-1.1-7.5c-0.3-1.3-0.7-2.6-1.2-3.9c-0.3-1.1-0.8-2.1-1.4-3c-0.9-1.8-3.1-2.5-4.8-1.6c-0.4,0.2-0.8,0.5-1.1,0.8
		c-2,1.9-3.3,4.5-3.5,7.3c-1,9.8,1.2,19.7,6.3,28.1c1.2,2.1,2.7,4,4.5,5.7c1.7,1.6,4.1,2.3,6.4,2.1c5-0.8,7.3-6.6,7.8-11.1
		c0.1-1.1,0.1-2.1,0.1-3.2l-3.8,4.1c1.1,3.3,4.4,5.3,7.9,4.8c2.1-0.6,4-2,5.1-4c1.3-1.9,1.8-4.1,1.5-6.4l-3.8,4.1l3.1,5.7
		c0.4,0.7,1.3,0.2,1.8-0.1c0.9-0.7,1.5-1.7,1.9-2.8l1.3-5.1l-3.7,2.9c2,4.8,7.9,6.1,12.5,6.7c6.6,0.9,13.2,0.9,19.8,0.2
		c3.7-0.4,7.4-1.1,11-2c0.6-0.2,1.1-0.7,1.5-1.2c0.5-0.6,0.9-1.3,1.1-2c0.2-0.9,0.2-2.3-1.1-1.9c-6.1,1.6-12.3,2.4-18.6,2.4
		c-3.2,0-6.4-0.1-9.6-0.5c-2.5-0.2-5-0.7-7.4-1.4c-1.2-0.4-2.4-1.1-3.4-1.8c-0.9-0.7-1.7-1.7-2.1-2.8c-0.3-0.8-1.4-0.2-1.8,0.1
		c-0.9,0.7-1.5,1.7-1.9,2.8l-1.3,5l3.7-2.9l-3.1-5.7c-0.5-1-1.9,0.1-2.3,0.6c-0.8,0.8-1.7,2.3-1.5,3.5c0.1,0.3,0.1,0.6,0.1,1
		s0-0.3,0,0v0.3c0,0.2,0,0.1,0-0.2c0,0.1-0.1,0.3-0.1,0.4c-0.1,0.3,0.2-0.6,0-0.1s0.4-0.7,0.1-0.1s0.3-0.5,0.1-0.2s0-0.1,0.1-0.1
		l-0.2,0.2c-0.1,0.1-0.1,0.1,0.2-0.1c0,0-0.3,0.2-0.3,0.2c-0.2,0.1,0.3-0.1,0,0l-0.5,0.2c0,0-0.5,0.1-0.3,0.1s-0.2,0-0.3,0h-0.5
		c-2.4-0.2-4.5-1.8-5.2-4.1c-0.1-0.4-0.8-0.4-1.1-0.3c-0.5,0.2-0.9,0.5-1.2,0.9c-0.9,0.9-1.5,2.2-1.5,3.5c0-0.5,0,0.2,0,0.3v0.6
		c0,0.4,0,0.8-0.1,1.3c0,0.4-0.1,0.8-0.2,1.2c0,0.2,0,0.4-0.1,0.6c0,0,0.2-0.6,0-0.1c0,0.1,0,0.2-0.1,0.3s-0.1,0.4-0.2,0.6
		c-0.1,0.5,0.3-0.6,0,0c-0.1,0.2-0.2,0.3-0.2,0.5c0.2-0.7,0.3-0.5,0.2-0.3c-0.1,0.1-0.1,0.2-0.2,0.3c-0.2,0.3,0.2-0.4,0.2-0.4
		s-0.1,0.2-0.2,0.2c-0.2,0.2-0.2,0.1,0.2-0.2c0,0-0.2,0.1-0.2,0.1s-0.4,0.3,0,0s0.1-0.1,0,0l-0.2,0.1c-0.3,0.2,0.3-0.1,0,0
		s-0.3,0.1-0.5,0.2l-0.3,0.1c0.1,0,0.3,0-0.1,0c-0.5,0.1-0.9,0.1-1.4,0c-0.9-0.2-1.8-0.5-2.6-1c-1.7-1.1-3.2-2.7-4.2-4.4
		c-2.4-3.6-4.2-7.6-5.5-11.8c-0.6-2-1-4-1.3-6.1c-0.2-1-0.3-2.1-0.3-3.1c0-0.5-0.1-1-0.1-1.6c0-0.2,0-0.5,0-0.7V80
		c0,0.2,0-0.2,0-0.2s0-0.2,0-0.3c0-0.3,0-0.5,0-0.8c0-0.5,0.1-1.1,0.1-1.6s0.1-0.9,0.2-1.3s-0.1,0.5,0-0.1c0-0.1,0.1-0.2,0.1-0.3
		c0.1-0.3,0.2-0.3-0.1,0.1c0.1-0.1,0.4-0.8,0.1-0.2s-0.1,0.2,0,0.1c0.3-0.4-0.2,0.3-0.2,0.3c0.1-0.1,0.1-0.2,0.2-0.2
		c0,0-0.5,0.5-0.2,0.2c0,0-0.4,0.4-0.2,0.2c0.4-0.3,0,0.1-0.1,0l0.3-0.1c0,0-0.3,0-0.1,0c0.2,0,0.3,0,0.5,0c0.2,0,0.2,0,0.1,0
		c0.1,0,0.2,0.1,0.3,0.1c0.2,0.1,0.4,0.2,0.6,0.4c0.6,0.6,1,1.3,1.3,2.1c0.4,1,0.8,2.1,1.2,3.2c0.7,2.1,1.1,4.3,1.3,6.6
		c0.1,1.1,0.2,2.2,0.2,3.4c0,0.2,0,0.5,0,0.8c0-0.3,0,0.1,0,0.1s0,0.3,0,0.4c0,0.5-0.1,1.1-0.1,1.6c-0.1,1.1-0.3,2.2-0.5,3.4
		c0,0-0.1,0.4,0,0.1s0,0.1,0,0.2s-0.1,0.5-0.2,0.7c-0.1,0.5-0.3,1-0.5,1.6c-0.1,0.2-0.2,0.5-0.2,0.7s-0.1,0.2-0.1,0.3
		c-0.2,0.5,0,0,0-0.1c-0.2,0.5-0.4,1-0.6,1.5c-0.1,0.2-0.2,0.4-0.3,0.6c-0.3,0.7,0.2-0.4,0,0.1s-0.5,0.9-0.8,1.4
		c-0.1,0.2-0.4,0.4,0.1-0.2c-0.1,0.1-0.1,0.2-0.2,0.2l-0.4,0.5l-0.5,0.6c-0.2,0.2-0.3,0.1,0.1-0.1c-0.1,0-0.2,0.2-0.3,0.3
		c-0.3,0.3-0.7,0.7-1.1,1c-0.2,0.2,0.1-0.1,0.1-0.1c-0.1,0.1-0.2,0.2-0.3,0.2l-0.7,0.4c-0.2,0.1-0.5,0.3-0.7,0.4l-0.3,0.1
		c0,0-0.4,0.2-0.2,0.1l-0.1,0l-0.4,0.2l-0.8,0.3c-0.9,0.3-1.8,0.5-2.7,0.7c-2,0.3-4,0.1-5.9-0.5c-3.5-1.2-6.4-3.8-8-7.2
		c-0.4-0.7-0.6-1.5-0.7-2.3l-3.8,4.1c0.3,0.4,0.5,0.7,0.7,1.2c0,0,0.2,0.5,0.1,0.3c0,0.2,0.1,0.4,0.1,0.5c0,0.1,0,0.2,0,0.4
		c0-0.2,0-0.2,0-0.1c-0.2,0.6,0.2-0.3,0,0.1l0.1-0.4c-0.1,0.3-0.1,0.2,0.1-0.2c0.1-0.2,0.2-0.4,0.4-0.5c0.2-0.2,0.2-0.2,0,0
		c0.5-0.4,0.1-0.1,0,0s-0.2,0.1,0,0l-0.2,0.1c-0.1,0-0.6,0.1-0.3,0.1c-0.2,0-0.4,0-0.5,0c-0.7,0-1.4-0.2-2-0.6
		c-3.2-2.1-3-5.8-2.6-9.2l-3.8,3.5c0.3,0.4,0.5,0.9,0.6,1.5c0,0.1,0,0.3,0.1,0.4c0,0,0,0.6,0,0.3s0,0.3,0,0.3c0,0.5,0.1-0.2,0,0
		s-0.2,0.6,0-0.1c-0.1,0.2-0.3,0.5,0.1-0.2s0.3-0.4,0.2-0.2c0.5-0.5,0.2-0.2,0.1-0.1s0.4-0.2,0.1-0.1l-0.4,0.2c0.1,0,0.4-0.1,0,0
		l-0.5,0.2c-0.3,0.1-0.2,0-0.1,0c-0.2,0-0.3,0-0.5,0c-0.3,0-0.6,0-0.8,0c-0.5,0-0.9-0.2-1.3-0.4c-1-0.5-1.8-1.1-2.6-2
		c-1.6-2-2.8-4.2-3.6-6.5c-1-2.6-1.8-5.2-2.2-8c-0.1-0.7-0.2-1.4-0.3-2c0-0.3-0.1-0.7-0.1-1c0-0.1,0-0.5,0-0.2c0-0.2,0-0.4,0-0.5
		c0-0.3-0.2,0.5,0-0.1c-0.1,0.2-0.2,0.5-0.3,0.7c-0.2,0.2-0.3,0.4-0.5,0.6c0.3-0.3-0.1,0-0.2,0.1s0,0,0.2-0.1c0.1-0.1-0.3,0,0.2,0
		c0.2,0,0.4,0,0.6,0.1c0.8,0.5,1.5,1.3,1.8,2.2c0.5,1.3,1,2.7,1.4,4.1c0.8,2.7,1.4,5.5,1.8,8.2c0.2,1.4,0.4,2.8,0.5,4.3
		c0,0.6,0,1.1,0,1.7c0,0.3-0.1,0.6-0.1,0.9s0,0.3-0.1,0.4c0.1-0.5,0,0.1-0.1,0.2s-0.1,0.4-0.2,0.5c-0.1,0.4,0.3-0.5,0-0.1l-0.2,0.4
		c-0.1,0.3,0.4-0.7,0-0.1c-0.2,0.3-0.4,0.3,0.1-0.1c-0.1,0.1-0.2,0.2-0.3,0.4c-0.3,0.4-0.1-0.1,0.1-0.1c-0.1,0-0.3,0.4-0.4,0.4
		s0.5-0.4,0.1-0.1l-0.4,0.3c-0.3,0.2,0,0,0,0l-0.5,0.2c-0.5,0.2-0.9,0.3-1.4,0.2c-1.1,0-2.2-0.5-3-1.2c-0.4-0.3-0.7-0.6-1-1.1
		c-0.3-0.4-0.5-0.9-0.5-1.4c-0.2-1.3-1.6-0.7-2.2-0.1c-1.1,0.9-1.7,2.3-1.7,3.7L226.4,105.7z"/>
</g>
<g id="Hands">
	<path class="st3" d="M721.7,721.1l-13.9-28.1l-7.8-15.9l-2.4-4.9c-0.5-0.9-1.2-2.1-0.9-2.8c0.4-1.1,1.1-2.2,1.6-3.3
		c0.5-1.2,1-2.5,1.3-3.8c0.7-2.4,1.2-4.9,1.6-7.5c0.7-5.2,0.8-10.4,0.3-15.6c-0.5-5.4-1.5-10.8-2.9-16c-1.5-5.9-3.3-11.8-5.3-17.6
		c-4.2-11.7-9.1-23.1-14.8-34.1c-2.8-5.5-5.7-11-8.6-16.4s-5.7-10.7-8.8-15.8c-5.6-9.3-13.5-17.1-22.9-22.5c-4.7-2.6-9.8-4.4-15-5.5
		c-2.4-0.7-5-0.8-7.5-0.4c-2.5,0.6-4.9,1.6-7.1,2.8c-0.9,0.5-1.8,1.5-2.7,1.8c-1.4,0.7-2.7-0.2-3.9-0.8c-2.9-1.5-6-2.8-9.1-3.9
		c-4.5-1.7-9.3-2.7-14.2-2.9c-4.3-0.1-8.6,0.9-12.4,3c-2.3,1.3-4.3,3-6.1,4.9c-1,1.1-1.8,2.4-2.8,3.5c0.1-0.1-0.4,0.2-0.6,0.2
		c-0.7,0.1-1.4,0.1-2-0.2c-10.1-3.4-20-7.1-30.5-9.2c-3.5-0.7-7.4-1.5-11-1c-4.7,0.7-8.4,4.2-10.6,8.1c-1.2,2.1-2,4.3-2.4,6.7
		c-0.2,2,0.1,4.1,1.1,5.9c1.3,2.9,3.3,6.2,5.9,8.2c5.5,4.1,11.8,7.3,17.8,10.7c7.5,4.1,15,7.9,22.8,11.4c5.3,2.4,10.3,5.2,14,9.8
		c3.9,4.8,7,10.4,10.4,15.6l4.3,6.8c-5.6-4.5-11.7-8.5-17.9-12.1c-7.8-4.6-15.9-8.8-24.3-12.5c-8.7-3.8-17.8-7-27.2-8.4
		c-8.7-1.3-19.4-1.9-26,5c-3.3,3.3-4.9,8-4.4,12.6c0.6,4.4,3.1,8.1,6.2,11c3.5,3.1,7.4,5.8,11.5,8c1.1,0.6,2.1,1.2,3.2,1.7
		c-0.4,0.2-0.8,0.4-1.2,0.7c-5.8,4.3-3.7,11.9-3,18l2.2,20.3c1.4,12.3,1.6,25.5,8.4,36.2c3.2,5,7.2,9.5,11.1,13.9
		c3.9,4.6,8.1,8.9,12.5,13c8.6,7.7,19.1,13.1,30.5,15.5c5.5,1.2,11,2,16.7,2.4c2.8,0.2,5.7,0.4,8.5,0.5l3.9,0.2
		c1.3,0,2.8-0.1,3.9,0.7c0.8,0.8,1.5,1.7,1.9,2.8l2.8,5.2l8.5,16.2c4.3,8.2,8.5,16.4,12.9,24.5c4.4,8.1,13.7,12.2,22.6,9.9
		c2.7-0.9,5.4-2,7.9-3.3l30.8-14.4l30.7-14.4c2.7-1.3,5.7-2.4,8-4.4c3.9-3.3,6.2-8.2,6.2-13.3C723.4,725.3,722.8,723.1,721.7,721.1z
		 M533.4,613.6c7.5,3.9,14.9,8.4,20.4,14.9c5.2,6.2,9.3,13.2,12.1,20.8c-1.4,0-2.8,0-4.2,0.3c-2.3,0.5-4.6,1.2-6.9,2
		c-1,0.4-2,0.7-3,1.1c-1,0.5-2,0.9-3,1.1c-2.3,0.3-4.3-2.6-5.7-4l-6.6-6.8c-0.6-0.6-1.2-1.2-1.8-1.8c-1.2-1.4-0.8-3.7-0.9-5.5
		c-0.8-10-5.4-19.3-12.2-26.6c-0.6-0.7-1.3-1.3-1.9-1.9C524.3,609.3,528.9,611.3,533.4,613.6z"/>
	<path class="st0" d="M557.1,526.5c6,2.3,11.8,5,17.4,8.1c5.6,3.1,10.7,7.1,15.2,11.7c8.5,8.8,14.9,19.4,20.5,30.2
		c3.4,6.5,6.5,13.1,9.7,19.7c0.6,1.1,2.2-0.3,2.6-0.9c0.7-0.9,1.7-2.5,1.1-3.7c-5.6-11.5-11-23.3-17.9-34.1
		c-3.3-5.2-7-10.1-11.2-14.7c-4.3-4.7-9.3-8.8-14.8-12.2c-6.2-3.7-12.8-6.8-19.5-9.4c-1.1-0.5-2.3,1-2.8,1.8c-0.4,0.6-0.7,1.3-0.8,2
		C556.7,525.6,556.7,526.3,557.1,526.5L557.1,526.5z"/>
	<path class="st0" d="M592.7,606.8l-11.3-17.6c-0.7-1.1-2.1,0.2-2.6,0.9c-0.5,0.6-0.9,1.3-1.1,2c-0.2,0.5-0.2,1.1,0,1.6l11.3,17.6
		c0.7,1.1,2.1-0.2,2.6-0.9c0.5-0.6,0.9-1.3,1.1-2C592.9,607.9,592.9,607.3,592.7,606.8L592.7,606.8z"/>
	<path class="st0" d="M604,522.6c4.4,2.5,8.8,5.1,12.9,8c3.9,2.6,7.3,5.8,10,9.6c2.7,4,4.7,8.5,6.6,12.9l6.7,14.9l7.5,16.7
		c0.2,0.4,0.7,0.5,1.1,0.3c0.6-0.2,1.1-0.7,1.5-1.2c0.7-0.9,1.7-2.5,1.1-3.7L638,550.3c-1.9-4.6-4-9-6.5-13.3
		c-2.6-4.1-6-7.6-9.9-10.4c-4.6-3.3-9.4-6.3-14.4-9c-1-0.6-2.3,1.1-2.8,1.8c-0.4,0.6-0.7,1.3-0.8,2
		C603.6,521.8,603.6,522.3,604,522.6L604,522.6z"/>
	<path class="st0" d="M566.5,656.2c2.1,4.5,3.9,9.2,5.3,13.9c0.1,0.4,0.8,0.4,1.1,0.3c0.6-0.2,1.1-0.7,1.5-1.2
		c0.9-1,1.4-2.3,1.1-3.7c-1.4-4.8-3.2-9.4-5.3-13.9c-0.2-0.4-0.7-0.5-1.1-0.3c-0.6,0.3-1.1,0.7-1.5,1.2
		C566.9,653.5,565.9,655.1,566.5,656.2z"/>
	<path class="st0" d="M497.5,602.5c6.7,0.4,13.1,3.2,17.8,8c1.3,1.3,2.4,2.7,3.4,4.3c0.7,1.1,2.1-0.2,2.6-0.9c0.5-0.6,0.9-1.3,1.1-2
		c0.2-0.5,0.2-1.1,0-1.6c-3.9-6-9.8-10.3-16.7-12.2c-1.9-0.5-3.9-0.8-5.8-0.9c-1.2-0.1-2.4,1.6-2.8,2.6
		C496.9,600.5,496.2,602.5,497.5,602.5L497.5,602.5z"/>
	<path class="st0" d="M524.7,515.5c0.1,0.4,0.1,0.8,0.1,1.2c0,0.1,0,0.4,0,0c0,0.1,0,0.2,0,0.3c0,0.2,0,0.5-0.1,0.7
		c-0.1,0.6,0.1-0.3,0,0.1c-0.1,0.2-0.1,0.4-0.2,0.6s0.1-0.3,0.1-0.3c-0.1,0.1-0.1,0.2-0.1,0.3l-0.2,0.3c-0.6,1.1-0.1,2.4,1,3
		s2.4,0.1,3-1c0.6-1.1,0.1-2.4-1-3c-1-0.5-2.2-0.2-2.8,0.7c-0.1,0.2-0.2,0.3-0.3,0.5c-0.4,0.6,0.3-0.4,0,0c-0.1,0.2-0.2,0.3-0.4,0.5
		s-0.1,0.1-0.2,0.2c0.4-0.6,0.2-0.2,0.1-0.1l-0.5,0.4c-0.1,0.1-0.2,0.1-0.3,0.2c0,0,0.4-0.3,0.2-0.1s-0.7,0.5-1.1,0.8l-0.3,0.2h-0.1
		c0.2-0.1,0,0-0.1,0l-0.3,0.1c-0.4,0.2-0.8,0.3-1.3,0.4c-0.8,0.2-1.7,0.3-2.6,0.3c-2,0-3.9-0.4-5.7-1.2c-2.1-0.9-4.1-2.2-5.9-3.7
		c-0.3-0.3-1,0-1.3,0.2c-0.6,0.4-1.1,0.9-1.5,1.6c-0.5,0.8-1.3,2.5-0.4,3.3c3.5,2.9,8.1,5.2,12.8,5.1c4.9-0.3,9.2-3.1,11.6-7.3
		c1.5-2.4,2.1-5.2,1.8-8.1c-0.2-1.3-1.5-0.8-2.2-0.1c-0.6,0.5-1,1.2-1.3,1.9C524.8,514.2,524.7,514.8,524.7,515.5L524.7,515.5z"/>
	<path class="st0" d="M490.6,563.1c0.8,1.4,1.3,2.9,1.5,4.5c0,0.4,0.1,0.8,0.1,1.2v0.3c0,0,0-0.3,0-0.1s0,0.5,0,0.7
		c0,0.4-0.1,0.8-0.2,1.3s0-0.1,0-0.2c0,0.1,0,0.2-0.1,0.3c-0.1,0.2-0.1,0.4-0.2,0.7c-0.1,0.2-0.1,0.4-0.2,0.6c0,0,0.2-0.5,0.1-0.2
		l-0.1,0.3c-0.1,0.2-0.2,0.4-0.2,0.5s-0.2,0.4,0,0s0,0,0,0.1s-0.2,0.4-0.4,0.6c-0.3,0.5,0.4-0.5,0,0c-0.1,0.2-0.2,0.3-0.3,0.4
		l-0.2,0.2l-0.1,0.1c0.3-0.3-0.1,0.1-0.2,0.2c-0.1,0.1-0.3,0.3-0.4,0.4c-0.1,0.1-0.5,0.4-0.2,0.2s0,0,0,0l-0.3,0.2
		c-0.3,0.2-0.7,0.5-1,0.7l-0.3,0.2h-0.1l-0.3,0.2c-0.8,0.3-1.7,0.6-2.5,0.8h-0.1l-0.4,0.1l-0.7,0.1c-0.5,0-0.9,0-1.4,0
		c-1.2,0-2.4,1.6-2.8,2.6c-0.3,0.6-0.9,2.7,0.4,2.7c9.3,0.3,16.6-8.6,16.4-17.5c-0.1-2.3-0.7-4.5-1.8-6.5c-1-1.8-4.7,2.8-3.7,4.5
		L490.6,563.1z"/>
	<path class="st0" d="M504.9,605.3c0.8,2.1,1.4,4.3,1.9,6.5c0.2,1.1,0.4,2.3,0.5,3.4c0,0.2,0,0.5,0,0.7s0,0.7,0,0.3
		c0,0.5,0,1.1-0.1,1.6c0,0.5-0.1,0.9-0.2,1.4c0.1-0.5,0,0-0.1,0.2s-0.1,0.5-0.2,0.8s-0.1,0.2-0.1,0.4c-0.1,0.3,0.1-0.2,0.1-0.2
		c-0.1,0.2-0.1,0.4-0.3,0.6l-0.2,0.3c-0.1,0.3,0.1-0.3,0.2-0.3c-0.2,0.2-0.3,0.4-0.4,0.7c-0.3,0.5,0.1-0.2,0.1-0.2s-0.2,0.3-0.2,0.3
		c-0.1,0.1-0.3,0.3-0.4,0.5c0.2-0.4,0.3-0.3,0.1-0.1l-0.3,0.2l-0.2,0.2c-0.4,0.3-0.1,0,0,0c-0.4,0.2-0.7,0.4-1.1,0.7
		c-0.1,0-0.4,0.2,0,0l-0.2,0.1c-0.2,0.1-0.5,0.2-0.7,0.3c-0.8,0.3-1.7,0.5-2.6,0.4c-0.9,0-1.9-0.2-2.7-0.7c-1.1-0.5-2.3,1-2.8,1.8
		c-0.4,0.6-0.7,1.3-0.8,2c0,0.4-0.1,1,0.4,1.3c4.4,2.2,9.5-0.2,12.4-3.7c3.4-4.3,4.9-9.9,3.9-15.3c-0.6-3-1.4-6-2.4-8.9
		c-0.1-0.4-0.8-0.4-1.1-0.3c-0.6,0.3-1.1,0.7-1.5,1.2C505.1,602.6,504.4,604,504.9,605.3L504.9,605.3z"/>
	<path class="st3" d="M417.2,475.1c5.2-9.2,10.5-18.3,15.4-27.7c4.3-8.1,8.5-17.1,9.4-26.4c0.7-7-1.2-15.3-9.1-16.9
		c-9.2-1.8-17.2,6.8-22.9,12.7c-6.6,6.8-12.7,14.1-18.3,21.8c-11,15.1-20.3,31.3-29.3,47.7c1.4-8.8,2.7-17.6,4.1-26.4
		c0.8-5,1.3-10.3,3.5-15c2.1-4.5,5.4-8.2,8.4-12.1c6.3-8.2,12.1-16.8,17.3-25.8c5-8.6,11.2-18.4,11.7-28.6
		c0.4-7.3-3.3-16.4-11.4-17.5c-9-1.3-16.2,8.6-21.3,14.5c-13,14.8-25.4,30.4-35.1,47.7c-5.6,10-10.3,20.6-13.8,31.5
		c-2.2,6.8-4.1,13.7-5.8,20.6l-0.7-20.1c-0.2-5.2-0.5-10.5,0.4-15.8c0.9-4.7,2.4-9.3,4.4-13.7c4.1-9.5,8.5-18.8,12.8-28.1
		c2.1-4.7,4.4-9.3,6.3-14.1c1.7-4.3,3.1-8.8,2.7-13.5c-0.3-3.7-1.8-7.6-4.8-9.9s-7.5-2.5-11.2-1.3c-8.6,2.9-13.7,11.8-18.7,18.8
		c-11.2,15.7-21.4,31.9-27.8,50.2c-2.2,6.2-3.9,12.4-5.3,18.8c-0.1-0.9-0.1-1.8-0.2-2.7c-0.5-7.3-1.2-14.6-2.1-21.9
		c-0.8-6.6-1.3-13.4-3.2-19.7c-1.6-5.3-4.8-10.6-10.2-12.7s-10.4,0.1-13.9,4.3c-4.2,5-5.4,11.5-6,17.9c-0.5,5.5-1.1,11-1.6,16.5
		c-2.2,24-4.2,48.1-5.6,72.2c-1.4,23.1-2.4,46.2-2.4,69.4c0,9.7,0.2,19.4,0.9,29.1c0.7,9.1,6,17.6,11.7,24.5
		c0.3,0.3,0.5,0.6,0.8,0.9c-3,9.4-5.4,18.9-7.4,28.5c-2.6,12.1-5,24.2-7.1,36.4c-2,11.3-3.9,22.7-5.5,34.1
		c-0.8,5.4,1.7,10.9,7.2,12.7c2.6,0.8,5.5,0.9,8.1,1.2l9.1,1c24.1,2.6,48.3,5,72.4,7.4c5.3,0.5,10.2,0.6,14.9-2.4
		c4.9-3.2,8.4-8.2,9.5-14c2-9.8,3.2-19.8,4.8-29.7c3.3-20.6,6.6-41.1,9-61.8c0.1-0.7,0.1-1.3,0.2-2c6.3-2,11.9-5.8,17.1-9.7
		c5.7-4.2,11.1-8.8,16.2-13.8c15.3-15,27.5-33,35.9-52.7c3-7.2,6.1-14.8,6.2-22.7c0.1-6.2-2-13.2-7.6-16.8
		c-6.4-4.1-14.4-1.2-20.2,2.6c-7.5,4.9-14.5,10.9-21.2,16.7c-4.7,4.1-9.3,8.3-13.8,12.6l27.1-48.4L417.2,475.1z"/>
	<path class="st0" d="M424.4,525.3c-4.2,5.4-7.7,11.3-10.6,17.5c-1.5,3.3-2.9,6.8-3,10.5c0,2.8,1,5.5,2.8,7.7
		c2.1,2.3,4.5,4.2,7.1,5.8c0.4,0.3,1,0,1.3-0.2c0.6-0.4,1.1-1,1.5-1.6c0.4-0.6,0.7-1.3,0.8-2c0-0.4,0-1-0.4-1.3
		c-2.1-1.3-4.1-2.8-5.9-4.5c-0.8-0.8-1.5-1.8-2.1-2.8c-0.6-1-1-2.1-1.1-3.3c0-0.3-0.1-0.7-0.1-1c0-0.3,0-0.5,0-0.8
		c0-0.4,0.1-0.8,0.2-1.1s0-0.1,0,0c0.1-0.3,0.1-0.5,0.2-0.8c0.2-0.7,0.4-1.4,0.7-2.1c-0.2,0.6,0,0.1,0-0.1s0.2-0.3,0.2-0.5
		c0.2-0.4,0.3-0.8,0.5-1.1c0.6-1.4,1.3-2.7,2-4.1c0.2-0.3,0.3-0.6,0.5-0.9c0.1-0.1,0.4-0.8,0-0.1c0.1-0.1,0.2-0.3,0.2-0.4
		c0.4-0.7,0.8-1.4,1.2-2.2c0.8-1.4,1.7-2.8,2.6-4.2c0.5-0.7,0.9-1.4,1.4-2c-0.5,0.6,0,0,0.1-0.1l0.4-0.5l0.8-1.1
		c0.5-0.6,0.9-1.3,1.1-2c0.2-0.5,0.2-1.1,0-1.6c-0.6-1.1-2.2,0.3-2.6,0.8L424.4,525.3z"/>
	<path class="st0" d="M435.1,414.3c-0.6,1.5-1.3,2.9-2,4.3c-0.3,0.7-0.6,1.4-1,2c-0.2,0.3-0.3,0.7-0.5,1c-0.1,0.1-0.1,0.3-0.2,0.4
		c0.2-0.7,0-0.1,0,0.1c-0.4,0.7-0.8,1.3-1.2,1.9c-0.2,0.3-0.4,0.6-0.6,0.9c-0.1,0.2-0.2,0.4-0.4,0.5l0.2-0.3l-0.3,0.4
		c-0.4,0.5-0.8,1.1-1.3,1.6l-0.3,0.3c-0.1,0.1-0.5,0.7,0,0.1c-0.2,0.3-0.5,0.5-0.8,0.8c-0.5,0.4-0.9,0.8-1.4,1.2s0.4-0.3-0.1,0.1
		l-0.3,0.2c-0.3,0.2-0.6,0.5-1,0.7s-0.6,0.3-0.8,0.5l-0.3,0.2c-0.6,0.3,0.4-0.2-0.2,0.1c-0.6,0.3-1.2,0.5-1.9,0.8
		c-0.6,0.2-1.2,0.3-1.8,0.5c0.3-0.1-0.2,0-0.2,0h-0.3c-0.3,0-0.7,0-1,0.1c-1.2,0-2.3-0.1-3.5-0.5c-2.5-0.7-4.7-2.4-6-4.7
		c-0.6-1.1-2.1,0.3-2.6,0.9c-0.5,0.6-0.9,1.3-1.1,2c-0.2,0.5-0.2,1.1,0,1.6c2.8,5,8.9,6.8,14.2,5.4c6.4-1.7,11.3-7.1,14.6-12.5
		c2-3.4,3.8-6.9,5.3-10.5c0.3-0.7,0.9-2.6-0.4-2.7S435.5,413.4,435.1,414.3L435.1,414.3z"/>
	<path class="st0" d="M397.7,371c-0.2,0.6-0.4,1.1-0.6,1.7c0,0.1-0.1,0.3-0.1,0.4c-0.2,0.4,0.2-0.6,0,0l-0.4,0.9
		c-0.5,1.1-1,2.3-1.6,3.3c-0.1,0.1-0.1,0.3-0.2,0.4c0.4-0.6,0.2-0.3,0.1-0.2l-0.5,0.8c-0.3,0.5-0.7,1.1-1,1.6c-0.3,0.5-0.7,1-1,1.5
		c-0.1,0.2-0.2,0.4,0.1-0.1c-0.1,0.1-0.2,0.2-0.2,0.3c-0.2,0.3-0.4,0.6-0.6,0.8c-0.7,1-1.5,1.9-2.3,2.7c0.6-0.5-0.2,0.2-0.3,0.3
		l-0.6,0.6l-0.7,0.6l-0.3,0.3c-0.1,0.1-0.6,0.5-0.1,0.1c-0.4,0.3-0.9,0.6-1.4,0.9c-0.3,0.2-0.1,0.1,0,0l-0.4,0.2
		c-0.3,0.1-0.6,0.2-1,0.3c-1.1,0.3-2.2,0.3-3.3,0c-2.6-0.6-4.9-2.5-6.8-4.2c-0.3-0.3-1,0-1.3,0.2c-0.6,0.4-1.1,1-1.5,1.6
		c-0.5,0.9-1.3,2.4-0.4,3.3c1.9,1.9,4.2,3.4,6.7,4.2c2.8,0.8,5.7,0.3,8.1-1.4c2.4-1.7,4.6-3.8,6.4-6.2c1.8-2.2,3.4-4.6,4.8-7.1
		c1.7-3,3-6.1,4.1-9.3c0.3-0.8,0.2-2.4-1.1-1.9C399,368.4,398.1,369.5,397.7,371L397.7,371z"/>
	<path class="st0" d="M338.9,366.6c-1.1,2.6-2.2,5.1-3.6,7.6c0.4-0.7-0.2,0.3-0.3,0.5s-0.3,0.5-0.5,0.8c-0.4,0.7-0.8,1.3-1.2,1.9
		c-0.1,0.1-0.2,0.2-0.2,0.4c0.2-0.5,0.2-0.3,0.1-0.1s-0.4,0.5-0.5,0.7c-0.4,0.5-0.8,1-1.2,1.5c0,0-0.5,0.5-0.2,0.2l-0.1,0.1
		l-0.7,0.6c-0.2,0.2-0.4,0.4-0.7,0.6l-0.4,0.3c-0.1,0.1-0.6,0.5-0.1,0.1c-0.5,0.3-0.9,0.7-1.4,1c-0.2,0.2-0.5,0.3-0.8,0.5l-0.3,0.2
		c-0.1,0-0.5,0.3-0.2,0.1c-2,1-4.3,1.5-6.6,1.3c-2.6-0.1-5-1.2-6.8-3c-0.3-0.3-1.1,0.1-1.3,0.2c-0.6,0.4-1.1,0.9-1.5,1.6
		c-0.5,0.9-1.3,2.4-0.4,3.3c3.8,3.7,9.8,4,14.5,2c5.6-2.5,9.8-7.3,12.7-12.5c1.8-3.1,3.3-6.4,4.7-9.7c0.3-0.7,0.9-2.6-0.4-2.7
		S339.3,365.8,338.9,366.6L338.9,366.6z"/>
	<path class="st0" d="M260.5,398.2c0.3,5.2,0,10.3-0.8,15.4c-0.1,0.6-0.2,1.1-0.3,1.7c0,0.2-0.1,0.5-0.1,0.8c0,0.1,0,0.2-0.1,0.3
		c0.2-0.6,0,0,0,0.1c-0.1,0.5-0.2,1-0.4,1.4c0,0.1-0.1,0.2-0.1,0.4c-0.1,0.4,0.2-0.5,0-0.1s-0.2,0.5-0.3,0.8
		c-0.2,0.5,0.1-0.2,0.1-0.2c-0.1,0.1-0.1,0.2-0.2,0.3l-0.2,0.3c-0.2,0.4,0-0.1,0.1-0.2c-0.1,0-0.6,0.7-0.2,0.3s0,0-0.1,0.1
		c-0.1,0.1-0.2,0.2-0.4,0.3c0.5-0.3-0.1,0.1-0.2,0.2s-0.7,0.4-0.3,0.2c-0.5,0.2-1,0.4-1.5,0.5c-0.5,0.1-0.9,0.2-1.4,0.2
		c-0.6,0.1-1.1,0.1-1.7,0.1c-1.2,0-2.3-0.1-3.5-0.2c-1.9-0.2-4.5,5.1-2.4,5.3c2.4,0.3,4.7,0.2,7.1-0.2c2.8-0.7,5.3-2.5,6.8-5
		c1.5-2.4,2.5-5.1,2.9-7.9c0.5-2.8,0.8-5.6,1-8.5c0.2-3.4,0.3-6.8,0.1-10.1c-0.1-1.4-1.6-0.7-2.2-0.1
		C261.1,395.3,260.5,396.7,260.5,398.2L260.5,398.2z"/>
	<path class="st0" d="M275.7,444.8c0.5,8.6,0.1,17.3,0.5,26c0.1,1.4,1.6,0.7,2.2,0.1c1.1-1,1.7-2.3,1.7-3.8
		c-0.5-8.6-0.1-17.3-0.5-26c-0.1-1.4-1.6-0.7-2.2-0.1C276.3,442,275.7,443.3,275.7,444.8z"/>
	<path class="st2" d="M358.6,689.3c-16-3.1-32.1-5.8-48.2-8s-32.3-4-48.3-5.4c-9.1-0.8-18.2-1.4-27.3-1.9c-1.2-0.1-2.3,1.1-2.9,1.9
		c-1,1.1-1.6,2.5-1.9,4l-1.3,7.5l-2,12l-0.5,2.8c-0.1,0.3-0.1,0.5,0,0.8c0,0.7,0.3,1.2,1.1,1.3c16.3,0.9,32.5,2.3,48.7,4
		c16.2,1.7,32.3,3.9,48.2,6.6c9,1.5,18,3.1,26.9,4.8c1.1,0.2,2.3-1.2,2.9-1.9c1-1.1,1.6-2.5,1.9-4l1.3-7.5l2-12l0.5-2.8
		C359.9,690.4,359.6,689.5,358.6,689.3z"/>
	<path class="st1" d="M280.5,669.7c-1.5-0.1-2.6-1.3-2.6-2.8c0.1-1.5,1.3-2.6,2.8-2.6s2.6,1.3,2.6,2.8c-0.1,1.4-1.2,2.5-2.6,2.6"/>
	<path class="st1" d="M311.2,680.2c-2.3-4.7-5.7-9.4-10.4-12c-2.7-1.4-5.6-2.3-8.6-2.6c-2.5-0.3-5-0.2-7.5,0.2c0-0.2,0-0.4,0-0.6
		c0-0.5-0.1-1-0.2-1.4c-0.2-0.6-0.6-1.2-1.2-1.6c-0.3-0.2-0.7-0.3-1-0.4c-0.3-0.1-0.5-0.1-0.8-0.1c-0.8,0-1.7,0.3-2.4,0.7
		c-0.4,0.2-0.8,0.5-1.1,0.9c-0.7,0.7-1.3,1.5-1.7,2.4c-0.5,1-0.7,2.1-0.6,3.2c-3.5,1.9-6.7,4.4-9.2,7.5c-7.7,9.2-10.8,23.2-5.1,34.2
		c5.5,9.9,16.6,15.4,27.8,13.8c6-1.1,11.5-4,15.7-8.4c4.1-4.3,7-9.6,8.5-15.4c0.4-1.4,0.7-2.8,1-4.3c0-0.1,0-0.3,0-0.4
		C315,690.5,313.5,685,311.2,680.2z"/>
</g>
<g id="Others">
	<path class="st1" d="M50,396.6c8.4-5,15.1-12.6,19-21.5c3.6-8.2,4.7-17.3,3.3-26.1c-0.8-4.7-2.4-9.3-4.8-13.4
		c-0.6-1.1-2.1,0.3-2.6,0.9c-0.8,1-1.6,2.4-1.1,3.7c1.4,4.3,4,8.2,7.4,11.2c3,2.4,6.5,4,10.3,4.6c3.9,0.6,7.8,0.6,11.7-0.1
		c4.3-0.7,8.5-1.8,12.6-3.2c4.3-1.5,8.5-3.2,12.7-5c1.3-0.6,2.2-1.8,2.6-3.2c0.2-0.9,0.2-2.3-1.1-1.9c-4.8,1.1-9.3,3.4-13.1,6.6
		c-3.5,3.1-6.2,7.1-7.7,11.6c-2.9,8.3-1.6,17.5,1.2,25.6c1.7,4.8,3.9,9.4,6.5,13.8l3.7-4.5c-4-6-9.6-10.9-16.1-14.1
		c-7.2-3.5-15.4-4.2-23-1.9c-5.3,1.7-10.3,4.6-14.5,8.3c-1.1,0.9-1.8,2.3-1.8,3.8c0.2,1.4,1.5,0.7,2.2,0.1l0.8-0.6l0.4-0.3
		c0.1,0,0.4-0.3,0.1,0c0.5-0.4,1-0.8,1.5-1.1c1-0.7,2-1.3,3-1.9l1.4-0.8l0.2-0.1l0.2-0.1l0.8-0.4c1-0.4,2-0.8,3-1.2
		c3.6-1.3,7.4-1.8,11.2-1.5c7.1,0.6,13.9,3.5,19.3,8.2c2.9,2.4,5.4,5.2,7.5,8.3c1.2,1.8,4.7-2.9,3.7-4.5c-2.3-3.8-4.3-7.7-5.8-11.9
		c-0.4-1-0.7-2-1-3c-0.1-0.3-0.2-0.5-0.2-0.8s-0.1-0.2-0.1-0.4s-0.2-0.5,0-0.1c-0.1-0.5-0.3-1-0.4-1.6c-0.5-2-0.9-4-1.1-6.1
		c-0.1-1-0.2-2-0.2-3c0-0.5,0-0.9,0-1.4c0-0.3,0.1-0.4,0,0c0-0.1,0-0.2,0-0.3v-0.8c0-1,0.1-1.9,0.3-2.9c0.1-0.4,0.1-0.9,0.2-1.3
		c0.1-0.7-0.1,0.5,0-0.1l0.2-0.8c0.1-0.5,0.3-0.9,0.4-1.3l0.2-0.6c0-0.1,0.1-0.2,0.1-0.3s-0.3,0.8-0.1,0.2c0.1-0.4,0.3-0.8,0.5-1.2
		l0.3-0.6l0.1-0.3c0.2-0.5-0.4,0.8-0.1,0.1c0.2-0.4,0.4-0.7,0.6-1.1c0.1-0.2,0.2-0.4,0.4-0.5s0.5-0.6-0.2,0.2l0.2-0.3
		c0.3-0.4,0.6-0.7,0.9-1.1l0.5-0.5c-0.7,0.8,0,0,0.1-0.1c0.4-0.4,0.8-0.7,1.2-1.1c0.2-0.2,0.4-0.3,0.6-0.5c-0.6,0.5,0.1-0.1,0.3-0.2
		c0.9-0.7,1.9-1.3,2.9-1.8l0.4-0.2c-0.5,0.3,0,0,0,0l0.8-0.4c0.6-0.3,1.2-0.5,1.8-0.7c1.3-0.5,2.7-0.9,4.1-1.3l1.5-5.2
		c-7.5,3.2-15.1,6.3-23.2,7.8l-0.7,0.1l-0.4,0.1l-1.5,0.2c-1,0.1-2,0.2-3,0.3c-1.9,0.1-3.8,0.1-5.8-0.1c-0.9-0.1-1.8-0.3-2.7-0.5
		l-0.7-0.2l-0.4-0.1c-0.4-0.1-0.9-0.3-1.3-0.4c-1.7-0.6-3.4-1.5-4.8-2.6c-0.9-0.6-1.7-1.3-2.4-2.1c-0.2-0.2-0.4-0.4-0.6-0.6
		c0.2,0.2-0.1-0.1-0.1-0.1l-0.3-0.3c-0.4-0.4-0.7-0.9-1-1.4c-1.5-2.2-2.7-4.6-3.6-7.1l-3.7,4.5c1,1.8,1.9,3.6,2.6,5.5
		c0.4,0.9,0.7,1.8,1,2.8l0.1,0.3c-0.1-0.3,0,0,0,0.1l0.2,0.7c0.1,0.5,0.2,1,0.4,1.5c0.4,2,0.7,3.9,0.9,6c0.1,1,0.1,2,0.1,3v0.3
		c0-0.5,0-0.2,0-0.1c0,0.3,0,0.5,0,0.8c0,0.5,0,1-0.1,1.6c-0.1,1-0.2,2-0.3,3c-0.1,0.5-0.1,0.9-0.2,1.4l-0.1,0.8l-0.1,0.3
		c-0.1,0.5,0.1-0.5,0,0c-0.2,1-0.5,2-0.8,3c-0.1,0.5-0.3,1-0.5,1.4l-0.2,0.6c-0.1,0.2-0.5,1.2-0.1,0.4c-0.4,0.9-0.8,1.9-1.2,2.8
		c-0.2,0.4-0.4,0.9-0.6,1.3c-0.1,0.2-0.6,1.1-0.1,0.2l-0.4,0.7c-0.5,0.9-1.1,1.8-1.6,2.6l-0.5,0.7c-0.3,0.4,0.2-0.2,0.2-0.2
		s-0.2,0.2-0.2,0.3c-0.3,0.4-0.7,0.9-1,1.3s-0.7,0.9-1.1,1.3l-0.7,0.7l-0.3,0.3c0.5-0.6,0.2-0.2,0,0c-0.9,0.9-1.7,1.7-2.7,2.5
		c-0.5,0.4-0.9,0.8-1.4,1.2s0.3-0.2,0,0l-0.5,0.4l-0.7,0.5c-1.1,0.8-2.2,1.5-3.3,2.1c-1.2,0.8-2.1,2.1-2.2,3.6c0,0.4,0,1,0.4,1.3
		s1,0,1.3-0.2L50,396.6z"/>
	<path class="st1" d="M84.5,317.9c10-5.9,16.1-18.1,14.1-29.7c-0.5-2.9-1.5-5.6-2.9-8.2c-0.6-1.1-2.1,0.3-2.6,0.9
		c-0.8,1-1.6,2.4-1.1,3.7c0.9,2.6,2.4,4.9,4.4,6.7c1.8,1.5,4,2.4,6.2,2.8c4.8,0.9,9.9-0.4,14.5-2c2.6-0.9,5.1-1.9,7.6-3
		c1.3-0.6,2.2-1.8,2.6-3.2c0.2-0.9,0.2-2.3-1.1-1.9c-3,0.7-5.8,2.1-8.1,4.1c-2.4,2.1-4.2,4.8-5.2,7.8c-1.9,5.1-1.1,10.7,0.6,15.8
		c1,2.9,2.3,5.7,3.9,8.3l3.7-4.5c-2.4-3.6-5.7-6.6-9.7-8.5c-4.3-2.1-9.3-2.5-13.9-1.1c-3.3,1.1-6.3,2.8-8.9,5.1
		c-1.1,0.9-1.8,2.3-1.8,3.8c0.2,1.4,1.5,0.7,2.2,0.1l0.5-0.4c0.3-0.3-0.5,0.3,0.1-0.1l0.8-0.5c0.6-0.4,1.2-0.8,1.9-1.2l0.8-0.4
		c0.6-0.3-0.2,0.1,0.2-0.1l0.5-0.2c0.6-0.3,1.2-0.5,1.8-0.7c1-0.3,2.1-0.6,3.1-0.7c1.1-0.1,2.2-0.2,3.3-0.1
		c4.1,0.4,8.1,2.1,11.2,4.8c1.7,1.4,3.1,3,4.3,4.8c1.2,1.8,4.7-2.9,3.7-4.5c-1.3-2.2-2.5-4.5-3.4-6.8c-0.2-0.6-0.4-1.2-0.6-1.8
		l-0.3-0.8c0-0.2,0,0,0,0.1l-0.1-0.2c0-0.2-0.1-0.3-0.1-0.5c-0.3-1.2-0.5-2.3-0.7-3.5c-0.1-0.6-0.1-1.2-0.1-1.7c0-0.3,0-0.5,0-0.8
		c0-0.1,0-0.5,0-0.2s0-0.2,0-0.3c0-0.6,0.1-1.1,0.1-1.7c0-0.3,0.1-0.5,0.1-0.8c0-0.1,0-0.1,0-0.2c0-0.3-0.1,0.3-0.1,0.3
		s0.1-0.3,0.1-0.4l0.2-0.7l0.1-0.4l0.1-0.2c0.1-0.3-0.1,0.3-0.1,0.3c0.1-0.2,0.2-0.5,0.3-0.7s0.1-0.2,0.2-0.3s0.3-0.6,0-0.1
		s0,0.1,0,0s0.1-0.2,0.2-0.3c0.1-0.1,0.1-0.2,0.2-0.3c0.3-0.5-0.4,0.5-0.1,0.2c0.2-0.2,0.3-0.4,0.5-0.6s0.2-0.2,0.3-0.3l-0.3,0.3
		l0.2-0.2c0.2-0.2,0.4-0.4,0.7-0.6c0.1-0.1,0.2-0.2,0.4-0.3s-0.5,0.3-0.2,0.2l0.2-0.2c0.5-0.4,1.1-0.8,1.7-1.1l0.2-0.1
		c-0.1,0.1-0.3,0.2-0.1,0l0.5-0.2c0.3-0.2,0.7-0.3,1-0.4c0.8-0.3,1.6-0.5,2.4-0.7l1.5-5.2c-4.3,2-8.9,3.5-13.5,4.6l-0.4,0.1H112
		l-0.9,0.1c-0.6,0.1-1.1,0.1-1.7,0.2c-1.1,0.1-2.3,0.1-3.4-0.1c-0.5-0.1-1.1-0.2-1.6-0.3l-0.7-0.2c0.2,0.1,0,0-0.1,0l-0.4-0.1
		c-1-0.4-2-0.9-2.9-1.5c-0.5-0.4-1-0.8-1.4-1.2l-0.2-0.2c0.1,0.1-0.2-0.2-0.2-0.3c-0.2-0.3-0.4-0.5-0.6-0.8
		c-0.9-1.3-1.6-2.7-2.1-4.2l-3.7,4.5c0.6,1,1.1,2.1,1.5,3.2c0.4,1,0.7,2,0.9,3c0.2,1.1,0.4,2.3,0.5,3.4c0,0.6,0.1,1.2,0.1,1.7
		c0,0.1,0,0.6,0,0.1c0,0.1,0,0.2,0,0.3c0,0.3,0,0.7,0,1c0,0.5-0.1,1.1-0.2,1.7c0,0.3-0.1,0.6-0.1,0.9c0,0.1,0,0.3-0.1,0.4l-0.1,0.3
		c0,0.3,0,0.2,0-0.2c-0.1,0.2-0.2,0.5-0.2,0.8c-0.1,0.3-0.1,0.6-0.2,0.8c-0.2,0.6-0.4,1.2-0.6,1.7c0.3-0.9,0,0-0.1,0.2
		s-0.2,0.6-0.4,0.9s-0.2,0.5-0.4,0.7s-0.1,0.3-0.2,0.4c0.4-0.9,0.2-0.3,0.1-0.1c-0.3,0.5-0.6,1-0.9,1.5l-0.3,0.4
		c-0.3,0.4,0.2-0.2,0.2-0.2c-0.2,0.3-0.5,0.6-0.7,0.9s-0.4,0.5-0.6,0.8l-0.3,0.3c-0.5,0.5,0.4-0.4,0,0s-1,1-1.5,1.5
		c-0.3,0.3-0.6,0.5-0.9,0.7c0.5-0.3,0.2-0.1,0,0l-0.5,0.4c-0.6,0.5-1.3,0.9-1.9,1.3c-1.2,0.8-2.1,2.1-2.2,3.6c0,0.4,0,1,0.4,1.3
		s1,0,1.3-0.2L84.5,317.9z"/>
	<path class="st1" d="M34.3,321.1c8.1-4.8,13.1-14.7,11.5-24.1c-0.4-2.3-1.2-4.5-2.3-6.5c-0.6-1.1-2.1,0.3-2.6,0.8
		c-0.8,1-1.6,2.4-1.1,3.7c0.7,2.1,1.9,3.9,3.5,5.3c1.4,1.1,3.1,1.9,4.9,2.2c3.8,0.7,7.8-0.3,11.4-1.5c2-0.7,4-1.5,6-2.3
		c1.3-0.6,2.2-1.8,2.6-3.2c0.2-0.9,0.2-2.3-1.1-1.9c-2.4,0.6-4.7,1.7-6.6,3.4c-2,1.8-3.5,4.1-4.4,6.6c-1.5,4.1-0.9,8.5,0.4,12.6
		c0.8,2.3,1.8,4.5,3.1,6.6l3.7-4.5c-4.1-6-11.4-9.7-18.6-7.5c-2.6,0.9-5.1,2.3-7.2,4.1c-1.1,0.9-1.8,2.3-1.7,3.8
		c0.2,1.4,1.5,0.7,2.2,0.1l0.4-0.3l0,0l0.7-0.5c0.5-0.3,0.9-0.6,1.4-0.9l0.7-0.4c-0.3,0.2,0.3-0.1,0.4-0.2c0.5-0.2,0.9-0.4,1.4-0.5
		c1.6-0.5,3.2-0.8,4.9-0.6c3.2,0.3,6.2,1.6,8.6,3.7c1.3,1.1,2.4,2.3,3.4,3.7c1.2,1.8,4.7-2.9,3.7-4.5c-1-1.7-1.9-3.5-2.6-5.3
		c-0.2-0.4-0.3-0.8-0.5-1.3c-0.1-0.2-0.1-0.5-0.2-0.7s0-0.1,0,0c0-0.2-0.1-0.3-0.1-0.4c-0.2-0.9-0.4-1.9-0.5-2.8
		c0-0.4-0.1-0.8-0.1-1.2c0-0.2,0-0.5,0-0.7c0-0.1,0-0.2,0-0.3c0.1,0.1,0,0.5,0,0s0-0.8,0.1-1.2c0-0.2,0.1-0.4,0.1-0.6
		c0-0.1,0-0.2,0-0.3c0.1-0.5-0.2,0.6,0,0.1c0.1-0.4,0.2-0.8,0.4-1.2c0,0-0.3,0.7-0.1,0.3l0.1-0.2c0.1-0.2,0.2-0.4,0.3-0.7
		c0,0-0.4,0.7-0.2,0.4l0.2-0.3c0.2-0.2,0.6-0.8-0.1,0.1l0.4-0.5l0.2-0.2c0.3-0.4-0.5,0.5-0.1,0.2c0.2-0.2,0.4-0.3,0.5-0.5
		s0.2-0.1,0.3-0.2c-0.5,0.5-0.3,0.2-0.1,0.1c0.4-0.3,0.9-0.6,1.4-0.8c0.1-0.1,0.4-0.2-0.1,0l0.4-0.2c0.3-0.1,0.6-0.2,0.9-0.4
		c0.6-0.2,1.2-0.4,1.8-0.5l1.5-5.2c-3.4,1.6-7,2.8-10.6,3.6h-0.3c0.4-0.1,0,0,0,0l-0.6,0.1c-0.5,0.1-1,0.1-1.4,0.1
		c-0.9,0.1-1.7,0.1-2.6,0c-0.4,0-0.9-0.1-1.3-0.2l-0.5-0.1c0.3,0.1-0.1,0-0.1,0l-0.4-0.1c-1.2-0.4-2.4-1.2-3.3-2.1l-0.2-0.2
		c0.2,0.2-0.1-0.1-0.1-0.1l-0.5-0.6c-0.7-1-1.2-2.1-1.6-3.2l-3.7,4.5c0.4,0.8,0.8,1.6,1.2,2.5c0.2,0.4,0.3,0.8,0.4,1.2
		c0,0.1,0.1,0.3,0,0c0,0.1,0.1,0.2,0.1,0.3s0.1,0.5,0.2,0.7c0.2,0.9,0.3,1.8,0.4,2.7c0,0.4,0,0.8,0.1,1.2v0.3c0-0.5,0-0.2,0-0.1
		s0,0.5,0,0.8s-0.1,0.8-0.1,1.2c0,0.2-0.1,0.5-0.1,0.7c-0.1,0.2-0.1,0.5-0.1,0.7c-0.1-0.3,0.1-0.4,0-0.1c0,0.1,0,0.2-0.1,0.3
		l-0.2,0.6c-0.1,0.5-0.3,0.9-0.5,1.4s0.2-0.6,0.1-0.2c0,0.1-0.1,0.2-0.1,0.3l-0.3,0.7l-0.3,0.6c-0.1,0.1-0.1,0.2-0.1,0.3l0.2-0.4
		l-0.1,0.3c-0.2,0.4-0.4,0.8-0.7,1.1l-0.2,0.3c-0.3,0.4,0.2-0.2,0.2-0.2c-0.2,0.2-0.3,0.4-0.5,0.7s-0.4,0.4-0.5,0.6l-0.2,0.2
		c-0.3,0.4,0.3-0.3,0.1-0.1s-0.8,0.8-1.2,1.1c-0.2,0.2-0.4,0.4-0.7,0.5c0.4-0.2,0.2-0.2,0.1-0.1l-0.4,0.3c-0.5,0.3-1,0.7-1.5,1
		c-1.2,0.8-2.1,2.1-2.2,3.6c0,0.4,0,1,0.4,1.3S34.1,321.3,34.3,321.1L34.3,321.1z"/>
	<path class="st0" d="M2,667.6l170.1,3.3V446.6L2,443.3L2,667.6z"/>
	<path class="st4" d="M0.8,670.2l66.4,1.3l66.4,1.3l37.3,0.7c1.9,0,3.2-2.9,3.2-4.5V453.9c0-2.9,0.1-5.8,0-8.7v-0.4
		c0-0.4-0.3-0.8-0.8-0.8l-66.4-1.3l-66.4-1.3l-37.3-0.7c-1.9,0-3.2,2.9-3.2,4.5v215.2c0,2.9-0.1,5.8,0,8.7v0.4
		c0,1.4,1.7,0.6,2.2,0.1c1.1-1,1.7-2.3,1.8-3.8V450.6c0-2.9,0.1-5.8,0-8.7v-0.4l-3.2,4.5l66.4,1.3l66.4,1.3l37.3,0.7l-0.8-0.8v215.2
		c0,2.9-0.1,5.8,0,8.7v0.4l3.2-4.5l-66.4-1.3l-66.4-1.3l-37.3-0.7C1.3,664.9-1.2,670.2,0.8,670.2z"/>
	<path class="st4" d="M14.5,437.2l-0.3,23.6c0,0.4,0,1,0.4,1.3c0.4,0.2,0.9,0.1,1.3-0.2c1.2-0.8,2-2.1,2.2-3.6l0.3-23.6
		c0-0.4,0-1-0.4-1.3c-0.4-0.2-0.9-0.1-1.3,0.2C15.5,434.5,14.7,435.8,14.5,437.2L14.5,437.2z"/>
	<path class="st4" d="M28.6,437.2l-0.3,23.6c0,0.4,0,1,0.4,1.3c0.4,0.2,0.9,0.1,1.3-0.2c1.2-0.8,2-2.1,2.2-3.6l0.3-23.6
		c0-0.4,0-1-0.4-1.3c-0.4-0.2-0.9-0.1-1.3,0.2C29.6,434.5,28.8,435.8,28.6,437.2L28.6,437.2z"/>
	<path class="st4" d="M42.7,437.2l-0.3,23.6c0,0.4,0,1,0.4,1.3c0.4,0.2,0.9,0.1,1.3-0.2c1.2-0.8,2-2.1,2.2-3.6l0.3-23.6
		c0-0.4,0-1-0.4-1.3c-0.4-0.2-0.9-0.1-1.3,0.2C43.7,434.5,42.9,435.8,42.7,437.2L42.7,437.2z"/>
	<path class="st4" d="M56.8,437.2l-0.3,23.6c0,0.4,0,1,0.4,1.3c0.4,0.2,0.9,0.1,1.3-0.2c1.2-0.8,2-2.1,2.2-3.6l0.3-23.6
		c0-0.4,0-1-0.4-1.3c-0.4-0.2-0.9-0.1-1.3,0.2C57.8,434.5,57,435.8,56.8,437.2L56.8,437.2z"/>
	<path class="st4" d="M70.9,437.2l-0.3,23.6c0,0.4,0,1,0.4,1.3s1,0,1.3-0.2c1.2-0.8,2-2.1,2.2-3.6l0.4-23.6c0-0.4,0-1-0.4-1.3
		c-0.4-0.2-0.9-0.1-1.3,0.2C71.9,434.5,71.1,435.8,70.9,437.2L70.9,437.2z"/>
	<path class="st4" d="M85,437.2l-0.3,23.6c0,0.4,0,1,0.4,1.3c0.4,0.2,0.9,0.1,1.3-0.2c1.2-0.8,2-2.1,2.2-3.6l0.3-23.6
		c0-0.4,0-1-0.4-1.3c-0.4-0.2-0.9-0.1-1.3,0.2C86,434.5,85.2,435.8,85,437.2L85,437.2z"/>
	<path class="st4" d="M99.1,437.2l-0.3,23.6c0,0.4,0,1,0.4,1.3c0.4,0.2,0.9,0.1,1.3-0.2c1.2-0.8,2-2.1,2.2-3.6l0.3-23.6
		c0-0.4,0-1-0.4-1.3c-0.4-0.2-0.9-0.1-1.3,0.2C100.1,434.5,99.3,435.8,99.1,437.2L99.1,437.2z"/>
	<path class="st4" d="M113.2,437.2l-0.3,23.6c0,0.4,0,1,0.4,1.3c0.4,0.2,0.9,0.1,1.3-0.2c1.2-0.8,2-2.1,2.2-3.6l0.3-23.6
		c0-0.4,0-1-0.4-1.3c-0.4-0.2-0.9-0.1-1.3,0.2C114.3,434.5,113.4,435.8,113.2,437.2L113.2,437.2z"/>
	<path class="st4" d="M127.3,437.2l-0.4,23.6c0,0.4,0,1,0.4,1.3c0.4,0.2,1,0.1,1.3-0.2c1.2-0.8,2-2.1,2.2-3.6l0.3-23.6
		c0-0.4,0-1-0.4-1.3c-0.4-0.2-0.9-0.1-1.3,0.2C128.3,434.5,127.5,435.8,127.3,437.2L127.3,437.2z"/>
	<path class="st4" d="M155.5,437.2l-0.3,23.6c0,0.4,0,1,0.4,1.3c0.4,0.2,0.9,0.1,1.3-0.2c1.2-0.8,2-2.1,2.2-3.6l0.3-23.6
		c0-0.4,0-1-0.4-1.3c-0.4-0.2-0.9-0.1-1.3,0.2C156.5,434.5,155.7,435.8,155.5,437.2L155.5,437.2z"/>
	<path class="st4" d="M141.4,437.2l-0.3,23.6c0,0.4,0,1,0.4,1.3c0.4,0.2,0.9,0.1,1.3-0.2c1.2-0.8,2-2.1,2.2-3.6l0.3-23.6
		c0-0.4,0-1-0.4-1.3c-0.4-0.2-0.9-0.1-1.3,0.2C142.4,434.5,141.6,435.8,141.4,437.2L141.4,437.2z"/>
	<path class="st4" d="M54.2,516.4c3.5,4.2,9,6.2,14.3,5.1c5.7-1.1,10.4-6,12.5-11.2c1.1-2.9,1.9-6.6,0.5-9.5c-0.6-1.3-1.7-2.2-3-2.7
		c-1.7-0.4-3.4,0-4.6,1.2c-1.5,1.3-2.6,3.1-3.2,5c-0.5,1.8-0.5,3.6-0.1,5.4c0.6,3,1.4,6.4,3.1,9s4.8,4.7,8.1,4
		c1.8-0.5,3.4-1.5,4.5-3c1.5-1.7,2.3-4,2.1-6.3c0-0.5-0.4-0.8-0.8-0.8c-0.1,0-0.2,0-0.4,0.1c-0.9,0.4-1.6,1-2,1.8
		c-1.4,2-1.9,4.6-1.4,7c0.4,1.9,1.5,3.6,3.1,4.8c1.6,1.2,3.7,1.5,5.6,1c5.4-2,8.7-7.3,8.1-13c-0.2-1.1-1.2-0.9-2-0.3
		c-1.1,0.8-1.8,2.1-2,3.4c-0.2,1.3,0.2,2.7,1,3.7c0.8,1,1.8,1.7,3,2c3,0.9,6-0.4,8.1-2.6c2.5-2.8,4.4-6.1,5.5-9.6
		c2.6-7.3,3.4-15.1,2.4-22.8c-0.1-1.2-1.3-0.8-2-0.3c-1.1,0.8-1.8,2-2,3.4c-0.4,5.4-1.6,10.7-2,16.2c-0.4,4.6,0.1,9.2,1.6,13.5
		c1.3,3.8,3.8,7,7.3,9c4.3,2.2,9.4,2.1,13.6-0.3c5.1-3.1,8.4-8.6,8.7-14.6c0-0.4,0-1-0.4-1.3c-0.4-0.2-1-0.1-1.3,0.2
		c-1.2,0.8-2,2.1-2.2,3.6c0,0.5,0,1-0.1,1.5c0,0.2-0.1,0.4-0.1,0.7s0.1-0.4,0-0.1l-0.1,0.5c-0.1,0.2-0.1,0.4-0.2,0.6
		c-0.2,0.7,0.2-0.5-0.1,0.2l-0.3,0.6l-0.2,0.3c-0.3,0.6,0.3-0.4,0.1-0.1s-0.3,0.4-0.4,0.7s-0.1,0.2-0.1,0.2c0.3-0.6,0.3-0.4,0.1-0.2
		s-0.3,0.4-0.5,0.6c-0.1,0.1-0.2,0.2-0.2,0.3c0.1-0.2,0.4-0.4,0,0c-0.2,0.2-0.3,0.3-0.5,0.5s-0.7,0.6-0.2,0.2
		c-0.4,0.3-0.8,0.6-1.3,0.9c-0.1,0-0.7,0.4-0.4,0.2c-0.2,0.1-0.4,0.2-0.6,0.3c-0.5,0.2-1.1,0.4-1.6,0.5c-0.9,0.2-1.9,0.3-2.8,0.3
		c-2,0-3.9-0.5-5.7-1.4c-3.1-1.8-5.4-4.7-6.6-8.1c-0.2-0.4-0.3-0.8-0.5-1.2l-0.2-0.5c0,0.2,0-0.1,0-0.1c0-0.2-0.1-0.3-0.1-0.5
		c-0.2-0.9-0.4-1.8-0.5-2.7c-0.3-2-0.3-4.1-0.1-6.2c0.4-5.7,1.7-11.2,2.1-16.9l-4,3.1c0.2,1.6,0.3,3.2,0.4,4.8c0,0.4,0,0.8,0,1.1
		v0.5c0-0.3,0,0.2,0,0.2c0,0.8,0,1.6-0.1,2.4c-0.1,1.6-0.3,3.2-0.6,4.8c-0.1,0.3-0.1,0.7-0.2,1s0.1-0.6,0,0.2c0,0.2-0.1,0.3-0.1,0.5
		c-0.2,0.8-0.4,1.6-0.6,2.4s-0.5,1.5-0.7,2.2c-0.1,0.4-0.2,0.7-0.4,1.1c0-0.1,0.2-0.5,0,0c-0.1,0.2-0.2,0.4-0.3,0.7
		c-0.2,0.5-0.5,1.1-0.7,1.6l-0.1,0.2c-0.2,0.3-0.1,0.2,0.1-0.2c-0.1,0.1-0.1,0.2-0.2,0.3c-0.2,0.3-0.4,0.6-0.6,1s0.1-0.2,0.1-0.2
		c-0.1,0.1-0.3,0.3-0.4,0.4s-0.2,0.2-0.2,0.3c-0.4,0.5,0.5-0.4,0,0c-0.2,0.2-0.4,0.4-0.7,0.6c0.1,0,0.5-0.3,0.1-0.1l-0.5,0.3
		c-0.1,0-0.6,0.3-0.1,0.1l-0.3,0.2c-0.2,0.1-0.5,0.2-0.8,0.2c-0.5,0.1,0.2,0-0.1,0s-0.2,0-0.4,0c-0.3,0-0.6,0-0.9,0
		c-0.3,0-0.6-0.1-0.8-0.1c-0.3-0.1,0.3,0.1-0.1,0l-0.4-0.2c-0.6-0.2-1.1-0.5-1.5-0.9l-0.2-0.2c-0.2-0.2,0.1,0.1-0.1-0.1
		c-0.2-0.2-0.3-0.5-0.5-0.7c0-0.1-0.1-0.2-0.1-0.3c0-0.1,0-0.1,0,0.1l-0.1-0.3v-0.3c0-0.2,0-0.2,0,0.1c0-0.1,0-0.2,0-0.3l-4,3.1
		c0.1,0.4,0.1,0.8,0.1,1.2c0,0.1,0,0.4,0,0c0,0.1,0,0.2,0,0.2c0,0.2-0.1,0.4-0.1,0.7c0,0.3,0-0.3,0-0.2c0,0.1,0,0.2-0.1,0.3
		c0,0.1-0.2,0.8-0.1,0.3s-0.1,0.2-0.1,0.3s-0.2,0.4,0-0.1s0,0-0.1,0.1l-0.1,0.2c-0.2,0.3,0.4-0.5,0.2-0.2s-0.2,0.3-0.4,0.5
		c-0.3,0.4,0.4-0.4,0,0c-0.1,0-0.4,0.5-0.5,0.4s0.4-0.3,0.1-0.1l-0.3,0.2l-0.4,0.3c-0.3,0.2,0,0,0,0l-0.2,0.1l-0.6,0.2
		c-0.2,0.1-0.4,0.1-0.6,0.1c0.3,0-0.2,0-0.3,0c-0.4,0-0.8,0-1.2,0c-0.2,0-0.3-0.1-0.5-0.1c-0.2,0,0,0,0,0l-0.3-0.1
		c-0.3-0.1-0.7-0.3-1-0.5c-0.3-0.2-0.6-0.4-0.8-0.6l-0.4-0.4c0,0-0.2-0.2-0.1-0.1s-0.2-0.2-0.2-0.2c-0.4-0.6-0.8-1.2-1.1-1.8
		c-0.1-0.2-0.1-0.4-0.2-0.6c0.1,0.3-0.1-0.3-0.1-0.4s-0.1-0.4-0.1-0.6s0-0.2,0-0.2s0-0.5,0-0.2s0-0.3,0-0.4c0.1-0.5-0.2,0.5,0-0.1
		c0-0.1,0.1-0.1,0.1-0.2c0.1-0.5-0.2,0.5-0.1,0.2c0-0.1,0.1-0.1,0.1-0.2c-0.2,0.7-0.3,0.5-0.1,0.2l-3.2,1.1c0,0.1,0,0.2,0,0.3
		c0.1,0.5,0.1-0.2,0,0.1s-0.2,0.4,0,0.1s-0.2,0.4,0-0.2l0.1-0.2c-0.1,0.3-0.1,0.2,0.1-0.2c0,0-0.2,0.2-0.2,0.3s0.5-0.6,0.1-0.2
		c0.2-0.2,0.4-0.4,0.1-0.1l-0.1,0.1c-0.2,0.2-0.2,0.2,0.1-0.1c0,0-0.3,0.2-0.3,0.2s-0.4,0.2,0,0l-0.3,0.2c-0.2,0.1-0.5,0.2-0.7,0.2
		s-0.1,0-0.1,0c-0.2,0-0.4,0-0.5,0c-2.1-0.1-4.1-1.2-5.2-3c-1.3-2.1-2.2-4.4-2.7-6.8c-0.4-1.3-0.6-2.6-0.7-4c0,0.2,0.1-1,0-0.5
		s0,0,0-0.1c0.1-0.5,0,0.1,0,0.1s0.2-0.3,0.1-0.3s-0.4,0.7-0.1,0.2c0,0-0.4,0.6-0.1,0.2s-0.5,0.4,0,0c-0.1,0-0.4,0.4-0.1,0.1
		c0.1-0.1,0.3-0.1,0,0c0,0,0.6-0.2,0.4-0.2c0.5-0.1,1,0,1.4,0.2c1,0.4,1.8,1.3,2.1,2.3c0.3,0.9,0.4,2,0.2,2.9c0,0.2-0.1,0.5-0.1,0.7
		c-0.1,0.6,0.1-0.4,0,0c0,0.1,0,0.2-0.1,0.3s-0.1,0.5-0.2,0.8c0,0.1-0.1,0.2-0.1,0.3c0-0.2,0.2-0.5,0-0.1s-0.2,0.5-0.3,0.7l-0.1,0.3
		c-0.1,0.3-0.3,0.2,0.1-0.2c-0.1,0.2-0.3,0.4-0.4,0.6c-0.1,0.2-0.8,1-0.1,0.2c-0.1,0.2-0.3,0.4-0.4,0.6l-0.2,0.3
		c-0.1,0.1-0.5,0.4-0.1,0.1h-0.1c-0.1,0.1-0.2,0.2-0.2,0.2s-0.4,0.4-0.7,0.6c-0.5,0.4,0.3-0.2-0.2,0.2c-0.2,0.2-0.4,0.3-0.7,0.5
		s-0.4,0.3-0.6,0.4l-0.3,0.2c-0.1,0-0.6,0.3-0.1,0.1c-0.9,0.4-1.9,0.8-2.9,1c-0.2,0-0.4,0.1-0.6,0.1l-0.9,0.1c-0.6,0-1.2,0-1.8,0
		c-1.1-0.1-2.2-0.3-3.3-0.7c-2.2-0.8-4.2-2.1-5.7-3.9c-0.8-1-2,0.1-2.6,0.8c-0.5,0.6-0.9,1.3-1.1,2c-0.1,0.4-0.3,1.2,0,1.6
		L54.2,516.4z"/>
	<path class="st4" d="M55,571.4c4,5.4,11.5,7.2,17.8,5c7.5-2.6,12-10.8,11.6-18.5c-0.2-3.8-1.8-7.4-4.5-10.1c-0.3-0.3-1.1,0-1.3,0.2
		c-0.6,0.4-1.1,1-1.5,1.6c-3.2,4.6-3.8,10.6-1.5,15.7c2.3,4.5,7,7.2,12,7c2.9-0.1,5.7-1,8.1-2.8c1-0.7,1.8-1.8,2.1-3
		c0.1-0.5,0.4-2.1-0.6-2c-4.2,0.4-7.6,8.9-2.4,10.2c2.4,0.6,4.9-1,6.4-2.7c1.7-2.2,2.9-4.7,3.4-7.4l-3.7,2.9c1.6,3.5,4.8,6,8.7,6.7
		c4.4,0.7,8.6-1.5,11.5-4.8c0.5-0.6,0.9-1.3,1.1-2c0.2-0.5,0.2-1.1,0-1.6c-0.6-1.1-2.1,0.3-2.6,0.9c-0.2,0.2-0.2,0.2,0.1-0.1
		l-0.3,0.3l-0.4,0.4c-0.4,0.4,0.3-0.2-0.1,0.1c-0.2,0.2-0.4,0.3-0.6,0.4l-0.5,0.3l-0.3,0.2c0.2-0.1,0.2-0.1,0.1,0
		c-0.4,0.2-0.8,0.3-1.1,0.5c-0.7,0.3-1.5,0.4-2.2,0.5c-0.8,0.1-1.7,0-2.5-0.2c-3.1-0.7-5.7-2.8-7-5.8c-0.4-0.8-1.4-0.2-1.8,0.1
		c-0.9,0.7-1.5,1.7-1.9,2.8c-0.2,0.8-0.4,1.5-0.6,2.3c-0.2,0.5-0.1,0.1,0,0c-0.1,0.2-0.2,0.4-0.2,0.6l-0.1,0.2
		c-0.1,0.3-0.1,0.2,0.1-0.2c-0.1,0.2-0.2,0.3-0.3,0.4c-0.2,0.3,0.4-0.5,0-0.1c-0.2,0.2-0.2,0.2,0.1-0.1l-0.1,0.1
		c-0.2,0.2-0.2,0.2,0,0s0.1-0.1,0,0s-0.6,0.3-0.1,0.1c-0.3,0.1-0.5,0.2-0.8,0.3c-0.4,0.1,0.1,0-0.2,0h-0.5c-0.5,0-1-0.2-1.5-0.6
		c-0.2-0.1,0.1,0.2-0.1-0.1s-0.1-0.2-0.2-0.3c0-0.1-0.1-0.2-0.2-0.3c-0.1-0.1,0,0.3,0,0c0-0.1,0-0.2,0-0.4c0-0.4-0.1,0.4,0,0
		c0-0.1,0.1-0.5,0-0.1c0,0.2-0.1,0.2,0,0.1l-0.2,0.5c0.2-0.5-0.4,0.7-0.1,0.3c-0.3,0.4-0.6,0.8-1,1.1c0.3-0.2-0.5,0.1-0.1,0
		s-0.4,0,0,0l1.5-5c-0.4,0.3-0.9,0.6-1.3,0.9c0,0-0.5,0.3-0.2,0.1s-0.2,0.1-0.2,0.1c-0.3,0.1-0.5,0.2-0.8,0.3
		c-0.5,0.2-1,0.3-1.5,0.5c-0.1,0-0.7,0.1-0.4,0.1c-0.3,0-0.6,0.1-1,0.1c-2.1,0.2-4.2-0.1-6.2-1c-1.9-0.9-3.5-2.2-4.6-4
		c-1.2-1.8-1.8-3.8-1.8-5.9c0-0.1,0-0.2,0-0.3c0-0.6,0,0.4,0-0.1c0-0.3,0-0.6,0.1-0.9s0.1-0.6,0.1-0.9c0,0,0.1-0.6,0-0.2l0.1-0.3
		c0.1-0.3,0.2-0.6,0.3-0.9s0.2-0.4-0.1,0.2c0.1-0.2,0.1-0.3,0.2-0.5l0.1-0.3c0-0.1,0.1-0.2,0.2-0.3l-0.2,0.4
		c0.2-0.3,0.4-0.6,0.6-0.9l-2.8,1.8c0.5,0.5,0.9,1,1.3,1.5c0.4,0.6,0.8,1.2,1.1,1.9c0.3,0.6,0.6,1.3,0.8,2c0.1,0.2,0,0,0,0
		s0.1,0.2,0.1,0.3s0.1,0.3,0.1,0.5c0.1,0.4,0.1,0.8,0.2,1.1c0.1,0.7,0.1,1.5,0.2,2.2V562c0,0.1,0,0.2,0,0.3v0.5
		c0,0.4-0.1,0.8-0.1,1.1c0,0.2-0.1,0.4-0.1,0.6c0,0,0,0.2,0,0.2s0.1-0.5,0-0.2s-0.2,0.7-0.3,1.1c0,0.2-0.1,0.4-0.2,0.5
		c-0.1,0.5,0.2-0.5,0-0.1s-0.3,0.7-0.5,1l-0.1,0.2c-0.2,0.3,0.3-0.6,0.1-0.3l-0.2,0.4l-0.3,0.5c-0.3,0.4,0.5-0.6,0-0.1
		c-0.2,0.3-0.4,0.5-0.7,0.8s0.4-0.4,0-0.1c-0.2,0.2-0.3,0.3-0.5,0.5l-0.4,0.4c-0.2,0.2,0.2-0.2,0.2-0.2c-0.1,0-0.1,0.1-0.2,0.1
		c-0.3,0.2-0.6,0.4-0.9,0.6l-0.5,0.3h-0.1c-0.3,0.2-0.7,0.3-1,0.5c-0.7,0.3-1.4,0.5-2.1,0.6l-0.5,0.1h-0.2c-0.4,0-0.7,0.1-1.1,0.1
		c-1.5,0.1-2.9,0-4.3-0.3c-1.5-0.3-2.9-0.9-4.2-1.7c-1.4-0.8-2.6-1.9-3.5-3.1c-0.8-1-2,0.2-2.6,0.8c-0.5,0.6-0.9,1.3-1.1,2
		c-0.1,0.5-0.3,1.2,0,1.6L55,571.4z"/>
	<path class="st4" d="M55.9,620.4c-0.7,2.4-0.1,4.9,1.5,6.8c1.5,1.7,3.6,2.7,5.9,2.7c5.9-0.1,10.3-5.5,12.1-10.6
		c1-3,1.4-6.2,1.1-9.4c0-0.4-0.4-0.8-0.8-0.8c-0.1,0-0.1,0-0.2,0c-0.7,0.2-1.3,0.6-1.7,1.2c-4.7,5.7-5.6,14.4-0.3,20
		c0.3,0.3,1.1-0.1,1.3-0.2c0.6-0.4,1.1-1,1.5-1.6l4.7-8.1l-3.2,1.1l1.1,7.1c0.3,1.8,2.1,0.2,2.7-0.4l2.4-2.8l-2.6,0.9
		c1.8,2,4.5,2.9,7.1,2.2c3.1-0.6,5.7-2.9,7.7-5.3c3.8-4.5,6.1-10.1,6.4-16c0.2-3.1-0.3-6.3-1.4-9.3c-0.3-0.9-1.7,0-2.1,0.3
		c-5.4,5.5-8.1,13.8-6.2,21.4c0.8,3.6,2.8,6.8,5.5,9.2c2.8,2.4,6.8,3.8,10.5,2.5c2.3-0.9,4.3-2.4,5.7-4.4c1.7-2.1,2.4-4.7,2.2-7.4
		c-0.1-1.2-1.3-0.8-2-0.3c-1.1,0.8-1.8,2.1-2,3.4c-0.3,2,0.4,4,1.9,5.3c1.4,1.2,3.3,1.6,5,1.1c2.3-0.7,4-2.8,5-4.9
		c1-1.9,1.2-4.1,0.5-6.1l-3.4,4.8c6.8,4.8,15.1,6.9,23.4,5.9c1.3-0.2,2.3-1.5,2.8-2.6c0.3-0.6,0.4-1.2,0.4-1.9
		c-0.1-0.4-0.3-0.9-0.8-0.8c-8,1-16.1-1.1-22.7-5.7c-0.4-0.3-1,0-1.3,0.2c-0.5,0.3-0.9,0.8-1.2,1.2c-0.6,0.9-1.3,2.2-0.9,3.3
		c0,0,0.1,0.5,0.1,0.2c0,0.1,0,0.2,0.1,0.4s0,0.3,0,0.4c0,0.5,0.1-0.4,0,0.1v0.2c0,0.3,0,0.2,0-0.2c0,0-0.1,0.3-0.1,0.4
		c-0.1,0.3,0.3-0.6,0.1-0.2l-0.1,0.2l0.2-0.4c-0.1,0.1-0.3,0.5,0,0.1s0,0-0.1,0c0.3-0.3,0.4-0.4,0.2-0.2c-0.1,0.1-0.1,0.1-0.2,0.2
		c-0.3,0.3,0.3-0.2,0.1-0.1c-0.1,0.1-0.2,0.1-0.3,0.2c0.4-0.3,0.1,0-0.1,0l-0.4,0.1H121c0.2,0,0.2,0,0,0c-1.2,0.1-2.3-0.4-3.1-1.2
		c-0.4-0.4-0.7-0.9-0.9-1.4c0,0-0.1-0.5-0.1-0.3s0-0.2,0-0.3c0-0.2,0-0.3,0-0.5c0,0.4,0,0,0-0.1l-4,3.1c0,0.2,0,0.3,0,0.5
		c0.1,0.5,0.1-0.4,0,0.1l-0.1,0.5c-0.1,0.6,0.2-0.5,0,0l0,0.2c-0.1,0.3-0.1,0.2,0.1-0.2c-0.1,0.1-0.2,0.3-0.2,0.5l0.2-0.4l-0.2,0.3
		c-0.5,0.7,0.3-0.3,0,0.1l-0.1,0.1c-0.2,0.2-0.1,0.2,0.1-0.1c-0.1,0-0.3,0.3-0.4,0.4c-0.1,0.1-0.3,0.2-0.4,0.3c0.6-0.3,0-0.1-0.1,0
		l-0.5,0.3c-0.1,0-0.6,0.3-0.1,0.1c-0.4,0.2-0.8,0.3-1.2,0.4c-1.4,0.3-2.8,0.3-4.1-0.1c-1.5-0.5-3-1.3-4.2-2.3
		c-2.3-2-3.9-4.5-4.8-7.4c-0.2-0.5,0.1,0.3-0.1-0.2c0-0.2-0.1-0.3-0.1-0.5c-0.1-0.3-0.1-0.7-0.2-1c-0.1-0.7-0.2-1.5-0.3-2.3
		c0-0.3,0-0.7,0-1.1c0-0.6,0,0.4,0-0.2v-0.5c0-0.8,0.1-1.5,0.3-2.3c0-0.2,0.1-0.3,0.1-0.5c-0.2,0.7,0-0.1,0.1-0.2
		c0.1-0.4,0.2-0.8,0.3-1.2c0.1-0.2,0.1-0.3,0.2-0.5s0.1-0.2-0.1,0.2c0-0.1,0.1-0.2,0.1-0.3c0.2-0.4,0.3-0.8,0.5-1.1
		c0.1-0.2,0.2-0.3,0.2-0.5c-0.3,0.9-0.1,0.2,0-0.1s0.4-0.7,0.7-1c0.4-0.5-0.5,0.6,0,0.1c0.1-0.2,0.3-0.4,0.4-0.5l0.4-0.4l0.2-0.3
		c-0.3,0.3-0.3,0.4-0.1,0.2l-2.1,0.3c0.4,1,0.6,2,0.8,3.1c0.2,1.1,0.3,2.3,0.3,3.4v0.4c0,0.3,0,0.6,0,0.9c0,0.6-0.1,1.1-0.2,1.7
		c0,0.3-0.1,0.6-0.1,0.8s0,0.3-0.1,0.4c-0.1,0.5,0,0,0-0.1c0,0.3-0.1,0.6-0.2,0.8c-0.1,0.3-0.2,0.6-0.3,0.9s-0.2,0.5-0.3,0.8
		l-0.1,0.4c0-0.1,0.2-0.6,0-0.2s-0.5,1-0.7,1.6c-0.1,0.1-0.1,0.3-0.2,0.4c-0.2,0.4,0.3-0.5,0.1-0.2s-0.3,0.5-0.4,0.7
		s-0.3,0.4-0.4,0.6l-0.2,0.3c-0.4,0.6,0.4-0.6,0,0s-0.7,0.9-1,1.3c-0.1,0.1-0.4,0.5,0,0c-0.1,0.1-0.2,0.2-0.3,0.3l-0.8,0.7l-0.3,0.3
		c0.4-0.3,0.1-0.1,0,0c-0.2,0.2-0.5,0.3-0.8,0.5l-0.4,0.2l-0.2,0.1c0.3-0.1-0.3,0.2-0.3,0.1l-0.4,0.3c-0.3,0.1-0.6,0.2-0.9,0.3
		c-0.3,0.1,0.4,0-0.2,0h-0.5c-0.6,0-1.2,0-1.8-0.1c-1-0.2-2-0.7-2.7-1.5c-0.8-1-2,0.2-2.6,0.9l-2.3,2.8L83,625l-1.1-7.1
		c0-0.5-0.4-0.8-0.9-0.8c-0.1,0-0.2,0-0.3,0.1c-0.9,0.4-1.6,1-2,1.8l-4.7,8.1l2.8-1.8c-1.7-1.9-2.7-4.4-2.8-7c0-0.2,0-0.3,0-0.5
		c0-0.5,0,0.3,0-0.2c0-0.3,0-0.6,0.1-1s0.1-0.6,0.1-1c0.1-0.5-0.1,0.4,0,0c0-0.2,0.1-0.3,0.1-0.5s0.1-0.3,0.2-0.5s0.3-0.6,0,0
		c0.2-0.3,0.3-0.6,0.4-0.9l-0.2,0.4c0.1-0.1,0.1-0.2,0.2-0.3l0.3-0.4c0.3-0.5-0.4,0.5-0.1,0.2l0.4-0.5l-2.7,0.4c0,0.5,0,1.1,0,1.6
		l0,0c0,0.2,0,0.3,0,0.4s0,0.6,0,0.9c0,0.5-0.1,1.1-0.2,1.6c0,0.2-0.1,0.5-0.1,0.7c0.1-0.5-0.1,0.3-0.1,0.4s-0.1,0.5-0.2,0.8
		c0,0.1-0.3,0.8-0.2,0.5s-0.1,0.3-0.2,0.5s-0.1,0.2-0.2,0.4c-0.2,0.5,0.2-0.4,0,0l-0.4,0.6c-0.1,0.2-0.4,0.4,0.1-0.2
		c-0.1,0.1-0.1,0.2-0.2,0.2l-0.4,0.5c-0.3,0.4,0.1-0.1,0.1-0.1s-0.3,0.3-0.3,0.3l-0.5,0.4c-0.3,0.2,0,0,0.1,0s-0.2,0.2-0.2,0.2
		l-0.5,0.4l-0.3,0.2c-0.3,0.2,0.1,0-0.1,0c-0.4,0.2-0.9,0.4-1.3,0.5c-0.2,0.1-0.4,0.1-0.6,0.2s-0.1,0,0,0l-0.5,0.1
		c-1.7,0.2-3.5-0.4-4.8-1.6c-0.7-0.6-1.2-1.3-1.5-2.1l-0.1-0.3c0-0.1-0.1-0.4,0-0.1c-0.1-0.2-0.1-0.4-0.1-0.7c0-0.2,0-0.4,0-0.7
		c0,0.7,0.2-0.9,0,0c0.2-0.5,0.2-1.1,0-1.6c-0.2-0.4-0.7-0.5-1.1-0.3C57.2,617.8,56.3,618.9,55.9,620.4L55.9,620.4z"/>
	<path class="st4" d="M22.4,514.5l8.4,10.2c1,1.2,2.6-0.7,3-1.5l13.1-23.4l3.7-6.6c0.4-0.6,0.7-1.3,0.8-2c0-0.4,0-1-0.4-1.3
		c-1-0.6-2.4,1.1-2.8,1.8l-13,23.3l-3.7,6.6l3-1.5L26.1,510c-0.8-1-2,0.2-2.6,0.9c-0.5,0.6-0.9,1.3-1.1,2
		C22.3,513.3,22,514.1,22.4,514.5L22.4,514.5z"/>
	<path class="st4" d="M22.4,570.4l8.4,10.2c1,1.2,2.6-0.7,3-1.5l13.1-23.4l3.7-6.6c0.4-0.6,0.7-1.3,0.8-2c0-0.4,0-1-0.4-1.3
		c-1-0.6-2.4,1.1-2.8,1.8l-13,23.4l-3.7,6.6l3-1.5L26.1,566c-0.8-1-2,0.2-2.6,0.9c-0.5,0.6-0.9,1.3-1.1,2
		C22.3,569.3,22,570.1,22.4,570.4L22.4,570.4z"/>
	<path class="st4" d="M789.1,568.7c-0.9,2-1.9,4-2.9,5.9c-0.5,0.9-0.9,1.8-1.4,2.7c-0.1,0.3-0.3,0.5-0.4,0.8s-0.4,0.8-0.1,0.1
		l-0.8,1.4c-2.1,3.8-4.3,7.4-6.6,11l3-1.5c-3.5-7.6-6-15.6-7.3-23.9c-0.2-1.3-1.6-0.7-2.2-0.1c-0.9,0.8-2,2.4-1.8,3.8
		c1.4,8.6,3.9,16.9,7.6,24.8c0.7,1.5,2.7-1,3-1.5c4.9-7.5,9.2-15.3,13-23.5c0.3-0.7,0.9-2.6-0.4-2.7S789.5,567.7,789.1,568.7
		L789.1,568.7z"/>
	<path class="st4" d="M792.2,565.7c-6.7,0.6-13.5-0.1-20-2l0.4,1.3l6.6-39.9l6.6-39.9l6.6-39.9l6.6-39.9l3.3-19.8
		c0.1-0.6,0.2-1.3,0.3-1.9l0.1-0.3c0,0-0.1,0.3,0,0.1s0.1-0.5,0.2-0.8c0.1-0.5,0.3-1,0.4-1.5c0-0.1,0.1-0.2,0.1-0.3
		s-0.2,0.4-0.1,0.1s0.2-0.5,0.3-0.7s0.3-0.6,0-0.1c0.1-0.2,0.3-0.5,0.4-0.7s-0.1,0.2-0.1,0.2l0.2-0.3l0.2-0.3c-0.2,0.2-0.2,0.2,0,0
		s0.6-0.5,0.4-0.4s0.3-0.2,0.4-0.3c0.4-0.2,0.8-0.4,1.2-0.5c4.6-1.6,10.2,1.2,12.6,5.2c1.2,2.5,1.7,5.3,1.2,8
		c-0.4,3.2-1.1,6.3-1.7,9.4l-7.3,39.8L804,480l-7.3,39.7l-7.3,39.7l-1.8,9.7c-0.2,1.2,0.7,1.7,1.7,1.1c1.2-0.9,2-2.1,2.2-3.6
		l7.4-40.7l7.4-40.5l7.4-40.7l7.4-40.5l1.9-10.2c0.7-3.1,1.1-6.2,1.1-9.3c0-2.8-1-5.5-2.7-7.7c-1.7-2-4-3.5-6.5-4.3
		c-2.5-0.8-5.2-0.7-7.7,0.2c-2.5,1.1-4.5,3-5.9,5.4c-3,4.9-3.3,10.8-4.2,16.3l-6.7,40.7l-6.8,40.8l-6.7,40.6l-6.8,40.8l-1.6,9.9
		c0,0.3,0,1.2,0.4,1.3c6.7,2,13.8,2.8,20.8,2.2c1.3-0.1,2.3-1.5,2.8-2.6C792.9,567.8,793.6,565.5,792.2,565.7L792.2,565.7z"/>
	<path class="st4" d="M792.2,565.7c-6.7,0.6-13.5-0.1-20-2l0.4,1.3l6.6-40.1l6.6-39.9l6.6-40.1l6.6-40.1c1.1-6.7,2.2-13.3,3.3-20
		c0.1-0.5,0.2-1,0.3-1.5c-0.1,0.4,0-0.1,0.1-0.3c0.1-0.3,0.1-0.6,0.2-0.9c0.1-0.4,0.3-0.9,0.4-1.3c-0.2,0.5,0-0.1,0.1-0.3
		s0.2-0.5,0.3-0.7c-0.2,0.5-0.1,0.2,0.1-0.1c0.1-0.1,0.1-0.2,0.2-0.3c0.2-0.4-0.4,0.4-0.1,0.1c0.1-0.1,0.5-0.6,0.3-0.3
		s0.3-0.3,0.4-0.4c0.3-0.3-0.2,0.1,0.2-0.2c0.2-0.2,0.5-0.3,0.7-0.4c0.4-0.2,0.8-0.3,1.3-0.5c4.6-1.3,10.2,1.7,12.3,5.8
		c1.3,2.6,1.2,5.6,0.8,8.4c-0.5,3.2-1.1,6.3-1.7,9.5c-2.4,13.2-4.7,26.4-7,39.7c-2.3,13.2-4.5,26.4-6.8,39.5
		c-2.2,13.2-4.5,26.5-6.8,39.7c-2.3,13.2-4.6,26.5-7,39.7c-0.6,3.2-1.2,6.4-1.7,9.6c-0.2,1.2,0.8,1.7,1.7,1.1c1.2-0.9,2-2.1,2.2-3.6
		c2.5-13.5,4.9-26.9,7.2-40.4s4.7-27,7-40.7c2.3-13.5,4.6-27,6.9-40.5c2.3-13.5,4.7-27,7.1-40.6c0.6-3.3,1.2-6.7,1.8-10
		c0.7-3.1,1.1-6.3,1.3-9.5c0.1-2.9-0.7-5.7-2.4-8.1c-1.6-2.1-3.8-3.7-6.3-4.5c-2.5-0.9-5.2-1-7.8-0.1c-2.5,1-4.7,2.8-6.1,5.2
		c-3.1,4.7-3.5,10.6-4.4,15.9l-6.8,40.8l-6.8,41l-6.8,40.8l-6.8,41l-1.6,9.9c0,0.3,0,1.2,0.4,1.3c6.7,2,13.8,2.8,20.8,2.2
		c1.3-0.1,2.3-1.5,2.8-2.6C792.8,567.8,793.5,565.5,792.2,565.7L792.2,565.7z"/>
	<path class="st4" d="M819.3,383.6c0.7,1.4,1,3,1.1,4.6c0,0.7,0,1.4-0.1,2.1c-0.1,0.8-0.2,1.7-0.4,2.5c-0.6,3.5-1.3,7-1.9,10.5
		l3.2-3.9c-3.8,0-7.7-0.4-11.5-1c-1.9-0.3-3.8-0.7-5.6-1.2c-1.5-0.3-2.9-1-4-2l0.4,1.3c0.6-3.4,1.1-6.8,1.7-10.2
		c0.1-0.8,0.2-1.5,0.4-2.3c0-0.2,0.1-0.5,0.1-0.7s0.2-0.5,0,0.1c0-0.1,0.1-0.3,0.1-0.4c0.1-0.5,0.3-1,0.4-1.5
		c0.1-0.2,0.2-0.5,0.2-0.7s-0.3,0.7-0.1,0.2l0.2-0.4c0.1-0.2,0.2-0.5,0.3-0.7s-0.4,0.7-0.1,0.2l0.2-0.3c0.1-0.1,0.6-0.8,0.2-0.3
		s0.2-0.2,0.3-0.4c0.3-0.4-0.5,0.5-0.1,0.1l0.3-0.3l0.3-0.2c0.4-0.3-0.4,0.2-0.1,0.1s0.4-0.3,0.6-0.4l0.3-0.2c-0.5,0.3,0,0,0.1,0
		c0.5-0.2,1.1-0.4,1.7-0.5c0.1,0,0.4-0.1,0.2,0l0.5,0c0.4,0,0.8,0,1.2,0c1.3,0,2.6,0.3,3.8,0.8C815.8,379.3,818,381.2,819.3,383.6
		c0.6,1.2,2.2-0.2,2.6-0.8c0.7-0.9,1.7-2.5,1.1-3.7c-2-3.8-5.8-6.3-10-6.9c-2-0.3-4.1,0-6,0.9c-2.1,1.1-3.8,2.7-5.1,4.6
		c-2.4,3.5-3.1,7.7-3.7,11.8c-0.4,2.7-0.9,5.3-1.3,8c-0.1,0.7-0.5,1.8-0.1,2.4c0.4,0.5,0.8,0.9,1.3,1.2c1,0.5,2.1,0.9,3.2,1.2
		c5.7,1.5,11.6,2.3,17.6,2.3c0.8-0.1,1.5-0.6,1.9-1.3c0.6-0.8,1.1-1.7,1.2-2.7c0.7-3.7,1.4-7.3,2-11s0.7-7.4-0.9-10.8
		c-0.2-0.4-0.7-0.5-1.1-0.3c-0.6,0.3-1.1,0.7-1.5,1.2C819.8,380.9,818.8,382.5,819.3,383.6z"/>
	<path class="st4" d="M817.1,405.1l10.2,1.5l-0.8-1.4c-0.7,7.8-1.6,15.5-2.9,23.1c-0.6,3.8-1.3,7.6-2.1,11.3c-0.1,0.5-0.2,1-0.3,1.4
		c0,0-0.2,0.8-0.1,0.3l-0.2,0.7c-0.2,0.9-0.4,1.9-0.6,2.8c-0.4,1.9-0.9,3.7-1.3,5.6c-1.1,4.3-2.2,8.5-3.5,12.8
		c-0.2,0.8-0.2,2.4,1.1,1.9c1.3-0.6,2.2-1.8,2.6-3.2c4.5-15.1,7.8-30.6,9.8-46.2c0.6-4.4,1-8.8,1.4-13.2c0.1-0.6,0-1.3-0.8-1.4
		l-10.2-1.5c-0.5-0.1-1.1,0.4-1.4,0.7c-0.6,0.5-1,1.2-1.3,1.9C816.4,403.2,815.8,404.9,817.1,405.1L817.1,405.1z"/>
	<path class="st4" d="M884.4,500.8c6.8,0,13.9-0.1,20.4,2c5.6,1.8,10.7,5.2,13.6,10.4c3,5.4,3.5,11.8,4,17.9
		c0.7,7.3,1.2,14.7,1.6,22.1c0.8,14.6,1,29.2,0.6,43.9c-0.2,7.2-0.4,14.4-0.9,21.6c-0.2,3.1-0.5,6.2-1.1,9.3l-0.1,0.5
		c0.1-0.4,0,0.1-0.1,0.2c-0.1,0.4-0.2,0.7-0.3,1.1c-0.2,0.7-0.4,1.4-0.6,2.2c-0.1,0.2-0.1,0.4-0.2,0.6s-0.2,0.7,0,0.1
		c-0.1,0.3-0.2,0.6-0.4,0.9s-0.3,0.7-0.5,1s-0.2,0.4-0.3,0.5c-0.3,0.6,0.3-0.5-0.1,0.2s-0.7,1.2-1.1,1.8c-0.3,0.4,0.4-0.6,0,0
		l-0.3,0.4c-0.2,0.3-0.5,0.6-0.8,0.9l-0.3,0.3c0.4-0.4,0,0-0.1,0.1s-0.5,0.5-0.8,0.7l-0.7,0.6l-0.4,0.4c-0.1,0.1-0.4,0.3-0.2,0.1
		c-2.3,1.7-4.8,3.1-7.5,4c-6.3,2.3-13.1,2.6-19.8,2.6c-5.8,0-11.9,0-17.5-1.7c-5.1-1.5-9.5-4.6-12.5-9c-2.9-4.6-4.8-9.8-5.6-15.2
		c-0.5-2.9-0.7-5.9-0.8-8.9c-0.2-3.6-0.4-7.2-0.6-10.8c-0.7-14-1.1-28-0.8-42c0.1-7.2,0.5-14.4,0.9-21.6c0.2-3.3,0.4-6.7,0.8-10
		c0.3-3.1,1-6.2,1.9-9.2c0.1-0.3,0.2-0.7,0.3-1c0-0.2,0.1-0.3,0.2-0.5c0.3-0.8-0.1,0.3,0.1-0.2c0.3-0.8,0.6-1.5,1-2.3l0.2-0.5
		c0,0,0.4-0.8,0.2-0.3l0.1-0.1l0.3-0.5l0.5-0.7l0.3-0.5c0.2-0.3,0.2-0.3,0,0c0.4-0.5,0.8-1,1.2-1.5c0.2-0.2,0.4-0.5,0.7-0.7
		s0.5-0.5,0,0l0.5-0.5c0.4-0.4,0.9-0.8,1.3-1.3l0.8-0.6l0.3-0.3c-0.4,0.3,0.1-0.1,0.2-0.1c1.1-0.8,2.2-1.5,3.3-2.2
		c0.3-0.2,0.6-0.4,1-0.5l0.4-0.2h0.1c0.7-0.3,1.3-0.6,2-0.9c2.5-1,5.1-1.8,7.7-2.2c2.6-0.4,5.2-0.6,7.8-0.5c1.2,0,2.4-1.6,2.8-2.6
		c0.3-0.6,0.9-2.7-0.4-2.7c-11.6-0.3-23.7,4.3-30.8,13.8c-4.3,5.7-6.4,12.5-7.5,19.4c-0.9,7.1-1.5,14.3-1.7,21.5
		c-0.7,14.6-0.6,29.2-0.1,43.8c0.3,7.4,0.6,14.9,1.1,22.3c0.1,3,0.4,6,0.9,9c0.5,3,1.3,5.9,2.3,8.7c1.9,5.4,4.9,10.2,9.7,13.5
		c4.6,3.2,10.1,4.5,15.6,4.9c3.3,0.3,6.7,0.3,10,0.3c3.6,0.1,7.3-0.1,10.9-0.6c6.4-0.8,12.8-2.9,18-6.9c5.6-4.4,9.5-10.5,11-17.4
		c1.6-6.6,1.7-13.5,2-20.3c0.7-15.3,0.8-30.6,0.3-45.9c-0.2-7.6-0.6-15.2-1.2-22.7c-0.3-3.8-0.6-7.6-0.9-11.4
		c-0.2-3.3-0.6-6.6-1.2-9.8c-0.6-3.2-1.6-6.3-3.2-9.1c-1.5-2.7-3.6-5-6.1-6.8c-5.3-3.9-11.9-5.4-18.4-6c-3.6-0.3-7.1-0.3-10.7-0.3
		c-1.3,0-2.4,1.6-2.8,2.6c-0.3,0.6-0.9,2.7,0.4,2.7L884.4,500.8z"/>
	<path class="st4" d="M894.9,607.9c-1-1.3-2.5-2-4.1-2c-1.9,0.1-3.8,0.8-5.2,2.1c-1.7,1.5-3.1,3.5-3.9,5.6c-0.8,1.8-1.3,3.6-1.6,5.5
		c-0.2,1.7,0,3.5,0.7,5.1c0.7,1.5,2.1,2.6,3.8,3c4,1.1,7.9-2,9.7-5.3c1.3-2.1,2-4.5,2.1-7c0-2.6-0.4-5.1-1.3-7.5
		c-0.1-0.4-0.8-0.4-1.1-0.3c-0.6,0.3-1.1,0.7-1.5,1.2c-0.9,1-1.4,2.3-1.1,3.7c0.5,1.6,0.9,3.2,1,4.9c0.1,0.7,0,1.3-0.1,2
		c0,0.2,0,0.3-0.1,0.5c-0.1,0.6,0.2-0.5,0,0.1c0,0.1-0.1,0.2-0.1,0.4s-0.1,0.2-0.1,0.4c-0.1,0.3-0.1,0.2,0.1-0.2
		c-0.1,0.1-0.1,0.2-0.2,0.3l-0.1,0.2c-0.1,0.3-0.1,0.2,0.1-0.2c-0.1,0.1-0.2,0.3-0.2,0.4c-0.2,0.4-0.2,0.1,0.1-0.1
		c-0.1,0.1-0.3,0.3-0.3,0.4c-0.3,0.4,0.1-0.1,0.1-0.1c-0.1,0.1-0.3,0.3-0.4,0.4c0.3-0.2,0.3-0.2,0.1,0l-0.2,0.2l-0.4,0.2
		c0.4-0.2-0.1,0-0.2,0c-0.3,0.1-0.6,0.2-0.8,0.3c-0.5,0.2,0.1,0-0.2,0c-0.1,0-0.3,0-0.4,0c-0.4,0-0.7,0-1.1,0
		c-1.1-0.1-2.2-0.7-2.9-1.5c-0.3-0.5-0.6-0.9-0.8-1.5c-0.2-0.5,0,0.3-0.1-0.2c0-0.1-0.1-0.3-0.1-0.4c-0.1-0.3-0.1-0.7-0.1-1
		c0-0.1,0-0.5,0-0.1c0-0.2,0-0.4,0-0.5c0-0.3,0-0.6,0.1-0.9s0.1-0.3,0.1-0.4c0.1-0.4-0.2,0.6,0,0c0.1-0.3,0.2-0.7,0.3-1
		c0-0.2,0.1-0.4,0.2-0.5c-0.2,0.3-0.2,0.4-0.1,0.1s0.3-0.7,0.5-1.1s0.1,0.1-0.1,0.2c0.1,0,0.2-0.4,0.3-0.5s0.4-0.5,0.1-0.2
		s0.2-0.2,0.2-0.3c0.4-0.5-0.3,0.3,0,0c0.1-0.1,0.3-0.4,0.5-0.5l-0.2,0.2l0.3-0.2c0.2-0.1,0.3-0.2,0.5-0.3c-0.4,0.2,0,0,0.1,0
		l0.5-0.2l0.5-0.1c-0.3,0.1,0.2,0,0.2,0c1.2-0.2,2.5,0.3,3.3,1.2c0.8,1,2-0.2,2.6-0.9c0.5-0.6,0.9-1.3,1.1-2
		C895.1,609.1,895.3,608.3,894.9,607.9L894.9,607.9z"/>
	<path class="st1" d="M832.2,363.2c10.6-0.9,20.4-5.8,27.5-13.7c4.2-4.4,7.2-9.8,8.6-15.7c1.2-5.1-0.2-10.4-3.7-14.2
		c-1.6-1.6-3.7-2.7-6-3c-2.2-0.2-4.5,0.3-6.4,1.4c-4.6,2.5-7.9,8.6-5.7,13.7c1.8,4.2,6.8,6.7,11.2,6.2c5.7-0.6,10.4-4.4,14-8.6
		c7.5-8.6,12-19.6,12.5-31c0.1-1.4,0.1-2.9,0-4.3s-1.7-0.6-2.2-0.1c-1.1,1-1.7,2.3-1.8,3.8c0,0.6,0,1.2,0,1.9v0.4c0-0.1,0-0.3,0,0.1
		s0,0.7,0,1c0,1.2-0.2,2.4-0.3,3.6s-0.4,2.4-0.6,3.6l-0.1,0.4c-0.1,0.3-0.2,0.6-0.2,0.9c-0.2,0.6-0.3,1.3-0.5,1.9s-0.3,1.1-0.5,1.6
		l-0.3,0.9l-0.2,0.4c0,0.1-0.1,0.2-0.1,0.3c0.1-0.3,0.1-0.4,0.1-0.2c-0.5,1.1-0.9,2.2-1.4,3.3c-0.3,0.5-0.5,1-0.8,1.6
		s0.3-0.5,0.1-0.2c-0.1,0.2-0.2,0.3-0.2,0.5l-0.5,0.8c-0.6,1-1.3,2.1-2,3c-0.4,0.6,0.3-0.4,0,0l-0.2,0.3l-0.6,0.8
		c-0.4,0.5-0.8,1-1.2,1.5l-0.5,0.6l-0.3,0.3l-0.2,0.2c0.3-0.3-0.3,0.3-0.4,0.4c-0.2,0.2-0.5,0.5-0.7,0.7c-0.4,0.4-0.8,0.8-1.3,1.1
		c-0.1,0.1-0.7,0.6-0.3,0.2c-0.3,0.2-0.5,0.4-0.8,0.6c-0.5,0.3-0.9,0.6-1.4,0.9c-0.2,0.2-0.5,0.3-0.8,0.4c0.1,0,0.3-0.2,0,0
		l-0.5,0.2c-1.9,0.9-4.1,1.2-6.2,1c-1.9-0.3-3.7-1.2-5.2-2.5c-0.7-0.6-1.3-1.3-1.7-2.2c-0.2-0.4-0.4-0.8-0.6-1.3v-0.2
		c0.1,0.2-0.1-0.3-0.1-0.3c-0.1-0.2-0.1-0.5-0.1-0.7s0-0.8,0-0.4c0-0.2,0-0.5,0.1-0.7c0-0.1,0-0.2,0.1-0.3c0.1,0.1-0.1,0.5,0,0.2
		c0-0.1,0.1-0.2,0.1-0.4c0.1-0.3-0.3,0.6-0.1,0.2c0.1-0.1,0.1-0.2,0.2-0.3c0.1-0.3-0.4,0.6-0.2,0.3s0.7-0.8,0,0
		c0.1-0.1,0.2-0.3,0.4-0.5c0.3-0.3-0.2,0.2-0.2,0.2c0.1-0.1,0.2-0.2,0.3-0.3l0.2-0.2c0.3-0.3-0.1,0.1-0.2,0.1c0.1,0,0.5-0.3,0.6-0.4
		l0.5-0.3c0.1-0.1,0.4-0.2,0,0l0.4-0.2c0.4-0.2,0.8-0.3,1.2-0.5l0.6-0.1c-0.3,0.1,0,0,0,0l0.5,0c0.9-0.1,1.9,0,2.8,0.2h0.1l0.3,0.1
		c0.2,0.1,0.4,0.2,0.7,0.2c0.5,0.2,1,0.5,1.5,0.8c1.7,1.1,3,2.7,3.9,4.6c0.2,0.4,0.4,0.9,0.6,1.3c0.2,0.4,0.3,0.9,0.4,1.3
		c0.1,0.5,0.2,1.1,0.2,1.6c0,0.2,0,0.5,0,0.7s0,0.3,0,0.4c0,0.7,0-0.4,0,0.3s-0.1,1.2-0.2,1.8c-0.1,0.3-0.1,0.6-0.2,0.9
		c0-0.1,0.1-0.5,0,0c0,0.2-0.1,0.3-0.1,0.5c-0.2,0.6-0.3,1.2-0.5,1.7s0-0.1,0-0.1c0,0.1-0.1,0.3-0.2,0.4c-0.1,0.3-0.3,0.7-0.4,1
		l-0.4,0.9c-0.1,0.1-0.3,0.5-0.1,0.1s-0.1,0.2-0.1,0.2c-0.3,0.6-0.7,1.1-1,1.6c-0.2,0.2-0.3,0.5-0.5,0.7c-0.1,0.1-0.2,0.2-0.2,0.3
		c0.5-0.5,0.2-0.3,0.1-0.2c-0.4,0.5-0.7,1-1.1,1.5s-0.7,0.8-1.1,1.3c-0.2,0.2-0.3,0.4-0.5,0.6c0.5-0.4,0.2-0.2,0.1-0.1l-0.4,0.4
		c-0.8,0.8-1.7,1.6-2.6,2.4l-0.6,0.5l-0.3,0.2c-0.4,0.3,0,0,0,0c-0.5,0.4-1,0.8-1.5,1.1c-0.9,0.7-1.9,1.3-2.9,1.8
		c-0.5,0.3-1,0.5-1.4,0.8l-0.3,0.2c-0.3,0.2,0.4-0.2-0.1,0.1l-0.9,0.4c-1,0.5-2,0.9-3,1.3c-2.1,0.8-4.2,1.3-6.4,1.7
		c-1.1,0.2-2.2,0.3-3.4,0.4c-1.3,0.1-2.3,1.5-2.8,2.6C831.6,361.1,830.9,363.3,832.2,363.2L832.2,363.2z"/>
	<path class="st1" d="M852.6,383.2c2.3-1.8,4.6-3.5,7.1-5.1c2.3-1.5,4.7-2.8,7.3-3.7c4.5-1.6,9.8-2,14.2,0.1c2,0.9,3.8,2.3,5.1,4.1
		c0.6,0.9,1.1,1.9,1.4,2.9c0,0.1,0.1,0.3,0.1,0.4c0-0.1-0.1-0.3,0,0s0.1,0.5,0.2,0.8c0.1,0.5,0.2,1.1,0.2,1.6c0,0.1,0,1,0,0.4
		c0,0.2,0,0.5,0,0.7s-0.1,0.5-0.1,0.7s0,0.3-0.1,0.4s0.2-0.5,0,0c-0.1,0.2-0.1,0.5-0.2,0.7c-0.2,0.6,0.3-0.6,0-0.1l-0.1,0.3
		c0,0.1-0.1,0.2-0.1,0.3c-0.2,0.5,0.4-0.7,0.1-0.2c-0.1,0.1-0.1,0.2-0.2,0.3c-0.2,0.3-0.4,0.4,0.1-0.1c-0.2,0.2-0.3,0.4-0.5,0.6
		c0.3-0.5,0.3-0.3,0.2-0.2l-0.3,0.3c-0.1,0.1-0.2,0.1-0.3,0.2c0.3-0.4,0.4-0.3,0.2-0.1s-0.5,0.3-0.7,0.5c-0.1,0.1-0.2,0.1-0.2,0.1
		c0.3,0,0.3-0.1,0.1,0l-0.6,0.2c-0.2,0.1-0.4,0.2-0.7,0.2l-0.3,0.1c-0.2,0-0.4,0.1-0.1,0c-0.9,0.1-1.9,0.1-2.8,0
		c-0.8-0.1-1.7-0.3-2.5-0.6c-1.8-0.7-3.4-1.8-4.8-3.3c-0.3-0.3-0.6-0.7-0.8-1c-0.3-0.4-0.5-0.8-0.8-1.3c-0.2-0.4-0.4-0.9-0.6-1.3
		c0-0.1-0.1-0.2-0.1-0.3c0,0.1,0.1,0.3,0,0s-0.2-0.7-0.2-1c-0.1-0.5-0.1-1.1-0.2-1.7c0-0.1,0-0.2,0-0.4c0-0.6,0,0.4,0-0.2
		c0-0.3,0-0.6,0.1-0.9s0.1-0.6,0.1-0.9c0-0.1,0-0.2,0.1-0.4c0.1-0.6-0.1,0.4,0,0s0.1-0.5,0.2-0.8c0.1-0.4,0.2-0.7,0.3-1.1
		c0,0-0.3,0.7-0.1,0.2c0-0.2,0.1-0.3,0.2-0.4s0.2-0.5,0.3-0.8l0.2-0.4c0.2-0.4-0.4,0.7-0.1,0.1c0.2-0.3,0.3-0.5,0.5-0.8
		s0.3-0.5,0.5-0.8c0.3-0.4-0.1,0.2-0.1,0.2c0.1-0.1,0.2-0.3,0.3-0.5c0.2-0.2,0.3-0.4,0.5-0.6c0.2-0.3,0.5-0.6,0.8-0.9
		c-0.4,0.2-0.3,0.3-0.1,0.1l0.3-0.3c0.2-0.2,0.4-0.4,0.6-0.6s0.5-0.4,0.7-0.6l0.3-0.2c0.4-0.3-0.4,0.3,0.2-0.1
		c0.8-0.6,1.6-1.1,2.4-1.6c0.3-0.2-0.2,0.1-0.2,0.1s0.2-0.1,0.3-0.1l0.4-0.2c0.3-0.2,0.7-0.3,1.1-0.4c0.7-0.3,1.5-0.5,2.3-0.8
		c1.8-0.5,3.6-1,5.4-1.4c4.3-1,7.9-1.5,12.2-2.2c3.6-0.5,7.2-1,10.8-1.5l1.8-0.2c1.3-0.4,2.4-1.3,2.8-2.6c0.3-0.6,0.4-1.2,0.4-1.9
		c-0.1-0.4-0.3-0.9-0.8-0.8c-8,1-16.1,2-24,3.7c-3.7,0.6-7.3,1.7-10.7,3.1c-5.1,2.6-9.3,6.8-11.8,12c-2.3,4.7-3.3,10.8-0.4,15.5
		c2.3,3.7,6.3,6,10.6,6.3c5.6,0.2,10.1-4.3,11.6-9.4c1.5-4.9,0.1-10.2-3.5-13.8c-3.9-3.7-9.8-4.6-14.8-3.7c-6.1,1-11.5,4.2-16.4,7.8
		c-1.2,0.9-2.4,1.8-3.6,2.7c-1.2,0.8-2,2.1-2.2,3.6c0,0.4,0,1,0.4,1.3C851.8,383.6,852.3,383.5,852.6,383.2L852.6,383.2z"/>
	<path class="st1" d="M842,401.1c7.2,6.4,12.8,14.5,16,23.6c0.9,2.5,1.6,5.1,2.1,7.7c0.2,1.3,1.5,0.8,2.2,0.1c0.6-0.5,1-1.2,1.3-1.9
		c0.3-0.6,0.4-1.2,0.4-1.9c-2.5-12.7-9.2-24.3-18.9-32.8c-0.3-0.3-1,0-1.3,0.2c-0.6,0.4-1.1,1-1.5,1.6
		C841.8,398.6,841,400.2,842,401.1L842,401.1z"/>
	<path class="st1" d="M916.4,494.1l13.7-18.3c0.5-0.6,0.9-1.3,1.1-2c0.2-0.5,0.2-1.1,0-1.6c-0.6-1.1-2.2,0.3-2.6,0.8L915,491.3
		c-0.5,0.6-0.9,1.3-1.1,2c-0.2,0.5-0.2,1.1,0,1.6C914.5,496,916,494.6,916.4,494.1L916.4,494.1z"/>
	<path class="st1" d="M923.6,500.5l14.6-8c1.2-0.8,2.1-2.1,2.2-3.6c0-0.4,0-1-0.4-1.3s-0.9,0-1.3,0.2l-14.6,8
		c-1.2,0.8-2.1,2.1-2.2,3.6c0,0.4,0,1,0.4,1.3S923.2,500.7,923.6,500.5L923.6,500.5z"/>
</g>
</svg>
