<?xml version="1.0" encoding="UTF-8"?>
<svg width="522px" height="149px" viewBox="0 0 522 149" version="1.1" xmlns="http://www.w3.org/2000/svg" xmlns:xlink="http://www.w3.org/1999/xlink">
    <!-- Generator: Sketch 54.1 (76490) - https://sketchapp.com -->
    <title>Group</title>
    <desc>Created with Sketch.</desc>
    <g id="Page-1" stroke="none" stroke-width="1" fill="none" fill-rule="evenodd">
        <g id="A4" transform="translate(-160.000000, -223.000000)">
            <g id="Group" transform="translate(160.000000, 223.000000)">
                <path d="M135.665411,105.13748 C127.961102,105.13748 121.405965,102.755358 116,97.9911134 L122.312354,88.9973863 C126.358735,92.7893361 130.842126,94.685311 135.762524,94.685311 C137.607674,94.685311 139.064371,94.3125978 140.132616,93.567172 C141.20086,92.8217462 141.734983,91.8494514 141.734983,90.6502875 C141.734983,89.9048617 141.411272,89.2485627 140.763851,88.6813905 C140.116431,88.1142183 139.218134,87.5875588 138.068962,87.1014114 C136.919789,86.615264 135.196031,85.999477 132.897687,85.2540512 C131.44099,84.7679038 130.138055,84.2817564 128.988883,83.795609 C127.83971,83.3094616 126.66626,82.7341874 125.468531,82.0697857 C124.270802,81.405384 123.243022,80.6680609 122.385189,79.857815 C121.527356,79.047569 120.750451,78.1400943 120.054474,77.1353894 C119.358496,76.1306845 118.832466,74.9801362 118.476385,73.6837428 C118.120304,72.3873495 117.942263,70.977522 117.942263,69.4542603 C117.942263,66.5697859 118.711075,64.017512 120.2487,61.7974386 C121.786325,59.5773651 123.874258,57.8677472 126.512498,56.6685834 C129.150738,55.4694195 132.120782,54.869838 135.422628,54.869838 C138.821588,54.869838 141.945394,55.3559854 144.794047,56.3282802 C147.642699,57.300575 150.442794,58.8562467 153.194334,60.9952953 L146.881979,70.5237846 C145.069201,68.806064 143.151216,67.5177734 141.128026,66.6589127 C139.104835,65.800052 137.15448,65.3706221 135.276959,65.3706221 C134.046859,65.3706221 132.946243,65.6866179 131.975112,66.3186095 C131.003981,66.9506012 130.518415,67.8499739 130.518415,69.0167277 C130.518415,69.9890225 131.093001,70.8640878 132.242173,71.6419237 C133.391346,72.4197595 135.244587,73.2948249 137.8019,74.2671197 C143.175495,76.2441194 146.768681,77.8159958 148.581459,78.9827496 C151.721451,80.9273393 153.598971,83.5201252 154.214022,86.7611082 C154.408248,87.733403 154.505361,88.819132 154.505361,90.0182959 C154.505361,94.5232621 152.894901,98.1693677 149.673982,100.956613 C146.453063,103.743858 141.783539,105.13748 135.665411,105.13748 Z M186.298686,54.869838 C188.855999,54.869838 191.308106,55.2668586 193.655006,56.0608991 C196.001907,56.8549396 198.114118,58.0054888 199.991639,59.5125457 C201.86916,61.0196027 203.495805,62.8021435 204.871574,64.8601673 C206.247344,66.9181911 207.307496,69.2516987 208.05203,71.86069 C208.796564,74.4696814 209.168831,77.2326189 209.168831,80.1495034 C209.168831,83.8442237 208.586152,87.2553583 207.420794,90.3829064 C206.255437,93.5104545 204.644977,96.151856 202.589415,98.3071093 C200.533854,100.462363 198.073654,102.139571 195.208817,103.338735 C192.343979,104.537899 189.244451,105.13748 185.910233,105.13748 C179.824477,105.13748 175.049747,103.047047 171.586045,98.8661788 L171.391818,98.8661788 L171.391818,124 L158.378657,124 L158.378657,55.6962886 L171.391818,55.6962886 L171.391818,61.2869838 L171.586045,61.2869838 C175.211602,57.0088866 180.115816,54.869838 186.298686,54.869838 Z M183.530961,93.4699425 C187.188889,93.4699425 190.175119,92.2383693 192.489649,89.7752222 C194.804179,87.312075 195.961443,84.1197075 195.961443,80.1981181 C195.961443,76.1144799 194.779901,72.8248821 192.416814,70.3293257 C190.053727,67.8337692 187.091776,66.5859906 183.530961,66.5859906 C181.685812,66.5859906 179.978239,66.9343965 178.408243,67.6312075 C176.838247,68.3280186 175.502942,69.276006 174.402326,70.4751699 C173.30171,71.6743338 172.435785,73.1165706 171.804549,74.8018819 C171.173314,76.4871931 170.857696,78.2859386 170.857696,80.1981181 C170.857696,82.7909041 171.416097,85.108207 172.532898,87.1500261 C173.649699,89.1918453 175.171138,90.7556197 177.097216,91.8413487 C179.023293,92.9270776 181.167875,93.4699425 183.530961,93.4699425 Z M258.87953,79.5661265 C258.87953,81.867224 258.766232,83.4228957 258.539634,84.2331417 L224.501478,84.2331417 C225.278383,87.1176161 226.759359,89.3863042 228.944404,91.0392054 C231.12945,92.6921066 233.775783,93.5347619 236.883404,93.567172 C241.577206,93.5995821 245.445546,91.7684266 248.488424,88.0737062 L256.937268,95.9492943 C254.736037,98.7365392 251.855013,100.964715 248.294198,102.633821 C244.733383,104.302927 240.62226,105.13748 235.960829,105.13748 C231.234656,105.13748 226.977863,104.108468 223.190451,102.050444 C219.403038,99.9924205 216.416809,97.0350233 214.231763,93.1782541 C212.046718,89.3214848 210.954195,84.913748 210.954195,79.9550444 C210.954195,76.3251435 211.569245,72.946419 212.799344,69.8188709 C214.029444,66.6913228 215.704646,64.0337167 217.82495,61.8460533 C219.945253,59.65839 222.494473,57.9487713 225.472609,56.7171981 C228.450746,55.4856249 231.639294,54.869838 235.038254,54.869838 C239.732056,54.869838 243.891735,55.9312596 247.517293,58.0541035 C251.14285,60.1769475 253.942946,63.1100366 255.91758,66.8533717 C257.892214,70.5967067 258.87953,74.8342919 258.87953,79.5661265 Z M235.475263,66.3429169 C232.788466,66.3429169 230.482029,67.072138 228.555952,68.5305802 C226.629874,69.9890225 225.294568,72.095661 224.550035,74.8504966 L245.963483,74.8504966 C245.283691,72.1928905 244.053591,70.1105593 242.273183,68.6035024 C240.492775,67.0964454 238.226802,66.3429169 235.475263,66.3429169 Z M308.396004,79.5661265 C308.396004,81.867224 308.282705,83.4228957 308.056108,84.2331417 L274.017951,84.2331417 C274.794857,87.1176161 276.275832,89.3863042 278.460878,91.0392054 C280.645923,92.6921066 283.292257,93.5347619 286.399877,93.567172 C291.093679,93.5995821 294.962019,91.7684266 298.004898,88.0737062 L306.453741,95.9492943 C304.25251,98.7365392 301.371486,100.964715 297.810671,102.633821 C294.249856,104.302927 290.138733,105.13748 285.477302,105.13748 C280.75113,105.13748 276.494337,104.108468 272.706924,102.050444 C268.919511,99.9924205 265.933282,97.0350233 263.748237,93.1782541 C261.563191,89.3214848 260.470668,84.913748 260.470668,79.9550444 C260.470668,76.3251435 261.085718,72.946419 262.315818,69.8188709 C263.545917,66.6913228 265.221119,64.0337167 267.341423,61.8460533 C269.461727,59.65839 272.010947,57.9487713 274.989083,56.7171981 C277.967219,55.4856249 281.155767,54.869838 284.554727,54.869838 C289.24853,54.869838 293.408209,55.9312596 297.033766,58.0541035 C300.659324,60.1769475 303.459419,63.1100366 305.434053,66.8533717 C307.408687,70.5967067 308.396004,74.8342919 308.396004,79.5661265 Z M284.991737,66.3429169 C282.30494,66.3429169 279.998503,67.072138 278.072425,68.5305802 C276.146348,69.9890225 274.811042,72.095661 274.066508,74.8504966 L295.479956,74.8504966 C294.800164,72.1928905 293.570064,70.1105593 291.789656,68.6035024 C290.009249,67.0964454 287.743276,66.3429169 284.991737,66.3429169 Z M347.715597,31 L360.728758,31 L360.728758,104.31103 L348.346833,104.31103 L348.346833,98.4286461 L348.055493,98.4286461 C344.527049,102.901202 339.574279,105.13748 333.197182,105.13748 C331.287291,105.13748 329.442141,104.943021 327.661733,104.554104 C325.881325,104.165186 324.22231,103.581809 322.684685,102.803973 C321.14706,102.026137 319.714641,101.102457 318.387428,100.032933 C317.060216,98.9634083 315.878672,97.7156297 314.842799,96.2895975 C313.806925,94.8635653 312.924814,93.3240983 312.196465,91.6711971 C311.468117,90.0182959 310.909716,88.2114477 310.521264,86.2506534 C310.132811,84.2898591 309.938585,82.2561419 309.938585,80.1495034 C309.938585,76.5196025 310.521264,73.132776 311.686621,69.9890225 C312.851979,66.845269 314.446253,64.1714582 316.469444,61.9675902 C318.492634,59.7637222 320.920463,58.0297961 323.752929,56.7658129 C326.585396,55.5018296 329.603996,54.869838 332.80873,54.869838 C338.926858,54.869838 343.814886,56.9764765 347.472814,61.1897543 L347.715597,61.1897543 L347.715597,31 Z M335.576454,93.4699425 C337.939541,93.4699425 340.092216,92.9270776 342.034478,91.8413487 C343.976741,90.7556197 345.522459,89.1918453 346.671631,87.1500261 C347.820803,85.108207 348.395389,82.7909041 348.395389,80.1981181 C348.395389,76.3089388 347.189568,73.0679558 344.777925,70.4751699 C342.366281,67.8823839 339.31531,66.5859906 335.625011,66.5859906 C332.064196,66.5859906 329.094152,67.8337692 326.71488,70.3293257 C324.335608,72.8248821 323.145972,76.1144799 323.145972,80.1981181 C323.145972,84.1197075 324.303237,87.312075 326.617767,89.7752222 C328.932297,92.2383693 331.918526,93.4699425 335.576454,93.4699425 Z M395.67826,54.869838 C398.235573,54.869838 400.68768,55.2668586 403.034581,56.0608991 C405.381482,56.8549396 407.493692,58.0054888 409.371213,59.5125457 C411.248734,61.0196027 412.87538,62.8021435 414.251149,64.8601673 C415.626918,66.9181911 416.68707,69.2516987 417.431604,71.86069 C418.176138,74.4696814 418.548405,77.2326189 418.548405,80.1495034 C418.548405,83.8442237 417.965726,87.2553583 416.800369,90.3829064 C415.635011,93.5104545 414.024551,96.151856 411.96899,98.3071093 C409.913429,100.462363 407.453229,102.139571 404.588391,103.338735 C401.723553,104.537899 398.624026,105.13748 395.289808,105.13748 C389.204051,105.13748 384.429321,103.047047 380.965619,98.8661788 L380.771393,98.8661788 L380.771393,124 L367.758232,124 L367.758232,55.6962886 L380.771393,55.6962886 L380.771393,61.2869838 L380.965619,61.2869838 C384.591177,57.0088866 389.49539,54.869838 395.67826,54.869838 Z M392.910536,93.4699425 C396.568464,93.4699425 399.554693,92.2383693 401.869223,89.7752222 C404.183753,87.312075 405.341018,84.1197075 405.341018,80.1981181 C405.341018,76.1144799 404.159475,72.8248821 401.796388,70.3293257 C399.433302,67.8337692 396.471351,66.5859906 392.910536,66.5859906 C391.065386,66.5859906 389.357813,66.9343965 387.787817,67.6312075 C386.217822,68.3280186 384.882516,69.276006 383.7819,70.4751699 C382.681284,71.6743338 381.815359,73.1165706 381.184124,74.8018819 C380.552888,76.4871931 380.237271,78.2859386 380.237271,80.1981181 C380.237271,82.7909041 380.795671,85.108207 381.912472,87.1500261 C383.029273,89.1918453 384.550712,90.7556197 386.47679,91.8413487 C388.402868,92.9270776 390.547449,93.4699425 392.910536,93.4699425 Z M450.924409,54.869838 C453.481722,54.869838 455.933829,55.2668586 458.28073,56.0608991 C460.62763,56.8549396 462.739841,58.0054888 464.617362,59.5125457 C466.494883,61.0196027 468.121528,62.8021435 469.497298,64.8601673 C470.873067,66.9181911 471.933219,69.2516987 472.677753,71.86069 C473.422287,74.4696814 473.794554,77.2326189 473.794554,80.1495034 C473.794554,83.8442237 473.211875,87.2553583 472.046518,90.3829064 C470.88116,93.5104545 469.2707,96.151856 467.215139,98.3071093 C465.159577,100.462363 462.699378,102.139571 459.83454,103.338735 C456.969702,104.537899 453.870175,105.13748 450.535956,105.13748 C444.4502,105.13748 439.67547,103.047047 436.211768,98.8661788 L436.017542,98.8661788 L436.017542,124 L423.004381,124 L423.004381,55.6962886 L436.017542,55.6962886 L436.017542,61.2869838 L436.211768,61.2869838 C439.837326,57.0088866 444.741539,54.869838 450.924409,54.869838 Z M448.156684,93.4699425 C451.814613,93.4699425 454.800842,92.2383693 457.115372,89.7752222 C459.429902,87.312075 460.587167,84.1197075 460.587167,80.1981181 C460.587167,76.1144799 459.405624,72.8248821 457.042537,70.3293257 C454.67945,67.8337692 451.717499,66.5859906 448.156684,66.5859906 C446.311535,66.5859906 444.603962,66.9343965 443.033966,67.6312075 C441.463971,68.3280186 440.128665,69.276006 439.028049,70.4751699 C437.927433,71.6743338 437.061508,73.1165706 436.430273,74.8018819 C435.799037,76.4871931 435.483419,78.2859386 435.483419,80.1981181 C435.483419,82.7909041 436.04182,85.108207 437.158621,87.1500261 C438.275422,89.1918453 439.796861,90.7556197 441.722939,91.8413487 C443.649016,92.9270776 445.793598,93.4699425 448.156684,93.4699425 Z M500.537996,105.13748 C495.779452,105.13748 491.506473,104.092263 487.719061,102.00183 C483.931648,99.9113957 480.961604,96.9539992 478.80893,93.1296393 C476.656255,89.3052794 475.579918,84.9461581 475.579918,80.0522739 C475.579918,75.1259804 476.664348,70.7506537 478.833208,66.9262938 C481.002069,63.1019339 484.028761,60.1364347 487.913287,58.0297961 C491.797813,55.9231576 496.216461,54.869838 501.169231,54.869838 C505.15087,54.869838 508.986839,55.6719812 512.677138,57.2762676 C516.367438,58.8805541 519.410316,61.1897543 521.805774,64.2038683 L513.017034,71.7877679 C510.038898,68.3199166 506.267671,66.5859906 501.703353,66.5859906 C499.793462,66.5859906 498.029239,66.9181911 496.410687,67.5825928 C494.792135,68.2469945 493.424458,69.1625719 492.307657,70.3293257 C491.190856,71.4960795 490.32493,72.905907 489.70988,74.5588082 C489.09483,76.2117094 488.787305,78.0104548 488.787305,79.9550444 C488.787305,83.9414532 489.993127,87.1824362 492.40477,89.6779927 C494.816413,92.1735492 497.948312,93.4213278 501.800466,93.4213278 C504.195924,93.4213278 506.356691,92.9594877 508.282769,92.0358076 C510.208846,91.1121275 511.80312,89.9372711 513.065591,88.5112389 L522,96.386827 C519.766398,98.9796129 516.796354,101.086252 513.089869,102.706743 C509.383384,104.327234 505.199426,105.13748 500.537996,105.13748 Z" id="speedppc" fill="#F6F7F8" fill-rule="nonzero"></path>
                <g id="Group-7">
                    <polygon id="Fill-1" fill="#E73D5C" points="0 60.5476222 31.719726 76.875 50.9163529 58.6406601 59.9148936 30.2739424 59.9148936 0"></polygon>
                    <polygon id="Fill-2" fill="#EF5F79" points="26.212766 63.9607194 30.8187234 90 59.9148936 59.0631711 59.9148936 28.125"></polygon>
                    <polygon id="Fill-3" fill="#BB243F" points="0 90 29.9574468 90 29.9574468 60 0 60"></polygon>
                    <polygon id="Fill-4" fill="#3462B5" points="88 87.5761203 56.280274 71.25 37.0836471 89.4844022 28.0851064 117.851217 28.0851064 148.125"></polygon>
                    <polygon id="Fill-5" fill="#1446A0" points="69.2765957 78.62205 58.8841923 58.125 28.0851064 89.0611579 28.0851064 120"></polygon>
                    <polygon id="Fill-6" fill="#0A3581" points="58.0425532 88.125 88 88.125 88 58.125 58.0425532 58.125"></polygon>
                </g>
                <path d="M504.110688,44 L504.110688,35.7731959 L501,35.7731959 L501,34 L509.463243,34 L509.463243,35.7731959 L506.337041,35.7731959 L506.337041,44 L504.110688,44 Z M519.750375,34 L522,34 L522,44 L519.781405,44 L519.781405,37.7869416 L519.758133,37.7869416 L517.004282,42.1030928 L515.553662,42.1030928 L512.799811,37.7869416 L512.776539,37.7869416 L512.776539,44 L510.557944,44 L510.557944,34 L512.807568,34 L516.275093,39.6907216 L516.306122,39.6907216 L519.750375,34 Z" id="TM" fill="#F6F7F8" fill-rule="nonzero" opacity="0.572335379"></path>
            </g>
            <path d="M663.654785,266 L663.654785,256.544434 L660.46875,256.544434 L660.46875,255.343262 L668.181152,255.343262 L668.181152,256.544434 L664.958496,256.544434 L664.958496,266 L663.654785,266 Z M679.174805,255.343262 L680.48584,255.343262 L680.48584,266 L679.182129,266 L679.182129,257.833496 L679.160156,257.833496 L675.688477,263.854004 L674.802246,263.854004 L671.330566,257.833496 L671.308594,257.833496 L671.308594,266 L670.004883,266 L670.004883,255.343262 L671.315918,255.343262 L675.227051,262.235352 L675.270996,262.235352 L679.174805,255.343262 Z" id="TM" fill-rule="nonzero"></path>
        </g>
    </g>
</svg>