<?xml version="1.0" encoding="utf-8"?>
<!-- Generator: Adobe Illustrator 23.1.0, SVG Export Plug-In . SVG Version: 6.00 Build 0)  -->
<svg version="1.1" id="Слой_1" xmlns="http://www.w3.org/2000/svg" xmlns:xlink="http://www.w3.org/1999/xlink" x="0px" y="0px"
	 viewBox="0 0 2122 2000" style="enable-background:new 0 0 2122 2000;" xml:space="preserve">
<style type="text/css">
	.st0{fill:#7BAEED;}
	.st1{fill:#F674B4;}
	.st2{fill:#1B6BF4;}
	.st3{fill:#000200;}
</style>
<g id="Objects">
	<path class="st0" d="M840,1610.8v25.8c-3.4-1.7-7.4-1.9-10.9,0.7c-13.7,9.9-26.2,20.9-38.7,32.2l-562.6-3.3L207,936
		c271,12,497.7,188.4,589.4,432.7c-103.4,18.3-180.8,16.8-218.8-14.9c24.7,71.5,78.4,137.8,138,178.2c20.9,14.1,42.6,27.6,65.2,35.1
		l57.2-9.7C839.3,1575,840,1592.8,840,1610.8z"/>
	<polygon class="st1" points="1341.1,485.2 1341.1,696.4 1836.1,716.2 1834.4,462.4 	"/>
	<path class="st2" d="M1356.5,397.5c-15.9-10.9-32.5-20.8-47.4-33.1c-5-4.2-12.3,3-7.2,7.2c15.6,12.9,32.8,23.3,49.5,34.7
		C1356.8,410,1361.9,401.2,1356.5,397.5z"/>
	<path class="st2" d="M1310.5,416.9c-9.8-4.4-20-7.4-30.3-10.2c-6.4-1.7-9.1,8.2-2.7,9.9c9.5,2.5,18.9,5.1,27.8,9.2
		C1311.3,428.4,1316.5,419.6,1310.5,416.9z"/>
	<path class="st2" d="M1409.7,779.8c-7.7,5.3-14.2,12-22.1,16.9c-5.6,3.5-0.5,12.3,5.2,8.8c8-4.9,14.5-11.7,22.1-16.9
		C1420.3,784.9,1415.1,776,1409.7,779.8z"/>
	<polygon class="st1" points="440.9,802.7 405,774.4 433.3,738.5 474.5,771 	"/>
	<path class="st1" d="M469.5,809c-12.2,7.4-23.9,15.6-36.2,23c-5.6,3.4-0.5,12.3,5.2,8.8c12.2-7.4,23.9-15.6,36.2-23
		C480.3,814.4,475.1,805.5,469.5,809z"/>
</g>
<g id="Button">
	<path class="st3" d="M1865.3,689.3c-0.1,0-0.1,0-0.2,0l-495-19.8c-2.7-0.1-4.9-2.4-4.9-5.1V453.3c0-2.7,2.2-5,4.9-5.1l493.3-22.8
		c1.3-0.1,2.7,0.4,3.8,1.4c1,1,1.6,2.3,1.6,3.7l1.7,253.8c0,1.4-0.6,2.7-1.6,3.7C1867.9,688.8,1866.6,689.3,1865.3,689.3z
		 M1375.4,659.5l484.8,19.4l-1.6-243.1l-483.1,22.4V659.5z"/>
	<path class="st3" d="M1736.5,581.4C1736.5,581.4,1736.5,581.4,1736.5,581.4l-179.3-3.5c-2.8-0.1-5.1-2.4-5-5.2c0.1-2.8,2.3-5,5.1-5
		c0,0,0.1,0,0.1,0L1731,571l-6.5-97.4c-0.2-2.8,2-5.3,4.8-5.5c2.8-0.2,5.3,2,5.5,4.8l6.8,103c0.1,1.4-0.4,2.8-1.4,3.9
		C1739.3,580.8,1737.9,581.4,1736.5,581.4z"/>
	<path class="st3" d="M1588.6,604.6c-0.9,0-1.9-0.3-2.8-0.8l-41.5-26.7c-1.6-1-2.5-2.8-2.3-4.7c0.1-1.9,1.3-3.5,3-4.3l41.5-18.4
		c2.6-1.2,5.6,0,6.8,2.6c1.1,2.6,0,5.6-2.6,6.8l-32.8,14.5l33.5,21.5c2.4,1.5,3.1,4.7,1.5,7.1
		C1591.9,603.7,1590.3,604.6,1588.6,604.6z"/>
</g>
<g id="Woman">
	<g id="Letter">
		<path class="st3" d="M762.6,1375.9l-23.8-194.7c42.4-4.4,306.9-33.5,375.9-41.1l8.5,145.3c2.8-2.5,6.2-4.4,9.9-5.7l-8.6-145.6
			c-0.1-1.4-0.7-2.7-1.8-3.6c-1.1-0.9-2.5-1.3-3.9-1.2c-130.6,14.4-379,41.7-386,42.2c-1.4,0-2.7,0.7-3.7,1.7c-1,1.1-1.4,2.6-1.2,4
			l24.1,197.2C755.7,1374.6,759.2,1375.1,762.6,1375.9z"/>
		<path class="st3" d="M1144.6,1472.1c-3.2,2.6-6.4,5.1-9.8,7.5l9.3,157.9l-344.5,41L785.1,1560c-0.2,0.1-0.4,0.2-0.6,0.2
			c-3.1,0.9-6.3,1.3-9.5,1.6l15,122.9c0.3,2.6,2.5,4.5,5.1,4.5c0.2,0,0.4,0,0.6,0l354.3-42.1c2.7-0.3,4.7-2.7,4.5-5.4L1144.6,1472.1
			z"/>
		<path class="st3" d="M1009.8,1304.5c1.5,0.1,3.1,0.1,4.6,0.1l-9.8,14.9c-1-3.6-1.1-7.5-0.1-11.2
			C1005.1,1305.9,1007.3,1304.3,1009.8,1304.5z"/>
		<path class="st3" d="M1123.8,1137.2l-79.8,122.1l-6.6,10c-3.9-0.1-8-0.2-12.1-0.2l6.6-10.1l83.3-127.4c1.5-2.4,4.7-3,7.1-1.5
			C1124.7,1131.6,1125.4,1134.8,1123.8,1137.2z"/>
		<path class="st3" d="M1153.6,1644.9c-1,1.4-2.6,2.2-4.2,2.2c-1,0-2-0.3-2.9-0.9l-158.2-110.7l-11-7.7c4.3-1,8.7-2.1,13.3-3.2h0
			l10.9,7.6l151,105.7C1154.7,1639.4,1155.2,1642.6,1153.6,1644.9z"/>
		<path class="st3" d="M928.3,1537.2l-10.7,12.5l0,0l-118.6,137.8c-1,1.2-2.4,1.8-3.9,1.8c-1.2,0-2.4-0.4-3.3-1.2
			c-2.1-1.8-2.4-5.1-0.5-7.2l110.3-128.2l10.6-12.3c0,0,0,0,0,0c5.1-0.9,10.3-1.9,15.5-2.9C927.8,1537.3,928,1537.3,928.3,1537.2z"
			/>
		<path class="st3" d="M940.4,1309c-1.5,2.6-2.9,5.3-4.4,7.9c-0.2,0.4-0.4,0.7-0.6,1.1l-8.6-5.7l-196.6-131.4
			c-2.4-1.6-3-4.8-1.4-7.1c1.6-2.4,4.8-3,7.1-1.4l195.9,130.9L940.4,1309z"/>
		<path class="st3" d="M1049.6,1543.9c30.9-17.1,60.9-35.8,90.8-54.3l-0.7-11.9c-5.8,1.6-140,49.7-194.7,61.6
			c-60,13.1-105,18.5-164.8,23.3l14.8,121.5l18.8-2.2C884.8,1623.5,969.7,1588.2,1049.6,1543.9z"/>
		<path class="st3" d="M798.2,1376.7c-2.5,0-4.7-1.9-5.1-4.5l-10.5-80.9c-0.2-1.5,0.3-2.9,1.2-4c1-1.1,2.4-1.7,3.8-1.7h78.6
			c2.5,0,4.7,1.9,5.1,4.4l9.7,65.5c0.4,2.8-1.5,5.4-4.3,5.8c-2.7,0.4-5.4-1.5-5.8-4.3l-9.1-61.2h-68.4l9.7,75.2
			c0.4,2.8-1.6,5.4-4.4,5.7C798.7,1376.7,798.4,1376.7,798.2,1376.7z"/>
	</g>
	<g id="Body">
		<path class="st3" d="M655.8,1376.7c-2.8,0-5.1-2.3-5.1-5.1v-175.4c0-2.8,2.3-5.1,5.1-5.1s5.1,2.3,5.1,5.1v175.4
			C660.9,1374.4,658.6,1376.7,655.8,1376.7z"/>
		<path class="st3" d="M655.8,1642.2c-2.8,0-5.1-2.3-5.1-5.1v-56.1c0-2.8,2.3-5.1,5.1-5.1s5.1,2.3,5.1,5.1v56.1
			C660.9,1639.9,658.6,1642.2,655.8,1642.2z"/>
		<path class="st3" d="M681.2,1177.3c-12.6,4.9-15.8,7-30.5,16c-0.9,0.9,0,8.8,0,10v49.5c0,2.1,1.3,4.1,3.3,4.8
			c0.6,0.2,1.2,0.3,1.8,0.3c1.5,0,2.9-0.6,3.9-1.8c1.5-1.8,30.1-43.7,30.1-68.8C689.7,1179.5,684.1,1176.2,681.2,1177.3z"/>
		<path class="st3" d="M1068.2,842.1c-0.3-0.2-0.6-0.5-1-0.7c-2.5-1.3-5.6-0.2-6.9,2.3l-64.3,128.4L865.3,842.9c-2-2-5.3-2-7.2,0
			c-2,2-2,5.3,0,7.2l135.7,134.3c1,1,2.3,1.5,3.6,1.5c0.3,0,0.6,0,0.8-0.1c1.6-0.3,3-1.3,3.8-2.8l66.2-132.1V842.1z"/>
		<path class="st3" d="M927.5,1025c-0.2,0-0.4,0-0.6,0c-1.7-0.2-3.2-1.2-3.9-2.7l-87.4-167.9c-1.3-2.5-0.3-5.6,2.2-6.9
			c2.5-1.3,5.6-0.3,6.9,2.2l84,161.2l45.6-52.7c1.9-2.1,5.1-2.4,7.2-0.5c2.1,1.9,2.4,5.1,0.5,7.2l-50.5,58.4
			C930.4,1024.4,928.9,1025,927.5,1025z"/>
		<path class="st3" d="M1057.9,985.9c-1.1,0-2.3-0.4-3.2-1.1l-43.3-34.1c-2-1.5-2.5-4.2-1.4-6.4l50.4-94.7c0.7-1.3,1.8-2.2,3.2-2.6
			c1.4-0.4,2.9-0.1,4.1,0.7l26.1,16.9c1.9,1.2,2.8,3.6,2.1,5.8l-33.2,111.9c-0.5,1.6-1.7,2.9-3.4,3.4
			C1058.9,985.8,1058.4,985.9,1057.9,985.9z M1021.1,945.3l34,26.7l29.9-101l-18.2-11.8L1021.1,945.3z"/>
		<path class="st3" d="M1025.3,1149.9c-2.7,0-5-2.2-5.1-4.9l-4.6-136.1l-21.9-24.7c-1.9-2.1-1.7-5.4,0.4-7.2
			c2.1-1.9,5.3-1.7,7.2,0.4l23.2,26c0.8,0.9,1.3,2,1.3,3.2l4.7,137.9c0.1,2.8-2.1,5.2-4.9,5.3
			C1025.5,1149.9,1025.4,1149.9,1025.3,1149.9z"/>
		<path class="st3" d="M1224.4,1656.7c-2.7,0-5-2.2-5.1-4.9c-0.9-22.2-21.8-543.1-21.8-547.5c0-2.8,2.3-5.1,5.1-5.1
			c2.8,0,5.1,2.3,5.1,5.1c0.1,7.1,21.6,541.7,21.8,547.1c0.1,2.8-2.1,5.2-4.9,5.3C1224.5,1656.7,1224.4,1656.7,1224.4,1656.7z
			 M1207.7,1104.3L1207.7,1104.3L1207.7,1104.3z"/>
	</g>
	<g id="Head">
		<path class="st3" d="M885.7,602c4.3-58.3,32.4-149.4,32.4-149.4c26.1,24.2,210.8,33.9,232.3,22.9c-8.6-47.5-42.5-90.3-146.4-90.3
			C881,385.2,840,436.4,840,518.3s0,81.9,0,81.9l1,1.7C858.9,599.9,867.6,602.1,885.7,602z"/>
		<path class="st3" d="M1072.2,669.5c-2.8,0-5.1-2.3-5.1-5.1s2.3-5.1,5.1-5.1c9.6,0,17.5-2.6,21.1-6.9c2.1-2.4,2.8-5.4,2.2-9
			c-1.3-8.1-19.3-12.6-27.9-13.5c-2.6-0.3-4.6-2.5-4.6-5.1v-46.9c0-2.8,2.3-5.1,5.1-5.1c2.8,0,5.1,2.3,5.1,5.1v42.5
			c9.5,1.7,29.9,6.9,32.3,21.4c1.1,6.6-0.4,12.6-4.4,17.3C1095.4,665.8,1085.1,669.5,1072.2,669.5z"/>
		<path class="st3" d="M1101.3,569.2v10.2c0,13.2,20.5,13.2,20.5,0v-10.2C1121.8,556,1101.3,556,1101.3,569.2z"/>
		<path class="st3" d="M978,569.2v10.2c0,13.2,20.5,13.2,20.5,0v-10.2C998.5,556,978,556,978,569.2z"/>
		<path class="st3" d="M981.8,519.7c-8.2,1.8-16.2,4-23.9,7.3c-6,2.6-0.8,11.4,5.2,8.8c6.9-3,14.2-4.7,21.5-6.3
			C991,528.2,988.3,518.3,981.8,519.7z"/>
		<path class="st3" d="M1124.4,517.9c-5.2-3.5-11.1-6.1-16-10c-5.1-4-12.4,3.2-7.2,7.2c5.7,4.5,12.1,7.6,18.1,11.6
			C1124.7,530.5,1129.8,521.6,1124.4,517.9z"/>
		<path class="st3" d="M1008.2,715.8c-7.7-1.2-17.8-4.7-18.4-13.8c-0.4-6.5-10.7-6.6-10.2,0c0.9,13.9,13.1,21.7,25.9,23.7
			C1011.9,726.7,1014.7,716.8,1008.2,715.8z"/>
		<path class="st3" d="M1158.8,551.5c-0.3-15.9-0.6-32.5-0.9-49.7c-1.3-80.8-53.1-121.7-154-121.7c-115.3,0-169,43.9-169,138.3v81.9
			c0,2.8,2.3,5.1,5.1,5.1c2.8,0,5.1-2.3,5.1-5.1v-81.9c0-88.5,49-128,158.8-128c95.6,0,142.6,36.5,143.8,111.6
			c0.3,17.2,0.6,33.8,0.9,49.7c2.9,150.2,4.7,240.9-44.8,269.5c-42.5,24.5-119.2,19.9-120,19.8c-1.7-0.1-3.4,0.7-4.4,2.1
			c-1,1.4-1.3,3.2-0.7,4.9c9.2,24.4,42.9,38.4,62.9,44.7c6.6-13.3,13.8-26.3,21.4-39v-7.1c0-0.2,0-0.3,0-0.5
			c16.3-3.2,32.5-8.3,45.9-16C1163.7,798.4,1161.8,705.5,1158.8,551.5z"/>
		<path class="st3" d="M852.4,679.3l0.5,20.4c3.4,0,6.8,0,10.2-0.1l-0.7-25.7c0-1.4-0.6-2.7-1.6-3.6c-1-0.9-2.3-1.5-3.7-1.4
			c-17.7,0.7-31.5-3.2-40-11.4c-7.7-7.4-8.8-15.9-8.8-20.3c0-7.2,2.6-13.4,7.9-18.4c10.8-10.3,32.5-14.9,62.8-13.3
			c2.7,0.1,5.2-2,5.4-4.9c0.1-2.8-2-5.2-4.9-5.4c-33.6-1.7-57.3,3.7-70.3,16.1c-9.1,8.7-11.1,18.8-11.1,25.8
			c0,10.4,4.3,20.3,12,27.7C816.9,671.6,829.7,679.1,852.4,679.3z"/>
		<path class="st3" d="M853.6,669.7c-19.1,1.2-40.2-3.3-47.2-14c-13.3-20.6-6.2-43.2,44.3-61.9c18.6-6.9,29.5-39.1,34-57.5
			c8.7-35.4,14.4-71.4,19.4-107.5c0.4-2.9-0.7-5.2-3.6-6.3c-4-1.5-5.8-2.2-7.5-2.6c-0.7-0.6-1.6-1-2.7-1.1
			c-52.4-4.1-96.3,53.7-120.9,93c-39.1,62.5-27.7,134.9-23.8,204.8c-29.1-2-58.4,18.7-79.7,36.1c-29.3,23.8-48.2,54.6-47.8,93.4
			c0.7,78.1,80.3,107.1,147.1,103.5c73.1-3.9,142.3-47.9,162-121.3C945.4,760.9,937.3,664.5,853.6,669.7z"/>
	</g>
	<g id="Hand_2">
		<path class="st3" d="M1569.3,789.2c-0.5,0-1.1-0.1-1.6-0.3c-2.7-0.9-4.1-3.8-3.2-6.5c23.3-68.7,43.1-148.5,34.4-157.8
			c-2.2-2.3-4-3.3-5.3-3c-12,2.6-32.7,65.8-41.6,92.8c-0.9,2.7-3.8,4.1-6.5,3.3c-2.7-0.9-4.1-3.8-3.3-6.5
			c23.8-72.4,35.8-96.6,49.1-99.6c5.1-1.1,10.2,0.9,15,6c17,18.2-20.3,133.3-32.2,168.1C1573.5,787.9,1571.5,789.2,1569.3,789.2z"/>
		<path class="st3" d="M1373.2,1255.2c-36.8,0-82.5-37.5-95.9-120c-21.3-130.5-86.3-221-188.1-261.5c-2.6-1-3.9-4-2.9-6.7
			c1.1-2.6,4-3.9,6.7-2.9c105.3,42,172.5,135.1,194.4,269.4c12.5,76.5,53.2,111.4,85.8,111.4c0,0,0,0,0.1,0
			c28.3,0,49.1-24.6,55.7-65.7c5.9-36.8,11.1-88,16.6-142.1c11-108.6,22.4-220.9,42.3-252.8c29.6-47.3,53.6-83.2,73.9-83.8
			c4.1-0.1,9.8,1.2,14.7,8c13.7,19.3-7,55.8-26.8,83c-3.4,4.7-2.6,11.1,1.9,14.9c19,16.1,49.9,49.3,42.2,91c-0.5,2.8-3.2,4.7-6,4.1
			c-2.8-0.5-4.6-3.2-4.1-6c6.8-36.7-21.3-66.7-38.7-81.4c-8.6-7.3-10.2-19.6-3.6-28.7c24.4-33.6,34.4-60.2,26.8-71
			c-2.4-3.3-4.5-3.7-6-3.7c-16.4,0.5-47,49.4-65.3,78.7c-18.8,30.1-30.6,146.2-41,248.7c-5.5,54.3-10.7,105.6-16.7,142.7
			C1431.7,1226.6,1406.5,1255.1,1373.2,1255.2C1373.2,1255.2,1373.2,1255.2,1373.2,1255.2z"/>
		<path class="st3" d="M1627.9,742.9c-7.6-11.2-20.6-17.8-40.9-20.6c-0.5-0.1-0.9,0-1.4,0c-0.2,1.5-0.4,3-0.6,4.5
			c-0.2,1.8-0.4,3.5-0.5,5.3c0.4,0.1,0.7,0.2,1.1,0.3c17.2,2.4,27.9,7.5,33.8,16.2c7.3,10.8,7.8,28.6,1.4,54.4
			c-0.4,1.5-0.8,2.9-1.4,4.2c-1,2.4-4,7.9-8.9,6.3c-7.5-2.5-14.8-18.8-7.8-47.3c0.7-2.7-1-5.5-3.7-6.2c-2.7-0.7-5.5,1-6.2,3.7
			c-8.1,33.1,1.1,54.9,14.5,59.4c1.7,0.6,3.4,0.9,5.1,0.9c6.8,0,12.9-4.6,16.4-12.8c0.8-1.7,1.4-3.7,1.9-5.8
			C1638,776.3,1637.1,756.4,1627.9,742.9z"/>
		<path class="st3" d="M1641.8,822.2c-6.2,0-12.6-2.1-17.9-6.1c-2.3-1.7-2.7-4.9-1-7.2c1.7-2.3,4.9-2.7,7.2-1
			c4.9,3.7,11.3,5,16.3,3.3c3.7-1.3,6.1-4,7.1-8.2c6.6-26.8,5.9-45-2.3-55.7c-8.2-10.8-24.3-15.7-53.7-16.5c-2.8-0.1-5.1-2.4-5-5.3
			c0.1-2.8-0.3-5.5,2.3-5.5c36.5,0,54.2,7.5,64.5,21c10.3,13.5,11.6,34,4.1,64.4c-1.9,7.5-6.7,12.9-13.6,15.4
			C1647.3,821.8,1644.6,822.2,1641.8,822.2z"/>
		<path class="st3" d="M1674.7,824c-7,0-13.5-5.1-17.4-13.5c-1.2-2.6-0.1-5.6,2.5-6.8c2.6-1.2,2.9-2.7,4.1-0.1
			c2.2,4.8,8.3,10.3,11.2,10.1c3.1-0.3,5.9-4,7.3-9.8c6-24.3,5.5-41-1.4-51c-5.8-8.3-16.6-13.1-34.1-15.1
			c-2.8-0.3-11.6-5.3-11.3-8.1c0.3-2.8,9.7-2.4,12.5-2.1c20.6,2.4,33.8,8.6,41.3,19.5c8.9,12.8,9.8,31.6,3,59.3
			c-2.5,10.3-8.6,16.8-16.3,17.5C1675.7,824,1675.2,824,1674.7,824z"/>
		<path class="st3" d="M1394.4,1496.5c-123,0-184.6-104.5-185.4-105.8c-1.4-2.5-0.6-5.6,1.9-7c2.5-1.4,5.6-0.6,7,1.9
			c3.4,5.9,85.2,144,253.7,87.2c162.4-54.8,178.8-255.6,177-401.9c-1-85.4,6-138.6,12.9-190.1c2.8-20.9,5.4-40.7,7.5-62.4
			c0.3-2.8,2.8-5,5.6-4.6c2.8,0.3,4.9,2.8,4.6,5.6c-2.1,21.9-4.7,41.7-7.5,62.8c-6.8,51.1-13.8,103.9-12.8,188.6
			c1.1,86.1,4.2,348.3-184,411.7C1445.7,1492.4,1418.8,1496.5,1394.4,1496.5z"/>
		<path class="st3" d="M1581.5,1021.1c-40.7,0-83.2-15-127-45c-2.3-1.6-2.9-4.8-1.3-7.1c1.6-2.3,4.8-2.9,7.1-1.3
			c69.4,47.5,132.3,56,192.4,26c2.5-1.3,5.6-0.2,6.9,2.3c1.3,2.5,0.2,5.6-2.3,6.9C1632.8,1015,1607.5,1021.1,1581.5,1021.1z"/>
		<path class="st3" d="M1578.9,1081c-40.7,0-83.2-15-127-45c-2.3-1.6-2.9-4.8-1.3-7.1c1.6-2.3,4.8-2.9,7.1-1.3
			c69.4,47.5,132.3,56,192.4,26c2.5-1.3,5.6-0.2,6.9,2.3c1.3,2.5,0.2,5.6-2.3,6.9C1630.2,1074.9,1604.9,1081,1578.9,1081z"/>
		<path class="st3" d="M1209.6,1283.2c14.7,82.3,58,164.3,58,164.3l-53.4-49.5L1209.6,1283.2z"/>
	</g>
	<g id="Hand_1">
		<path class="st3" d="M1147.3,1318.5c-12.7,28.1-27.2,50.7-88.2,65.4c-2.7,0.7-5.5-1-6.2-3.8c-0.7-2.8,1-5.5,3.8-6.2
			c56.6-13.6,69.4-33.3,81.3-59.6c7.5-16.7,7-25.3,5.2-29.6c-1.2-2.9-3.4-4.9-6.7-6.2c-5.9-2.3-15.7,11.6-24.2,23.9l-4.8,6.8
			c-7.4,10.4-34.1,19-79.4,25.6c-7,1-14.1-1.5-18.8-6.8c-2.2-2.5-3.8-5.3-4.6-8.4c-1-3.6-1.1-7.5-0.1-11.2c0.6-2.4,2.8-4,5.3-3.8
			c1.5,0.1,3.1,0.1,4.6,0.1c25.4-0.1,53.6-13.2,54.8-26.2c0.2-2-0.4-2.9-0.9-3.6c-3.6-4-16-5.1-30.9-5.4c-3.9-0.1-8-0.2-12.1-0.2
			c-0.7,0-1.3,0-2,0c-8.1-0.1-16.9-0.2-26-0.5c-30.4-1.2-44.3,18-56.9,40.4c-1.5,2.6-2.9,5.3-4.4,7.9c-0.2,0.4-0.4,0.7-0.6,1.1
			c-2.6,4.7-5.1,9.3-7.8,13.8c-23.3,38.8-158.8,49-199.8,51.1c-13.5,0.7-26.3,1.1-38.2,1.1c-75.8,0-118.9-14.6-131.4-44.3
			c-16.5-39.5,16.7-107.9,110.8-156.7c2.5-1.3,5.6-0.3,6.9,2.2c1.3,2.5,0.3,5.6-2.2,6.9c-85.5,44.3-121,107.9-106,143.7
			c12.3,29.5,66,42,159.6,37c102.8-5.4,178-23.6,191.5-46.2c2.8-4.6,5.4-9.5,8-14.3c0-0.1,0.1-0.2,0.1-0.2c1.6-2.9,3.2-5.8,4.8-8.8
			c13.1-23.3,29.7-46.4,65.8-44.9c9.1,0.3,17.8,0.4,25.8,0.5c3,0,5.8,0.1,8.5,0.1c4.3,0.1,8.3,0.2,12,0.3
			c15.7,0.7,26.4,2.5,31.9,8.6c2.8,3.1,3.9,6.9,3.5,11.4c-2,20.6-36.1,35.5-65.3,35.5c0.2,2.3,1.2,4.4,2.8,6.2
			c2.5,2.8,6,4.1,9.7,3.5c40-5.8,67.2-13.8,72.6-21.4l4.7-6.7c11.8-16.8,22.9-32.7,36.3-27.6c5.9,2.3,10.2,6.4,12.5,11.9
			C1156.3,1289.8,1154.6,1302.5,1147.3,1318.5z"/>
		<path class="st3" d="M1065,1429.9c-2.1,0-4-1.3-4.8-3.3c-1-2.7,0.4-5.6,3-6.6c0.5-0.2,52-19.5,73.9-44.5
			c20.8-23.7,23.4-46.6,8.1-70c-1.6-2.4-0.9-5.5,1.5-7.1c2.4-1.6,5.5-0.9,7.1,1.5c18,27.4,15,55.1-8.9,82.4
			c-23.6,26.9-75.8,46.5-78,47.3C1066.2,1429.8,1065.5,1429.9,1065,1429.9z"/>
		<path class="st3" d="M1074.4,1473.4c-1.9,0-3.8-1.1-4.6-2.9c-1.2-2.6-0.1-5.6,2.4-6.8c0.3-0.2,34.1-16.3,60.7-35.4
			c24.6-17.7,32.8-45.5,22.5-76.1c-0.9-2.7,0.5-5.6,3.2-6.5c2.7-0.9,5.6,0.5,6.5,3.2c11.7,34.7,1.9,67.5-26.2,87.7
			c-27.4,19.7-60.8,35.6-62.2,36.3C1075.8,1473.3,1075.1,1473.4,1074.4,1473.4z"/>
		<path class="st3" d="M881.9,1567.1c-1.3,0-2.7-0.5-3.7-1.5c-49-50.3-61.2-118-36.1-201.3c0.8-2.7,3.7-4.2,6.4-3.4
			c2.7,0.8,4.2,3.7,3.4,6.4c-24.2,80.5-13.2,143,33.7,191.2c2,2,1.9,5.3-0.1,7.2C884.5,1566.6,883.2,1567.1,881.9,1567.1z"/>
		<path class="st3" d="M824.9,1576.7c-1.3,0-2.7-0.5-3.7-1.5c-49-50.3-61.2-118-36.1-201.3c0.8-2.7,3.7-4.2,6.4-3.4
			c2.7,0.8,4.2,3.7,3.4,6.4c-24.2,80.5-13.2,143,33.7,191.2c2,2,1.9,5.3-0.1,7.2C827.5,1576.2,826.2,1576.7,824.9,1576.7z"/>
		<path class="st3" d="M1145.9,1474.7c-17,20.1-89.9,43.4-144.5,57.5c-4.5,1.2-8.9,2.3-13.2,3.3c-18.7,4.6-34.1,7.7-42.5,8.9
			c-2.7,0.4-8.3,1.5-16.3,3c-4,0.8-8,1.5-12,2.3l0,0c-5.4,1-10.7,2-16,2.9c-110.3,19.9-200.2,28-273.4,28
			c-154.3,0-234.6-36-276.3-73.5c-42.2-38-60.8-90.7-55.1-156.7c30.8-361,510.3-495,559.9-507.8l0-1.4c3.4,2,6.9,3.8,10.4,5.7
			c-0.1,2.3-1.7,4.2-4,4.7c-135.8,30.5-529.4,187.9-556,499.7c-5.3,62.6,12.1,112.4,51.8,148.2c60.6,54.5,205.7,105.4,553.5,40.8
			c0,0,0,0,0,0c5.1-0.9,10.3-1.9,15.5-2.9c0.2,0,0.4-0.1,0.7-0.1c7.9-1.5,13.4-2.6,16.1-2.9c8.2-1.2,19.6-3.4,32.9-6.5
			c4.3-1,8.7-2.1,13.3-3.2h0c55.8-13.9,132.5-38.6,147.5-56.5c19.3-22.9,9.2-39.9,8.7-40.6c-1.5-2.4-0.8-5.5,1.6-7
			c2.4-1.5,5.5-0.8,7,1.5C1156,1423,1170.2,1445.8,1145.9,1474.7z"/>
	</g>
</g>
</svg>
