<?xml version="1.0" encoding="UTF-8"?>
<svg width="223px" height="57px" viewBox="0 0 223 57" version="1.1" xmlns="http://www.w3.org/2000/svg" xmlns:xlink="http://www.w3.org/1999/xlink">
    <title>A4 2</title>
    <g id="Page-1" stroke="none" stroke-width="1" fill="none" fill-rule="evenodd">
        <g id="logo-light-background" transform="translate(-316, -193)">
            <g id="Group" transform="translate(316, 193)">
                <g id="Group-7">
                    <polygon id="Fill-1" fill="#E73D5C" points="0 23.4117472 12.2553487 29.725 19.6722273 22.6743886 23.1489362 11.7059244 23.1489362 0"></polygon>
                    <polygon id="Fill-2" fill="#EF5F79" points="10.1276596 24.7314782 11.907234 34.8 23.1489362 22.8377595 23.1489362 10.875"></polygon>
                    <polygon id="Fill-3" fill="#BB243F" points="0 34.8 11.5744681 34.8 11.5744681 23.2 0 23.2"></polygon>
                    <polygon id="Fill-4" fill="#3462B5" points="34 33.8627665 21.7446513 27.55 14.3277727 34.6006355 10.8510638 45.5691372 10.8510638 57.275"></polygon>
                    <polygon id="Fill-5" fill="#1446A0" points="26.7659574 30.400526 22.7507107 22.475 10.8510638 34.436981 10.8510638 46.4"></polygon>
                    <polygon id="Fill-6" fill="#0A3581" points="22.4255319 34.075 34 34.075 34 22.475 22.4255319 22.475"></polygon>
                </g>
                <path d="M215.185024,14 L215.185024,10.7092784 L214,10.7092784 L214,10 L217.224093,10 L217.224093,10.7092784 L216.033158,10.7092784 L216.033158,14 L215.185024,14 Z M221.143,10 L222,10 L222,14 L221.154821,14 L221.154821,11.5147766 L221.145955,11.5147766 L220.096869,13.2412371 L219.544252,13.2412371 L218.495166,11.5147766 L218.486301,11.5147766 L218.486301,14 L217.641121,14 L217.641121,10 L218.498121,10 L219.819083,12.2762887 L219.830904,12.2762887 L221.143,10 Z" id="TM" fill="#031825" fill-rule="nonzero" opacity="0.572335379"></path>
            </g>
            <g id="Ad-Alchemy" transform="translate(358, 203.9)" fill="#011627" fill-rule="nonzero">
                <path d="M0,23.1 L6.303,23.1 L7.722,18.711 L15.774,18.711 L17.226,23.1 L23.76,23.1 L15.576,0 L8.25,0 L0,23.1 Z M9.273,13.926 L11.715,6.435 L14.19,13.926 L9.273,13.926 Z" id="Shape"></path>
                <path d="M35.1988377,0 L35.1988377,7.953 C34.1098377,6.699 32.5588377,5.874 30.4138377,5.874 C25.9588377,5.874 22.6918377,9.207 22.6918377,14.553 C22.6918377,19.833 25.9588377,23.331 30.4798377,23.2982315 C32.7238377,23.2982315 34.3078377,22.308 35.3968377,20.889 L35.8918377,23.1 L40.9078377,23.1 L40.9078377,0 L35.1988377,0 Z M31.8988377,18.777 C29.7868377,18.777 28.4998377,17.061 28.4998377,14.586 C28.4998377,12.111 29.7868377,10.395 31.8988377,10.395 C34.0438377,10.395 35.2648377,12.111 35.2648377,14.586 C35.2648377,17.061 34.0438377,18.777 31.8988377,18.777 Z" id="Shape"></path>
                <path d="M48.242513,23.1 L54.545513,23.1 L55.964513,18.711 L64.016513,18.711 L65.468513,23.1 L72.002513,23.1 L63.818513,0 L56.492513,0 L48.242513,23.1 Z M57.515513,13.926 L59.957513,6.435 L62.432513,13.926 L57.515513,13.926 Z" id="Shape"></path>
                <polygon id="Path" points="72.4523507 0 72.4523507 23.1 78.1613507 23.1 78.1613507 0"></polygon>
                <path d="M97.1241883,16.335 L91.1841883,16.335 C90.9201883,17.82 89.9631883,18.744 88.4451883,18.744 C86.4321883,18.744 85.2111883,17.061 85.2111883,14.586 C85.2111883,12.111 86.4321883,10.428 88.4451883,10.428 C89.8971883,10.428 90.8211883,11.319 91.1511883,12.705 L97.0911883,12.705 C96.4641883,8.481 93.3291883,5.874 88.4451883,5.874 C82.8681883,5.874 79.4031883,9.24 79.4031883,14.586 C79.4031883,19.866 82.8681883,23.298 88.4451883,23.298 C93.3951883,23.298 96.4971883,20.625 97.1241883,16.335 Z" id="Path"></path>
                <path d="M108.695026,5.874 C106.451026,5.874 105.032026,6.633 103.943026,7.821 L103.943026,0 L98.234026,0 L98.234026,23.1 L103.943026,23.1 L103.943026,14.223 C103.943026,11.814 105.065026,10.428 107.045026,10.428 C109.058026,10.428 109.850026,11.814 109.850026,14.223 L109.850026,23.1 L115.559026,23.1 L115.559026,13.992 C115.559026,7.557 112.061026,5.874 108.695026,5.874 Z" id="Path"></path>
                <path d="M116.470864,14.652 C116.470864,19.932 120.001864,23.298 126.106864,23.298 C130.858864,23.298 133.795864,20.559 134.257864,17.292 L128.647864,17.292 C128.317864,18.546 127.294864,19.173 125.710864,19.173 C123.664864,19.173 122.674864,17.985 122.410864,16.005 L122.410864,15.939 L134.290864,15.939 C134.422864,15.312 134.455864,14.685 134.455864,14.091 C134.455864,9.141 130.759864,5.874 125.314864,5.874 C120.001864,5.874 116.470864,9.273 116.470864,14.652 Z M122.476864,12.441 C122.740864,10.824 123.862864,9.933 125.611864,9.933 C127.327864,9.933 128.482864,10.824 128.812864,12.441 L122.476864,12.441 Z" id="Shape"></path>
                <path d="M156.982701,5.874 C154.540701,5.874 152.461701,6.798 151.174701,8.58 C150.085701,6.501 148.204701,5.874 146.224701,5.874 C143.749701,5.907 142.264701,6.765 141.142701,8.118 L140.713701,6.072 L135.697701,6.072 L135.697701,23.133 L141.406701,23.133 L141.406701,13.662 C141.406701,11.55 142.528701,10.428 144.145701,10.428 C145.894701,10.428 146.521701,11.55 146.521701,13.662 L146.521701,23.133 L152.230701,23.133 L152.230701,13.662 C152.230701,11.55 153.385701,10.428 154.969701,10.428 C156.685701,10.428 157.345701,11.55 157.345701,13.662 L157.345701,23.133 L163.054701,23.133 L163.054701,13.992 C163.054701,7.557 160.084701,5.874 156.982701,5.874 Z" id="Path"></path>
                <path d="M162.349539,6.072 L168.883539,23.199 L168.652539,23.826 C168.322539,24.75 167.860539,24.981 166.837539,24.981 L164.164539,24.981 L164.164539,29.7 L169.378539,29.7 C172.183539,29.7 173.140539,28.116 174.229539,25.278 L181.621539,6.072 L175.516539,6.072 L171.985539,17.391 L168.421539,6.072 L162.349539,6.072 Z" id="Path"></path>
            </g>
            <g id="Formerly-SpeedPPC" transform="translate(358.88, 234.64)" fill="#011627" fill-rule="nonzero">
                <polygon id="Path" points="0 7.36 0.57 7.36 0.57 4.15 3.88 4.15 3.88 3.62 0.57 3.62 0.57 0.78 4.43 0.78 4.43 0.26 0 0.26"></polygon>
                <path d="M7.19742538,7.41 C8.58742538,7.41 9.66742538,6.4 9.66742538,4.94 C9.66742538,3.46 8.58742538,2.46 7.19742538,2.46 C5.71742538,2.46 4.72742538,3.57 4.72742538,4.94 C4.72742538,6.31 5.71742538,7.41 7.19742538,7.41 Z M7.19742538,6.91 C6.03742538,6.91 5.26742538,6.02 5.26742538,4.94 C5.26742538,3.84 6.03742538,2.95 7.19742538,2.95 C8.26742538,2.95 9.12742538,3.75 9.12742538,4.94 C9.12742538,6.11 8.27742538,6.91 7.19742538,6.91 Z" id="Shape"></path>
                <path d="M10.7048508,7.36 L11.2348508,7.36 L11.2348508,4.98 C11.2348508,3.83 11.8648508,3.03 12.8548508,3.03 C12.9448508,3.03 13.0548508,3.04 13.1648508,3.05 L13.1648508,2.46 L12.9048508,2.46 C12.1548508,2.46 11.5748508,2.87 11.2548508,3.54 L11.2348508,3.54 L11.2348508,2.51 L10.7048508,2.51 L10.7048508,7.36 Z" id="Path"></path>
                <path d="M13.8622761,7.36 L14.3922761,7.36 L14.3922761,4.96 C14.3922761,3.73 15.1022761,2.95 16.0122761,2.95 C16.8122761,2.95 17.2822761,3.55 17.2822761,4.74 L17.2822761,7.36 L17.8122761,7.36 L17.8122761,4.96 C17.8122761,3.73 18.5222761,2.95 19.3922761,2.95 C20.1922761,2.95 20.6322761,3.55 20.6322761,4.74 L20.6322761,7.36 L21.1622761,7.36 L21.1622761,4.57 C21.1622761,3.24 20.6122761,2.46 19.5122761,2.46 C18.7222761,2.46 18.0422761,2.92 17.7022761,3.7 L17.6822761,3.7 C17.4722761,2.92 16.9422761,2.46 16.1322761,2.46 C15.4122761,2.46 14.7622761,2.87 14.4022761,3.57 L14.3922761,3.57 L14.3922761,2.51 L13.8622761,2.51 L13.8622761,7.36 Z" id="Path"></path>
                <path d="M26.6097015,4.81 C26.6097015,3.46 25.7297015,2.46 24.4297015,2.46 C23.0897015,2.46 22.0797015,3.49 22.0797015,4.93 C22.0797015,6.38 23.0697015,7.41 24.4697015,7.41 C25.3797015,7.41 26.0097015,7.05 26.4197015,6.5 L26.0397015,6.18 C25.6997015,6.62 25.1797015,6.91 24.4797015,6.91 C23.4197015,6.91 22.6697015,6.16 22.6197015,5.05 L26.5997015,5.05 C26.6097015,5.02 26.6097015,4.92 26.6097015,4.81 Z M24.4297015,2.95 C25.3697015,2.95 25.9797015,3.62 26.0797015,4.61 L22.6397015,4.61 C22.7697015,3.61 23.4997015,2.95 24.4297015,2.95 Z" id="Shape"></path>
                <path d="M27.6171269,7.36 L28.1471269,7.36 L28.1471269,4.98 C28.1471269,3.83 28.7771269,3.03 29.7671269,3.03 C29.8571269,3.03 29.9671269,3.04 30.0771269,3.05 L30.0771269,2.46 L29.8171269,2.46 C29.0671269,2.46 28.4871269,2.87 28.1671269,3.54 L28.1471269,3.54 L28.1471269,2.51 L27.6171269,2.51 L27.6171269,7.36 Z" id="Path"></path>
                <polygon id="Path" points="30.8345523 7.36 31.3645523 7.36 31.3645523 0 30.8345523 0"></polygon>
                <polygon id="Path" points="33.4619776 9.34 34.0319776 9.34 36.8519776 2.51 36.2819776 2.51 34.6019776 6.58 34.5919776 6.58 32.7819776 2.51 32.1919776 2.51 34.3319776 7.23"></polygon>
                <path d="M42.4568284,7.44 C43.5968284,7.44 44.9068284,6.78 44.9068284,5.31 C44.9068284,3.94 43.9268284,3.61 42.7068284,3.13 C41.8468284,2.8 41.3668284,2.62 41.3768284,2.1 C41.3868284,1.57 41.8268284,1.27 42.3768284,1.27 C42.8568284,1.27 43.4268284,1.52 44.0068284,2 L44.7268284,1.05 C44.0068284,0.48 43.2168284,0.18 42.3768284,0.18 C41.1468284,0.18 40.1268284,1.05 40.1268284,2.16 C40.1268284,3.46 41.1968284,3.94 42.2768284,4.32 C43.1768284,4.64 43.6468284,4.84 43.6468284,5.46 C43.6468284,5.98 43.2468284,6.32 42.4668284,6.32 C41.8568284,6.32 41.1568284,6.01 40.6468284,5.39 L39.8868284,6.32 C40.6268284,7.09 41.5468284,7.44 42.4568284,7.44 Z" id="Path"></path>
                <path d="M45.9042538,9.34 L47.0242538,9.34 L47.0242538,6.77 L47.0442538,6.76 C47.4042538,7.2 47.9142538,7.44 48.5742538,7.44 C49.9342538,7.44 50.9442538,6.45 50.9442538,4.94 C50.9442538,3.47 49.9342538,2.41 48.5842538,2.41 C47.9442538,2.41 47.4042538,2.64 47.0442538,3.06 L47.0242538,3.06 L47.0242538,2.48 L45.9042538,2.48 L45.9042538,9.34 Z M48.4042538,6.42 C47.6042538,6.42 46.9742538,5.83 46.9742538,4.95 C46.9742538,4.08 47.5542538,3.42 48.3942538,3.42 C49.1742538,3.42 49.8042538,4.01 49.8042538,4.95 C49.8042538,5.81 49.2242538,6.42 48.4042538,6.42 Z" id="Shape"></path>
                <path d="M56.3716791,4.86 C56.3716791,3.44 55.4416791,2.41 54.0716791,2.41 C52.6416791,2.41 51.6216791,3.42 51.6216791,4.92 C51.6216791,6.45 52.6716791,7.44 54.1516791,7.44 C55.2016791,7.44 55.8116791,7.05 56.2216791,6.52 L55.4416791,5.85 C55.1916791,6.16 54.7916791,6.42 54.2116791,6.42 C53.4516791,6.42 52.9216791,6 52.7816791,5.29 L56.3416791,5.29 C56.3516791,5.21 56.3716791,5.04 56.3716791,4.86 Z M54.0616791,3.42 C54.7016791,3.42 55.1016791,3.82 55.2416791,4.41 L52.8016791,4.41 C52.9616791,3.77 53.4416791,3.42 54.0616791,3.42 Z" id="Shape"></path>
                <path d="M61.7891045,4.86 C61.7891045,3.44 60.8591045,2.41 59.4891045,2.41 C58.0591045,2.41 57.0391045,3.42 57.0391045,4.92 C57.0391045,6.45 58.0891045,7.44 59.5691045,7.44 C60.6191045,7.44 61.2291045,7.05 61.6391045,6.52 L60.8591045,5.85 C60.6091045,6.16 60.2091045,6.42 59.6291045,6.42 C58.8691045,6.42 58.3391045,6 58.1991045,5.29 L61.7591045,5.29 C61.7691045,5.21 61.7891045,5.04 61.7891045,4.86 Z M59.4791045,3.42 C60.1191045,3.42 60.5191045,3.82 60.6591045,4.41 L58.2191045,4.41 C58.3791045,3.77 58.8591045,3.42 59.4791045,3.42 Z" id="Shape"></path>
                <path d="M64.8165299,7.44 C65.5165299,7.44 66.0465299,7.17 66.4065299,6.7 L66.4165299,6.7 L66.4165299,7.36 L67.4865299,7.36 L67.4865299,0 L66.3765299,0 L66.3765299,3.08 L66.3665299,3.08 C65.9965299,2.64 65.4465299,2.41 64.8065299,2.41 C63.4665299,2.41 62.4465299,3.47 62.4465299,4.94 C62.4465299,6.45 63.4665299,7.44 64.8165299,7.44 Z M64.9865299,6.42 C64.1665299,6.42 63.5865299,5.81 63.5865299,4.95 C63.5865299,4.01 64.2165299,3.42 64.9965299,3.42 C65.8365299,3.42 66.4165299,4.08 66.4165299,4.95 C66.4165299,5.83 65.7865299,6.42 64.9865299,6.42 Z" id="Shape"></path>
                <path d="M68.8839553,7.36 L70.0939553,7.36 L70.0939553,4.83 L71.3139553,4.83 C72.8439553,4.83 73.8839553,4.1 73.8839553,2.56 C73.8839553,1.24 73.1539553,0.26 71.4539553,0.26 L68.8839553,0.26 L68.8839553,7.36 Z M70.0939553,3.74 L70.0939553,1.34 L71.2839553,1.34 C72.1539553,1.34 72.6339553,1.79 72.6339553,2.54 C72.6339553,3.24 72.1839553,3.74 71.1939553,3.74 L70.0939553,3.74 Z" id="Shape"></path>
                <path d="M74.9713806,7.36 L76.1813806,7.36 L76.1813806,4.83 L77.4013806,4.83 C78.9313806,4.83 79.9713806,4.1 79.9713806,2.56 C79.9713806,1.24 79.2413806,0.26 77.5413806,0.26 L74.9713806,0.26 L74.9713806,7.36 Z M76.1813806,3.74 L76.1813806,1.34 L77.3713806,1.34 C78.2413806,1.34 78.7213806,1.79 78.7213806,2.54 C78.7213806,3.24 78.2713806,3.74 77.2813806,3.74 L76.1813806,3.74 Z" id="Shape"></path>
                <path d="M84.318806,7.42 C85.568806,7.42 86.508806,6.84 87.118806,6.08 L86.228806,5.32 C85.778806,5.88 85.118806,6.29 84.318806,6.29 C82.968806,6.29 81.998806,5.29 81.998806,3.83 C81.998806,2.33 82.948806,1.32 84.298806,1.32 C85.048806,1.32 85.678806,1.64 86.208806,2.29 L87.098806,1.54 C86.358806,0.63 85.338806,0.18 84.298806,0.18 C82.018806,0.18 80.738806,1.81 80.738806,3.83 C80.738806,6.16 82.388806,7.42 84.318806,7.42 Z" id="Path"></path>
            </g>
        </g>
    </g>
</svg>