<?xml version="1.0" encoding="UTF-8"?>
<svg width="264px" height="75px" viewBox="0 0 264 75" version="1.1" xmlns="http://www.w3.org/2000/svg" xmlns:xlink="http://www.w3.org/1999/xlink">
    <!-- Generator: Sketch 54.1 (76490) - https://sketchapp.com -->
    <title>Group</title>
    <desc>Created with Sketch.</desc>
    <g id="Page-1" stroke="none" stroke-width="1" fill="none" fill-rule="evenodd">
        <g id="A4" transform="translate(-289.000000, -431.000000)">
            <g id="Group" transform="translate(289.000000, 431.000000)">
                <path d="M67.9780166,54.264506 C64.0689334,54.264506 60.7429279,53.0350235 58,50.5760585 L61.2028201,45.9341349 C63.2559098,47.8912703 65.5307336,48.869838 68.0272907,48.869838 C68.9634997,48.869838 69.7026121,48.6774698 70.2446278,48.2927339 C70.7866435,47.907998 71.0576513,47.4061684 71.0576513,46.7872452 C71.0576513,46.4025093 70.893404,46.0637743 70.5649098,45.7710403 C70.2364155,45.4783062 69.7806296,45.206482 69.197552,44.9555672 C68.6144743,44.7046524 67.739858,44.3868268 66.5737031,44.002091 C65.8345908,43.7511762 65.173496,43.5002614 64.5904184,43.2493466 C64.0073407,42.9984318 63.4119449,42.7015161 62.8042302,42.3585991 C62.1965155,42.015682 61.6750309,41.6351282 61.2397758,41.2169367 C60.8045206,40.7987453 60.4103273,40.3303713 60.057196,39.8118139 C59.7040647,39.2932565 59.4371628,38.6994251 59.256491,38.0303189 C59.0758192,37.3612126 58.9854831,36.6335597 58.9854831,35.8473602 C58.9854831,34.3585992 59.3755701,33.0412965 60.1557443,31.8954522 C60.9359186,30.7496078 61.9953129,29.8672244 63.3339274,29.2483011 C64.6725418,28.6293778 66.1795099,28.3199164 67.8548312,28.3199164 C69.5794267,28.3199164 71.1644119,28.5708312 72.6097873,29.0726607 C74.0551626,29.5744903 75.4759005,30.3774177 76.8720018,31.4814428 L73.6691816,36.3993727 C72.7493975,35.5128072 71.7762329,34.847883 70.7496879,34.4046001 C69.7231428,33.9613172 68.7335538,33.7396759 67.78092,33.7396759 C67.1567808,33.7396759 66.5983402,33.9027705 66.1055987,34.2289597 C65.6128571,34.555149 65.3664863,35.0193413 65.3664863,35.6215369 C65.3664863,36.1233664 65.658025,36.5750131 66.2411026,36.9764767 C66.8241802,37.3779404 67.7644951,37.829587 69.062048,38.3314166 C71.7885514,39.3518036 73.6116952,40.1630946 74.5314793,40.7652901 C76.1246772,41.7689493 77.0773106,43.1071614 77.3893804,44.7799268 C77.4879287,45.2817564 77.5372029,45.8421326 77.5372029,46.4610559 C77.5372029,48.7861998 76.720073,50.6680608 75.0858136,52.1066388 C73.4515542,53.5452168 71.0822884,54.264506 67.9780166,54.264506 Z M93.6687913,28.3199164 C94.9663442,28.3199164 96.2105167,28.5248302 97.4013086,28.9346576 C98.5921006,29.344485 99.6638135,29.9383168 100.616447,30.7161526 C101.569081,31.4939885 102.394423,32.4140095 103.092474,33.4762154 C103.790524,34.5384212 104.328434,35.7428122 104.706202,37.0893884 C105.083971,38.4359646 105.272855,39.8619969 105.272855,41.3674856 C105.272855,43.2744381 104.97721,45.0350237 104.38592,46.649242 C103.79463,48.2634604 102.977501,49.6267644 101.934531,50.7391532 C100.891561,51.851542 99.6432827,52.717198 98.1896951,53.3361213 C96.7361075,53.9550446 95.1634409,54.264506 93.4716947,54.264506 C90.3838477,54.264506 87.9612015,53.1855724 86.2037567,51.0277052 L86.1052084,51.0277052 L86.1052084,64 L79.5024715,64 L79.5024715,28.7464715 L86.1052084,28.7464715 L86.1052084,31.6319916 L86.2037567,31.6319916 C88.0433253,29.4239415 90.5316702,28.3199164 93.6687913,28.3199164 Z M92.2644779,48.242551 C94.120471,48.242551 95.6356513,47.6069003 96.8100188,46.3355985 C97.9843863,45.0642968 98.5715699,43.4166232 98.5715699,41.3925771 C98.5715699,39.2848928 97.9720677,37.5870359 96.7730632,36.2990068 C95.5740586,35.0109776 94.0711968,34.3669629 92.2644779,34.3669629 C91.3282689,34.3669629 90.4618649,34.5467853 89.6652662,34.9064297 C88.8686674,35.2660741 88.1911478,35.7553579 87.6327072,36.3742812 C87.0742667,36.9932045 86.6349056,37.7375848 86.3146235,38.6074229 C85.9943415,39.477261 85.8342005,40.4056457 85.8342005,41.3925771 C85.8342005,42.7307892 86.1175269,43.9268165 86.6841797,44.9806587 C87.2508325,46.0345008 88.0227942,46.8416102 89.000065,47.4019864 C89.9773359,47.9623627 91.0654733,48.242551 92.2644779,48.242551 Z M130.495525,41.0663879 C130.495525,42.2540511 130.438039,43.0569784 130.323066,43.4751699 L113.052474,43.4751699 C113.446667,44.9639309 114.198098,46.1348667 115.306767,46.987977 C116.415435,47.8410873 117.758156,48.2760061 119.334929,48.2927339 C121.716513,48.3094617 123.679267,47.3643492 125.223191,45.4573968 L129.510042,49.5222164 C128.393161,50.9607944 126.931361,52.1108208 125.124642,52.9722948 C123.317923,53.8337688 121.231984,54.264506 118.866825,54.264506 C116.468816,54.264506 114.308965,53.7334029 112.387273,52.6711971 C110.465581,51.6089912 108.950401,50.0825927 107.841732,48.0920021 C106.733064,46.1014115 106.178729,43.8264506 106.178729,41.2671197 C106.178729,39.3936225 106.490799,37.6497646 107.114938,36.0355463 C107.739077,34.4213279 108.589057,33.0496602 109.664876,31.9205436 C110.740695,30.7914271 112.034142,29.9090433 113.545216,29.2733926 C115.05629,28.6377419 116.674125,28.3199164 118.39872,28.3199164 C120.780304,28.3199164 122.89088,28.8677469 124.730449,29.9634083 C126.570018,31.0590697 127.990756,32.5729221 128.992664,34.504966 C129.994572,36.4370099 130.495525,38.6241507 130.495525,41.0663879 Z M118.620454,34.2415055 C117.257202,34.2415055 116.086941,34.6178777 115.10967,35.3706221 C114.132399,36.1233664 113.45488,37.2106638 113.077111,38.6325144 L123.942063,38.6325144 C123.597143,37.2608467 122.973004,36.1860951 122.069645,35.4082593 C121.166285,34.6304234 120.016555,34.2415055 118.620454,34.2415055 Z M155.619647,41.0663879 C155.619647,42.2540511 155.562161,43.0569784 155.447188,43.4751699 L138.176596,43.4751699 C138.570789,44.9639309 139.32222,46.1348667 140.430889,46.987977 C141.539557,47.8410873 142.882278,48.2760061 144.459051,48.2927339 C146.840635,48.3094617 148.803389,47.3643492 150.347313,45.4573968 L154.634164,49.5222164 C153.517283,50.9607944 152.055483,52.1108208 150.248764,52.9722948 C148.442045,53.8337688 146.356106,54.264506 143.990946,54.264506 C141.592938,54.264506 139.433087,53.7334029 137.511395,52.6711971 C135.589703,51.6089912 134.074523,50.0825927 132.965854,48.0920021 C131.857186,46.1014115 131.302851,43.8264506 131.302851,41.2671197 C131.302851,39.3936225 131.614921,37.6497646 132.23906,36.0355463 C132.863199,34.4213279 133.713179,33.0496602 134.788998,31.9205436 C135.864817,30.7914271 137.158264,29.9090433 138.669338,29.2733926 C140.180412,28.6377419 141.798247,28.3199164 143.522842,28.3199164 C145.904426,28.3199164 148.015002,28.8677469 149.854571,29.9634083 C151.69414,31.0590697 153.114878,32.5729221 154.116786,34.504966 C155.118693,36.4370099 155.619647,38.6241507 155.619647,41.0663879 Z M143.744576,34.2415055 C142.381324,34.2415055 141.211063,34.6178777 140.233792,35.3706221 C139.256521,36.1233664 138.579002,37.2106638 138.201233,38.6325144 L149.066185,38.6325144 C148.721265,37.2608467 148.097126,36.1860951 147.193767,35.4082593 C146.290407,34.6304234 145.140677,34.2415055 143.744576,34.2415055 Z M175.569983,16 L182.17272,16 L182.17272,53.8379509 L175.890265,53.8379509 L175.890265,50.8018819 L175.742442,50.8018819 C173.952148,53.110298 171.439166,54.264506 168.203497,54.264506 C167.234438,54.264506 166.298229,54.1641401 165.39487,53.9634083 C164.49151,53.7626764 163.649743,53.4615787 162.869569,53.060115 C162.089395,52.6586513 161.362601,52.1819132 160.689188,51.6299007 C160.015774,51.0778881 159.416272,50.4338734 158.890681,49.6978568 C158.36509,48.9618402 157.917516,48.1672765 157.54796,47.3141662 C157.178404,46.4610559 156.895078,45.5284892 156.697981,44.5164663 C156.500884,43.5044434 156.402336,42.4547829 156.402336,41.3674856 C156.402336,39.4939884 156.697981,37.7459489 157.289271,36.1233664 C157.880561,34.500784 158.689478,33.1207526 159.716023,31.9832723 C160.742568,30.8457921 161.974422,29.9508625 163.411585,29.2984841 C164.848748,28.6461056 166.380353,28.3199164 168.0064,28.3199164 C171.110672,28.3199164 173.590804,29.4072137 175.446797,31.5818087 L175.569983,31.5818087 L175.569983,16 Z M169.410713,48.242551 C170.609718,48.242551 171.701962,47.9623627 172.687445,47.4019864 C173.672928,46.8416102 174.457208,46.0345008 175.040286,44.9806587 C175.623363,43.9268165 175.914902,42.7307892 175.914902,41.3925771 C175.914902,39.3852588 175.303081,37.7124933 174.07944,36.3742812 C172.855798,35.0360691 171.307768,34.3669629 169.43535,34.3669629 C167.628631,34.3669629 166.121663,35.0109776 164.914447,36.2990068 C163.70723,37.5870359 163.103621,39.2848928 163.103621,41.3925771 C163.103621,43.4166232 163.690805,45.0642968 164.865172,46.3355985 C166.03954,47.6069003 167.55472,48.242551 169.410713,48.242551 Z M199.905718,28.3199164 C201.203271,28.3199164 202.447444,28.5248302 203.638236,28.9346576 C204.829028,29.344485 205.90074,29.9383168 206.853374,30.7161526 C207.806008,31.4939885 208.63135,32.4140095 209.329401,33.4762154 C210.027451,34.5384212 210.565361,35.7428122 210.943129,37.0893884 C211.320898,38.4359646 211.509782,39.8619969 211.509782,41.3674856 C211.509782,43.2744381 211.214137,45.0350237 210.622847,46.649242 C210.031557,48.2634604 209.214427,49.6267644 208.171458,50.7391532 C207.128488,51.851542 205.88021,52.717198 204.426622,53.3361213 C202.973034,53.9550446 201.400368,54.264506 199.708622,54.264506 C196.620775,54.264506 194.198128,53.1855724 192.440684,51.0277052 L192.342135,51.0277052 L192.342135,64 L185.739398,64 L185.739398,28.7464715 L192.342135,28.7464715 L192.342135,31.6319916 L192.440684,31.6319916 C194.280252,29.4239415 196.768597,28.3199164 199.905718,28.3199164 Z M198.501405,48.242551 C200.357398,48.242551 201.872578,47.6069003 203.046946,46.3355985 C204.221313,45.0642968 204.808497,43.4166232 204.808497,41.3925771 C204.808497,39.2848928 204.208995,37.5870359 203.00999,36.2990068 C201.810986,35.0109776 200.308124,34.3669629 198.501405,34.3669629 C197.565196,34.3669629 196.698792,34.5467853 195.902193,34.9064297 C195.105594,35.2660741 194.428075,35.7553579 193.869634,36.3742812 C193.311194,36.9932045 192.871833,37.7375848 192.55155,38.6074229 C192.231268,39.477261 192.071127,40.4056457 192.071127,41.3925771 C192.071127,42.7307892 192.354454,43.9268165 192.921107,44.9806587 C193.487759,46.0345008 194.259721,46.8416102 195.236992,47.4019864 C196.214263,47.9623627 197.3024,48.242551 198.501405,48.242551 Z M227.937015,28.3199164 C229.234568,28.3199164 230.478741,28.5248302 231.669533,28.9346576 C232.860325,29.344485 233.932038,29.9383168 234.884671,30.7161526 C235.837305,31.4939885 236.662647,32.4140095 237.360698,33.4762154 C238.058748,34.5384212 238.596658,35.7428122 238.974426,37.0893884 C239.352195,38.4359646 239.541079,39.8619969 239.541079,41.3674856 C239.541079,43.2744381 239.245434,45.0350237 238.654144,46.649242 C238.062854,48.2634604 237.245725,49.6267644 236.202755,50.7391532 C235.159786,51.851542 233.911507,52.717198 232.457919,53.3361213 C231.004332,53.9550446 229.431665,54.264506 227.739919,54.264506 C224.652072,54.264506 222.229426,53.1855724 220.471981,51.0277052 L220.373432,51.0277052 L220.373432,64 L213.770696,64 L213.770696,28.7464715 L220.373432,28.7464715 L220.373432,31.6319916 L220.471981,31.6319916 C222.311549,29.4239415 224.799894,28.3199164 227.937015,28.3199164 Z M226.532702,48.242551 C228.388695,48.242551 229.903875,47.6069003 231.078243,46.3355985 C232.25261,45.0642968 232.839794,43.4166232 232.839794,41.3925771 C232.839794,39.2848928 232.240292,37.5870359 231.041287,36.2990068 C229.842283,35.0109776 228.339421,34.3669629 226.532702,34.3669629 C225.596493,34.3669629 224.730089,34.5467853 223.93349,34.9064297 C223.136892,35.2660741 222.459372,35.7553579 221.900931,36.3742812 C221.342491,36.9932045 220.90313,37.7375848 220.582848,38.6074229 C220.262566,39.477261 220.102425,40.4056457 220.102425,41.3925771 C220.102425,42.7307892 220.385751,43.9268165 220.952404,44.9806587 C221.519057,46.0345008 222.291018,46.8416102 223.268289,47.4019864 C224.24556,47.9623627 225.333697,48.242551 226.532702,48.242551 Z M253.110412,54.264506 C250.695978,54.264506 248.527915,53.7250392 246.606223,52.6461056 C244.684531,51.567172 243.177563,50.0407738 242.085319,48.0669106 C240.993075,46.0930474 240.446953,43.8431784 240.446953,41.3173027 C240.446953,38.7746996 240.997181,36.5164664 242.097638,34.5426032 C243.198094,32.5687401 244.733805,31.0381598 246.704771,29.9508625 C248.675737,28.8635652 250.917712,28.3199164 253.430694,28.3199164 C255.450934,28.3199164 257.397263,28.7339258 259.269681,29.5619446 C261.142099,30.3899634 262.686023,31.5818087 263.901452,33.1374804 L259.442141,37.0517512 C257.931067,35.2618924 256.017587,34.3669629 253.701701,34.3669629 C252.732643,34.3669629 251.837496,34.5384212 251.01626,34.8813382 C250.195024,35.2242552 249.50108,35.6968113 248.934427,36.2990068 C248.367774,36.9012023 247.928413,37.6288552 247.616343,38.4819655 C247.304273,39.3350758 247.148239,40.2634605 247.148239,41.2671197 C247.148239,43.324621 247.760059,44.9973864 248.983701,46.2854156 C250.207343,47.5734447 251.796434,48.2174595 253.750976,48.2174595 C254.966405,48.2174595 256.062755,47.9790904 257.040025,47.5023523 C258.017296,47.0256142 258.826214,46.4192367 259.466778,45.6832201 L264,49.7480397 C262.866694,51.0862518 261.359726,52.1735495 259.479096,53.009932 C257.598466,53.8463146 255.475571,54.264506 253.110412,54.264506 Z" id="speedppc" fill="#F6F7F8" fill-rule="nonzero"></path>
                <g id="Group-7">
                    <polygon id="Fill-1" fill="#E73D5C" points="0 30.6774619 15.859863 38.95 25.4581765 29.7112678 29.9574468 15.3387975 29.9574468 0"></polygon>
                    <polygon id="Fill-2" fill="#EF5F79" points="13.106383 32.4067645 15.4093617 45.6 29.9574468 29.92534 29.9574468 14.25"></polygon>
                    <polygon id="Fill-3" fill="#BB243F" points="0 45.6 14.9787234 45.6 14.9787234 30.4 0 30.4"></polygon>
                    <polygon id="Fill-4" fill="#3462B5" points="44 44.3719009 28.140137 36.1 18.5418235 45.3387638 14.0425532 59.7112832 14.0425532 75.05"></polygon>
                    <polygon id="Fill-5" fill="#1446A0" points="34.6382979 39.835172 29.4420962 29.45 14.0425532 45.12432 14.0425532 60.8"></polygon>
                    <polygon id="Fill-6" fill="#0A3581" points="29.0212766 44.65 44 44.65 44 29.45 29.0212766 29.45"></polygon>
                </g>
                <path d="M255.48128,22 L255.48128,17.8865979 L254,17.8865979 L254,17 L258.030116,17 L258.030116,17.8865979 L256.541448,17.8865979 L256.541448,22 L255.48128,22 Z M262.92875,17 L264,17 L264,22 L262.943526,22 L262.943526,18.8934708 L262.932444,18.8934708 L261.621087,21.0515464 L260.930315,21.0515464 L259.618958,18.8934708 L259.607876,18.8934708 L259.607876,22 L258.551402,22 L258.551402,17 L259.622652,17 L261.273854,19.8453608 L261.28863,19.8453608 L262.92875,17 Z" id="TM" fill="#F6F7F8" fill-rule="nonzero" opacity="0.572335379"></path>
            </g>
            <path d="M543.652422,453 L543.652422,448.563574 L542,448.563574 L542,448 L546,448 L546,448.563574 L544.328585,448.563574 L544.328585,453 L543.652422,453 Z M552.249476,448 L553,448 L553,453 L552.253669,453 L552.253669,449.168385 L552.24109,449.168385 L550.253669,451.993127 L549.746331,451.993127 L547.75891,449.168385 L547.746331,449.168385 L547.746331,453 L547,453 L547,448 L547.750524,448 L549.989518,451.233677 L550.014675,451.233677 L552.249476,448 Z" id="TM" fill-rule="nonzero"></path>
        </g>
    </g>
</svg>